G04 #@! TF.GenerationSoftware,KiCad,Pcbnew,(5.1.5)-3*
G04 #@! TF.CreationDate,2021-01-05T16:06:44-08:00*
G04 #@! TF.ProjectId,AREGFACE,41524547-4641-4434-952e-6b696361645f,rev?*
G04 #@! TF.SameCoordinates,Original*
G04 #@! TF.FileFunction,Legend,Bot*
G04 #@! TF.FilePolarity,Positive*
%FSLAX46Y46*%
G04 Gerber Fmt 4.6, Leading zero omitted, Abs format (unit mm)*
G04 Created by KiCad (PCBNEW (5.1.5)-3) date 2021-01-05 16:06:44*
%MOMM*%
%LPD*%
G04 APERTURE LIST*
%ADD10C,0.150000*%
G04 APERTURE END LIST*
D10*
X96378780Y-188776552D02*
X97093066Y-188776552D01*
X97235923Y-188728933D01*
X97331161Y-188633695D01*
X97378780Y-188490838D01*
X97378780Y-188395600D01*
X97378780Y-189728933D02*
X97378780Y-189252742D01*
X96378780Y-189252742D01*
X97283542Y-190633695D02*
X97331161Y-190586076D01*
X97378780Y-190443219D01*
X97378780Y-190347980D01*
X97331161Y-190205123D01*
X97235923Y-190109885D01*
X97140685Y-190062266D01*
X96950209Y-190014647D01*
X96807352Y-190014647D01*
X96616876Y-190062266D01*
X96521638Y-190109885D01*
X96426400Y-190205123D01*
X96378780Y-190347980D01*
X96378780Y-190443219D01*
X96426400Y-190586076D01*
X96474019Y-190633695D01*
X96378780Y-191347980D02*
X97093066Y-191347980D01*
X97235923Y-191300361D01*
X97331161Y-191205123D01*
X97378780Y-191062266D01*
X97378780Y-190967028D01*
X97378780Y-192300361D02*
X97378780Y-191824171D01*
X96378780Y-191824171D01*
X97283542Y-193205123D02*
X97331161Y-193157504D01*
X97378780Y-193014647D01*
X97378780Y-192919409D01*
X97331161Y-192776552D01*
X97235923Y-192681314D01*
X97140685Y-192633695D01*
X96950209Y-192586076D01*
X96807352Y-192586076D01*
X96616876Y-192633695D01*
X96521638Y-192681314D01*
X96426400Y-192776552D01*
X96378780Y-192919409D01*
X96378780Y-193014647D01*
X96426400Y-193157504D01*
X96474019Y-193205123D01*
X96378780Y-193919409D02*
X97093066Y-193919409D01*
X97235923Y-193871790D01*
X97331161Y-193776552D01*
X97378780Y-193633695D01*
X97378780Y-193538457D01*
X97378780Y-194871790D02*
X97378780Y-194395600D01*
X96378780Y-194395600D01*
X97283542Y-195776552D02*
X97331161Y-195728933D01*
X97378780Y-195586076D01*
X97378780Y-195490838D01*
X97331161Y-195347980D01*
X97235923Y-195252742D01*
X97140685Y-195205123D01*
X96950209Y-195157504D01*
X96807352Y-195157504D01*
X96616876Y-195205123D01*
X96521638Y-195252742D01*
X96426400Y-195347980D01*
X96378780Y-195490838D01*
X96378780Y-195586076D01*
X96426400Y-195728933D01*
X96474019Y-195776552D01*
X96378780Y-196490838D02*
X97093066Y-196490838D01*
X97235923Y-196443219D01*
X97331161Y-196347980D01*
X97378780Y-196205123D01*
X97378780Y-196109885D01*
X97378780Y-197443219D02*
X97378780Y-196967028D01*
X96378780Y-196967028D01*
X97283542Y-198347980D02*
X97331161Y-198300361D01*
X97378780Y-198157504D01*
X97378780Y-198062266D01*
X97331161Y-197919409D01*
X97235923Y-197824171D01*
X97140685Y-197776552D01*
X96950209Y-197728933D01*
X96807352Y-197728933D01*
X96616876Y-197776552D01*
X96521638Y-197824171D01*
X96426400Y-197919409D01*
X96378780Y-198062266D01*
X96378780Y-198157504D01*
X96426400Y-198300361D01*
X96474019Y-198347980D01*
M02*
