G04 #@! TF.GenerationSoftware,KiCad,Pcbnew,(5.1.5)-3*
G04 #@! TF.CreationDate,2021-01-05T16:06:44-08:00*
G04 #@! TF.ProjectId,AREGFACE,41524547-4641-4434-952e-6b696361645f,rev?*
G04 #@! TF.SameCoordinates,Original*
G04 #@! TF.FileFunction,Soldermask,Bot*
G04 #@! TF.FilePolarity,Negative*
%FSLAX46Y46*%
G04 Gerber Fmt 4.6, Leading zero omitted, Abs format (unit mm)*
G04 Created by KiCad (PCBNEW (5.1.5)-3) date 2021-01-05 16:06:44*
%MOMM*%
%LPD*%
G04 APERTURE LIST*
%ADD10C,0.100000*%
G04 APERTURE END LIST*
D10*
G36*
X77814254Y-202370818D02*
G01*
X78187511Y-202525426D01*
X78187513Y-202525427D01*
X78523436Y-202749884D01*
X78809116Y-203035564D01*
X79033574Y-203371489D01*
X79188182Y-203744746D01*
X79267000Y-204140993D01*
X79267000Y-204545007D01*
X79188182Y-204941254D01*
X79033574Y-205314511D01*
X79033573Y-205314513D01*
X78809116Y-205650436D01*
X78523436Y-205936116D01*
X78187513Y-206160573D01*
X78187512Y-206160574D01*
X78187511Y-206160574D01*
X77814254Y-206315182D01*
X77418007Y-206394000D01*
X77013993Y-206394000D01*
X76617746Y-206315182D01*
X76244489Y-206160574D01*
X76244488Y-206160574D01*
X76244487Y-206160573D01*
X75908564Y-205936116D01*
X75622884Y-205650436D01*
X75398427Y-205314513D01*
X75398426Y-205314511D01*
X75243818Y-204941254D01*
X75165000Y-204545007D01*
X75165000Y-204140993D01*
X75243818Y-203744746D01*
X75398426Y-203371489D01*
X75622884Y-203035564D01*
X75908564Y-202749884D01*
X76244487Y-202525427D01*
X76244489Y-202525426D01*
X76617746Y-202370818D01*
X77013993Y-202292000D01*
X77418007Y-202292000D01*
X77814254Y-202370818D01*
G37*
G36*
X96534054Y-202370818D02*
G01*
X96907311Y-202525426D01*
X96907313Y-202525427D01*
X97243236Y-202749884D01*
X97528916Y-203035564D01*
X97753374Y-203371489D01*
X97907982Y-203744746D01*
X97986800Y-204140993D01*
X97986800Y-204545007D01*
X97907982Y-204941254D01*
X97753374Y-205314511D01*
X97753373Y-205314513D01*
X97528916Y-205650436D01*
X97243236Y-205936116D01*
X96907313Y-206160573D01*
X96907312Y-206160574D01*
X96907311Y-206160574D01*
X96534054Y-206315182D01*
X96137807Y-206394000D01*
X95733793Y-206394000D01*
X95337546Y-206315182D01*
X94964289Y-206160574D01*
X94964288Y-206160574D01*
X94964287Y-206160573D01*
X94628364Y-205936116D01*
X94342684Y-205650436D01*
X94118227Y-205314513D01*
X94118226Y-205314511D01*
X93963618Y-204941254D01*
X93884800Y-204545007D01*
X93884800Y-204140993D01*
X93963618Y-203744746D01*
X94118226Y-203371489D01*
X94342684Y-203035564D01*
X94628364Y-202749884D01*
X94964287Y-202525427D01*
X94964289Y-202525426D01*
X95337546Y-202370818D01*
X95733793Y-202292000D01*
X96137807Y-202292000D01*
X96534054Y-202370818D01*
G37*
G36*
X88696100Y-176049165D02*
G01*
X89979299Y-176580684D01*
X89979301Y-176580685D01*
X91134151Y-177352330D01*
X92116270Y-178334449D01*
X92887915Y-179489299D01*
X92887916Y-179489301D01*
X93419435Y-180772500D01*
X93690400Y-182134736D01*
X93690400Y-183523664D01*
X93419435Y-184885900D01*
X92887916Y-186169099D01*
X92887915Y-186169101D01*
X92116270Y-187323951D01*
X91134151Y-188306070D01*
X89979301Y-189077715D01*
X89979300Y-189077716D01*
X89979299Y-189077716D01*
X88696100Y-189609235D01*
X87333864Y-189880200D01*
X85944936Y-189880200D01*
X84582700Y-189609235D01*
X83299501Y-189077716D01*
X83299500Y-189077716D01*
X83299499Y-189077715D01*
X82144649Y-188306070D01*
X81162530Y-187323951D01*
X80390885Y-186169101D01*
X80390884Y-186169099D01*
X79859365Y-184885900D01*
X79588400Y-183523664D01*
X79588400Y-182134736D01*
X79859365Y-180772500D01*
X80390884Y-179489301D01*
X80390885Y-179489299D01*
X81162530Y-178334449D01*
X82144649Y-177352330D01*
X83299499Y-176580685D01*
X83299501Y-176580684D01*
X84582700Y-176049165D01*
X85944936Y-175778200D01*
X87333864Y-175778200D01*
X88696100Y-176049165D01*
G37*
G36*
X87377021Y-165962640D02*
G01*
X87886769Y-166173785D01*
X87886771Y-166173786D01*
X88345534Y-166480321D01*
X88735679Y-166870466D01*
X89042214Y-167329229D01*
X89042215Y-167329231D01*
X89253360Y-167838979D01*
X89361000Y-168380124D01*
X89361000Y-168931876D01*
X89253360Y-169473021D01*
X89042215Y-169982769D01*
X89042214Y-169982771D01*
X88735679Y-170441534D01*
X88345534Y-170831679D01*
X87886771Y-171138214D01*
X87886770Y-171138215D01*
X87886769Y-171138215D01*
X87377021Y-171349360D01*
X86835876Y-171457000D01*
X86284124Y-171457000D01*
X85742979Y-171349360D01*
X85233231Y-171138215D01*
X85233230Y-171138215D01*
X85233229Y-171138214D01*
X84774466Y-170831679D01*
X84384321Y-170441534D01*
X84077786Y-169982771D01*
X84077785Y-169982769D01*
X83866640Y-169473021D01*
X83759000Y-168931876D01*
X83759000Y-168380124D01*
X83866640Y-167838979D01*
X84077785Y-167329231D01*
X84077786Y-167329229D01*
X84384321Y-166870466D01*
X84774466Y-166480321D01*
X85233229Y-166173786D01*
X85233231Y-166173785D01*
X85742979Y-165962640D01*
X86284124Y-165855000D01*
X86835876Y-165855000D01*
X87377021Y-165962640D01*
G37*
G36*
X88616700Y-131903965D02*
G01*
X89899899Y-132435484D01*
X89899901Y-132435485D01*
X91054751Y-133207130D01*
X92036870Y-134189249D01*
X92808515Y-135344099D01*
X92808516Y-135344101D01*
X93340035Y-136627300D01*
X93611000Y-137989536D01*
X93611000Y-139378464D01*
X93340035Y-140740700D01*
X92808516Y-142023899D01*
X92808515Y-142023901D01*
X92036870Y-143178751D01*
X91054751Y-144160870D01*
X89899901Y-144932515D01*
X89899900Y-144932516D01*
X89899899Y-144932516D01*
X88616700Y-145464035D01*
X87254464Y-145735000D01*
X85865536Y-145735000D01*
X84503300Y-145464035D01*
X83220101Y-144932516D01*
X83220100Y-144932516D01*
X83220099Y-144932515D01*
X82065249Y-144160870D01*
X81083130Y-143178751D01*
X80311485Y-142023901D01*
X80311484Y-142023899D01*
X79779965Y-140740700D01*
X79509000Y-139378464D01*
X79509000Y-137989536D01*
X79779965Y-136627300D01*
X80311484Y-135344101D01*
X80311485Y-135344099D01*
X81083130Y-134189249D01*
X82065249Y-133207130D01*
X83220099Y-132435485D01*
X83220101Y-132435484D01*
X84503300Y-131903965D01*
X85865536Y-131633000D01*
X87254464Y-131633000D01*
X88616700Y-131903965D01*
G37*
G36*
X87887477Y-68775892D02*
G01*
X88230541Y-68917994D01*
X88715707Y-69118956D01*
X89461093Y-69617008D01*
X90094992Y-70250907D01*
X90593044Y-70996293D01*
X90794006Y-71481459D01*
X90936108Y-71824523D01*
X91111000Y-72703764D01*
X91111000Y-73600236D01*
X90936108Y-74479477D01*
X90794006Y-74822541D01*
X90593044Y-75307707D01*
X90094992Y-76053093D01*
X89461093Y-76686992D01*
X88715707Y-77185044D01*
X88230541Y-77386006D01*
X87887477Y-77528108D01*
X87008236Y-77703000D01*
X86111764Y-77703000D01*
X85232523Y-77528108D01*
X84889459Y-77386006D01*
X84404293Y-77185044D01*
X83658907Y-76686992D01*
X83025008Y-76053093D01*
X82526956Y-75307707D01*
X82325994Y-74822541D01*
X82183892Y-74479477D01*
X82009000Y-73600236D01*
X82009000Y-72703764D01*
X82183892Y-71824523D01*
X82325994Y-71481459D01*
X82526956Y-70996293D01*
X83025008Y-70250907D01*
X83658907Y-69617008D01*
X84404293Y-69118956D01*
X84889459Y-68917994D01*
X85232523Y-68775892D01*
X86111764Y-68601000D01*
X87008236Y-68601000D01*
X87887477Y-68775892D01*
G37*
G36*
X87887477Y-51666452D02*
G01*
X88230541Y-51808554D01*
X88715707Y-52009516D01*
X89461093Y-52507568D01*
X90094992Y-53141467D01*
X90593044Y-53886853D01*
X90794006Y-54372019D01*
X90936108Y-54715083D01*
X91111000Y-55594324D01*
X91111000Y-56490796D01*
X90936108Y-57370037D01*
X90794006Y-57713101D01*
X90593044Y-58198267D01*
X90094992Y-58943653D01*
X89461093Y-59577552D01*
X88715707Y-60075604D01*
X88230541Y-60276566D01*
X87887477Y-60418668D01*
X87008236Y-60593560D01*
X86111764Y-60593560D01*
X85232523Y-60418668D01*
X84889459Y-60276566D01*
X84404293Y-60075604D01*
X83658907Y-59577552D01*
X83025008Y-58943653D01*
X82526956Y-58198267D01*
X82325994Y-57713101D01*
X82183892Y-57370037D01*
X82009000Y-56490796D01*
X82009000Y-55594324D01*
X82183892Y-54715083D01*
X82325994Y-54372019D01*
X82526956Y-53886853D01*
X83025008Y-53141467D01*
X83658907Y-52507568D01*
X84404293Y-52009516D01*
X84889459Y-51808554D01*
X85232523Y-51666452D01*
X86111764Y-51491560D01*
X87008236Y-51491560D01*
X87887477Y-51666452D01*
G37*
G36*
X87887477Y-34181092D02*
G01*
X88230541Y-34323194D01*
X88715707Y-34524156D01*
X89461093Y-35022208D01*
X90094992Y-35656107D01*
X90593044Y-36401493D01*
X90794006Y-36886659D01*
X90936108Y-37229723D01*
X91111000Y-38108964D01*
X91111000Y-39005436D01*
X90936108Y-39884677D01*
X90794006Y-40227741D01*
X90593044Y-40712907D01*
X90094992Y-41458293D01*
X89461093Y-42092192D01*
X88715707Y-42590244D01*
X88230541Y-42791206D01*
X87887477Y-42933308D01*
X87008236Y-43108200D01*
X86111764Y-43108200D01*
X85232523Y-42933308D01*
X84889459Y-42791206D01*
X84404293Y-42590244D01*
X83658907Y-42092192D01*
X83025008Y-41458293D01*
X82526956Y-40712907D01*
X82325994Y-40227741D01*
X82183892Y-39884677D01*
X82009000Y-39005436D01*
X82009000Y-38108964D01*
X82183892Y-37229723D01*
X82325994Y-36886659D01*
X82526956Y-36401493D01*
X83025008Y-35656107D01*
X83658907Y-35022208D01*
X84404293Y-34524156D01*
X84889459Y-34323194D01*
X85232523Y-34181092D01*
X86111764Y-34006200D01*
X87008236Y-34006200D01*
X87887477Y-34181092D01*
G37*
G36*
X77814254Y-8370818D02*
G01*
X78187511Y-8525426D01*
X78187513Y-8525427D01*
X78523436Y-8749884D01*
X78809116Y-9035564D01*
X79033574Y-9371489D01*
X79188182Y-9744746D01*
X79267000Y-10140993D01*
X79267000Y-10545007D01*
X79188182Y-10941254D01*
X79033574Y-11314511D01*
X79033573Y-11314513D01*
X78809116Y-11650436D01*
X78523436Y-11936116D01*
X78187513Y-12160573D01*
X78187512Y-12160574D01*
X78187511Y-12160574D01*
X77814254Y-12315182D01*
X77418007Y-12394000D01*
X77013993Y-12394000D01*
X76617746Y-12315182D01*
X76244489Y-12160574D01*
X76244488Y-12160574D01*
X76244487Y-12160573D01*
X75908564Y-11936116D01*
X75622884Y-11650436D01*
X75398427Y-11314513D01*
X75398426Y-11314511D01*
X75243818Y-10941254D01*
X75165000Y-10545007D01*
X75165000Y-10140993D01*
X75243818Y-9744746D01*
X75398426Y-9371489D01*
X75622884Y-9035564D01*
X75908564Y-8749884D01*
X76244487Y-8525427D01*
X76244489Y-8525426D01*
X76617746Y-8370818D01*
X77013993Y-8292000D01*
X77418007Y-8292000D01*
X77814254Y-8370818D01*
G37*
G36*
X96534054Y-8370818D02*
G01*
X96907311Y-8525426D01*
X96907313Y-8525427D01*
X97243236Y-8749884D01*
X97528916Y-9035564D01*
X97753374Y-9371489D01*
X97907982Y-9744746D01*
X97986800Y-10140993D01*
X97986800Y-10545007D01*
X97907982Y-10941254D01*
X97753374Y-11314511D01*
X97753373Y-11314513D01*
X97528916Y-11650436D01*
X97243236Y-11936116D01*
X96907313Y-12160573D01*
X96907312Y-12160574D01*
X96907311Y-12160574D01*
X96534054Y-12315182D01*
X96137807Y-12394000D01*
X95733793Y-12394000D01*
X95337546Y-12315182D01*
X94964289Y-12160574D01*
X94964288Y-12160574D01*
X94964287Y-12160573D01*
X94628364Y-11936116D01*
X94342684Y-11650436D01*
X94118227Y-11314513D01*
X94118226Y-11314511D01*
X93963618Y-10941254D01*
X93884800Y-10545007D01*
X93884800Y-10140993D01*
X93963618Y-9744746D01*
X94118226Y-9371489D01*
X94342684Y-9035564D01*
X94628364Y-8749884D01*
X94964287Y-8525427D01*
X94964289Y-8525426D01*
X95337546Y-8370818D01*
X95733793Y-8292000D01*
X96137807Y-8292000D01*
X96534054Y-8370818D01*
G37*
M02*
