%FSLAX45Y45*%
G04 Gerber Fmt 4.5, Leading zero omitted, Abs format (unit mm)*
G04 Created by KiCad (PCBNEW (5.1.5)-3) date 2021-01-05 16:06:42*
%MOMM*%
%LPD*%
G04 APERTURE LIST*
%TA.AperFunction,Profile*%
%ADD10C,0.050000*%
%TD*%
%ADD11C,0.200000*%
%ADD12C,0.300000*%
G04 APERTURE END LIST*
D10*
X7406000Y-20743600D02*
X9906000Y-20743600D01*
X9906000Y-743600D02*
X9906000Y-20743600D01*
X7406000Y-743600D02*
X9906000Y-743600D01*
X7406000Y-743600D02*
X7406000Y-20743600D01*
D11*
X7561600Y-874300D02*
X7881600Y-1194300D01*
X7881600Y-874300D02*
X7561600Y-1194300D01*
X7561600Y-20274300D02*
X7881600Y-20594300D01*
X7881600Y-20274300D02*
X7561600Y-20594300D01*
X9433580Y-874300D02*
X9753580Y-1194300D01*
X9753580Y-874300D02*
X9433580Y-1194300D01*
X9433580Y-20274300D02*
X9753580Y-20594300D01*
X9753580Y-20274300D02*
X9433580Y-20594300D01*
X8906000Y-16865600D02*
G75*
G03X8906000Y-16865600I-250000J0D01*
G01*
X8656000Y-3505720D02*
X8656000Y-4205720D01*
X8306000Y-3855720D02*
X9006000Y-3855720D01*
X8656000Y-6965200D02*
X8656000Y-7665200D01*
X8306000Y-7315200D02*
X9006000Y-7315200D01*
X8656000Y-5254256D02*
X8656000Y-5954256D01*
X8306000Y-5604256D02*
X9006000Y-5604256D01*
X9017497Y-18636477D02*
X9017497Y-17929363D01*
X8310383Y-17929363D01*
X8310383Y-18636477D01*
X9017497Y-18636477D01*
X9009557Y-14221957D02*
X9009557Y-13514843D01*
X8302443Y-13514843D01*
X8302443Y-14221957D01*
X9009557Y-14221957D01*
D12*
X7689928Y-21211814D02*
X7689928Y-20911814D01*
X7761357Y-20911814D01*
X7804214Y-20926100D01*
X7832786Y-20954672D01*
X7847071Y-20983243D01*
X7861357Y-21040386D01*
X7861357Y-21083243D01*
X7847071Y-21140386D01*
X7832786Y-21168957D01*
X7804214Y-21197529D01*
X7761357Y-21211814D01*
X7689928Y-21211814D01*
X7989928Y-21211814D02*
X7989928Y-21011814D01*
X7989928Y-21068957D02*
X8004214Y-21040386D01*
X8018500Y-21026100D01*
X8047071Y-21011814D01*
X8075643Y-21011814D01*
X8175643Y-21211814D02*
X8175643Y-21011814D01*
X8175643Y-20911814D02*
X8161357Y-20926100D01*
X8175643Y-20940386D01*
X8189928Y-20926100D01*
X8175643Y-20911814D01*
X8175643Y-20940386D01*
X8361357Y-21211814D02*
X8332786Y-21197529D01*
X8318500Y-21168957D01*
X8318500Y-20911814D01*
X8518500Y-21211814D02*
X8489928Y-21197529D01*
X8475643Y-21168957D01*
X8475643Y-20911814D01*
X8861357Y-21211814D02*
X8861357Y-20911814D01*
X8961357Y-21126100D01*
X9061357Y-20911814D01*
X9061357Y-21211814D01*
X9332786Y-21211814D02*
X9332786Y-21054672D01*
X9318500Y-21026100D01*
X9289928Y-21011814D01*
X9232786Y-21011814D01*
X9204214Y-21026100D01*
X9332786Y-21197529D02*
X9304214Y-21211814D01*
X9232786Y-21211814D01*
X9204214Y-21197529D01*
X9189928Y-21168957D01*
X9189928Y-21140386D01*
X9204214Y-21111814D01*
X9232786Y-21097529D01*
X9304214Y-21097529D01*
X9332786Y-21083243D01*
X9475643Y-21011814D02*
X9475643Y-21311814D01*
X9475643Y-21026100D02*
X9504214Y-21011814D01*
X9561357Y-21011814D01*
X9589928Y-21026100D01*
X9604214Y-21040386D01*
X9618500Y-21068957D01*
X9618500Y-21154672D01*
X9604214Y-21183243D01*
X9589928Y-21197529D01*
X9561357Y-21211814D01*
X9504214Y-21211814D01*
X9475643Y-21197529D01*
X9747071Y-21183243D02*
X9761357Y-21197529D01*
X9747071Y-21211814D01*
X9732786Y-21197529D01*
X9747071Y-21183243D01*
X9747071Y-21211814D01*
X9747071Y-21026100D02*
X9761357Y-21040386D01*
X9747071Y-21054672D01*
X9732786Y-21040386D01*
X9747071Y-21026100D01*
X9747071Y-21054672D01*
X7083500Y-21546100D02*
X7403500Y-21866100D01*
X7403500Y-21546100D02*
X7083500Y-21866100D01*
X7661357Y-21541814D02*
X7847071Y-21541814D01*
X7747071Y-21656100D01*
X7789928Y-21656100D01*
X7818500Y-21670386D01*
X7832786Y-21684672D01*
X7847071Y-21713243D01*
X7847071Y-21784672D01*
X7832786Y-21813243D01*
X7818500Y-21827529D01*
X7789928Y-21841814D01*
X7704214Y-21841814D01*
X7675643Y-21827529D01*
X7661357Y-21813243D01*
X7975643Y-21813243D02*
X7989928Y-21827529D01*
X7975643Y-21841814D01*
X7961357Y-21827529D01*
X7975643Y-21813243D01*
X7975643Y-21841814D01*
X8104214Y-21570386D02*
X8118500Y-21556100D01*
X8147071Y-21541814D01*
X8218500Y-21541814D01*
X8247071Y-21556100D01*
X8261357Y-21570386D01*
X8275643Y-21598957D01*
X8275643Y-21627529D01*
X8261357Y-21670386D01*
X8089928Y-21841814D01*
X8275643Y-21841814D01*
X8461357Y-21541814D02*
X8489928Y-21541814D01*
X8518500Y-21556100D01*
X8532786Y-21570386D01*
X8547071Y-21598957D01*
X8561357Y-21656100D01*
X8561357Y-21727529D01*
X8547071Y-21784672D01*
X8532786Y-21813243D01*
X8518500Y-21827529D01*
X8489928Y-21841814D01*
X8461357Y-21841814D01*
X8432786Y-21827529D01*
X8418500Y-21813243D01*
X8404214Y-21784672D01*
X8389928Y-21727529D01*
X8389928Y-21656100D01*
X8404214Y-21598957D01*
X8418500Y-21570386D01*
X8432786Y-21556100D01*
X8461357Y-21541814D01*
X8689928Y-21841814D02*
X8689928Y-21641814D01*
X8689928Y-21670386D02*
X8704214Y-21656100D01*
X8732786Y-21641814D01*
X8775643Y-21641814D01*
X8804214Y-21656100D01*
X8818500Y-21684672D01*
X8818500Y-21841814D01*
X8818500Y-21684672D02*
X8832786Y-21656100D01*
X8861357Y-21641814D01*
X8904214Y-21641814D01*
X8932786Y-21656100D01*
X8947071Y-21684672D01*
X8947071Y-21841814D01*
X9089928Y-21841814D02*
X9089928Y-21641814D01*
X9089928Y-21670386D02*
X9104214Y-21656100D01*
X9132786Y-21641814D01*
X9175643Y-21641814D01*
X9204214Y-21656100D01*
X9218500Y-21684672D01*
X9218500Y-21841814D01*
X9218500Y-21684672D02*
X9232786Y-21656100D01*
X9261357Y-21641814D01*
X9304214Y-21641814D01*
X9332786Y-21656100D01*
X9347071Y-21684672D01*
X9347071Y-21841814D01*
X9932786Y-21527529D02*
X9675643Y-21913243D01*
X10318500Y-21541814D02*
X10347071Y-21541814D01*
X10375643Y-21556100D01*
X10389928Y-21570386D01*
X10404214Y-21598957D01*
X10418500Y-21656100D01*
X10418500Y-21727529D01*
X10404214Y-21784672D01*
X10389928Y-21813243D01*
X10375643Y-21827529D01*
X10347071Y-21841814D01*
X10318500Y-21841814D01*
X10289928Y-21827529D01*
X10275643Y-21813243D01*
X10261357Y-21784672D01*
X10247071Y-21727529D01*
X10247071Y-21656100D01*
X10261357Y-21598957D01*
X10275643Y-21570386D01*
X10289928Y-21556100D01*
X10318500Y-21541814D01*
X10547071Y-21813243D02*
X10561357Y-21827529D01*
X10547071Y-21841814D01*
X10532786Y-21827529D01*
X10547071Y-21813243D01*
X10547071Y-21841814D01*
X10847071Y-21841814D02*
X10675643Y-21841814D01*
X10761357Y-21841814D02*
X10761357Y-21541814D01*
X10732786Y-21584672D01*
X10704214Y-21613243D01*
X10675643Y-21627529D01*
X10961357Y-21570386D02*
X10975643Y-21556100D01*
X11004214Y-21541814D01*
X11075643Y-21541814D01*
X11104214Y-21556100D01*
X11118500Y-21570386D01*
X11132786Y-21598957D01*
X11132786Y-21627529D01*
X11118500Y-21670386D01*
X10947071Y-21841814D01*
X11132786Y-21841814D01*
X11389928Y-21541814D02*
X11332786Y-21541814D01*
X11304214Y-21556100D01*
X11289928Y-21570386D01*
X11261357Y-21613243D01*
X11247071Y-21670386D01*
X11247071Y-21784672D01*
X11261357Y-21813243D01*
X11275643Y-21827529D01*
X11304214Y-21841814D01*
X11361357Y-21841814D01*
X11389928Y-21827529D01*
X11404214Y-21813243D01*
X11418500Y-21784672D01*
X11418500Y-21713243D01*
X11404214Y-21684672D01*
X11389928Y-21670386D01*
X11361357Y-21656100D01*
X11304214Y-21656100D01*
X11275643Y-21670386D01*
X11261357Y-21684672D01*
X11247071Y-21713243D01*
X11532786Y-21541814D02*
X11532786Y-21598957D01*
X11647071Y-21541814D02*
X11647071Y-21598957D01*
X12089928Y-21956100D02*
X12075643Y-21941814D01*
X12047071Y-21898957D01*
X12032786Y-21870386D01*
X12018500Y-21827529D01*
X12004214Y-21756100D01*
X12004214Y-21698957D01*
X12018500Y-21627529D01*
X12032786Y-21584672D01*
X12047071Y-21556100D01*
X12075643Y-21513243D01*
X12089928Y-21498957D01*
X12332786Y-21641814D02*
X12332786Y-21841814D01*
X12261357Y-21527529D02*
X12189928Y-21741814D01*
X12375643Y-21741814D01*
X12718500Y-21841814D02*
X12718500Y-21541814D01*
X12847071Y-21841814D02*
X12847071Y-21684672D01*
X12832786Y-21656100D01*
X12804214Y-21641814D01*
X12761357Y-21641814D01*
X12732786Y-21656100D01*
X12718500Y-21670386D01*
X13032786Y-21841814D02*
X13004214Y-21827529D01*
X12989928Y-21813243D01*
X12975643Y-21784672D01*
X12975643Y-21698957D01*
X12989928Y-21670386D01*
X13004214Y-21656100D01*
X13032786Y-21641814D01*
X13075643Y-21641814D01*
X13104214Y-21656100D01*
X13118500Y-21670386D01*
X13132786Y-21698957D01*
X13132786Y-21784672D01*
X13118500Y-21813243D01*
X13104214Y-21827529D01*
X13075643Y-21841814D01*
X13032786Y-21841814D01*
X13304214Y-21841814D02*
X13275643Y-21827529D01*
X13261357Y-21798957D01*
X13261357Y-21541814D01*
X13532786Y-21827529D02*
X13504214Y-21841814D01*
X13447071Y-21841814D01*
X13418500Y-21827529D01*
X13404214Y-21798957D01*
X13404214Y-21684672D01*
X13418500Y-21656100D01*
X13447071Y-21641814D01*
X13504214Y-21641814D01*
X13532786Y-21656100D01*
X13547071Y-21684672D01*
X13547071Y-21713243D01*
X13404214Y-21741814D01*
X13661357Y-21827529D02*
X13689928Y-21841814D01*
X13747071Y-21841814D01*
X13775643Y-21827529D01*
X13789928Y-21798957D01*
X13789928Y-21784672D01*
X13775643Y-21756100D01*
X13747071Y-21741814D01*
X13704214Y-21741814D01*
X13675643Y-21727529D01*
X13661357Y-21698957D01*
X13661357Y-21684672D01*
X13675643Y-21656100D01*
X13704214Y-21641814D01*
X13747071Y-21641814D01*
X13775643Y-21656100D01*
X13889928Y-21956100D02*
X13904214Y-21941814D01*
X13932786Y-21898957D01*
X13947071Y-21870386D01*
X13961357Y-21827529D01*
X13975643Y-21756100D01*
X13975643Y-21698957D01*
X13961357Y-21627529D01*
X13947071Y-21584672D01*
X13932786Y-21556100D01*
X13904214Y-21513243D01*
X13889928Y-21498957D01*
X7403500Y-22156100D02*
G75*
G03X7403500Y-22156100I-250000J0D01*
G01*
X7832786Y-21991814D02*
X7689928Y-21991814D01*
X7675643Y-22134672D01*
X7689928Y-22120386D01*
X7718500Y-22106100D01*
X7789928Y-22106100D01*
X7818500Y-22120386D01*
X7832786Y-22134672D01*
X7847071Y-22163243D01*
X7847071Y-22234672D01*
X7832786Y-22263243D01*
X7818500Y-22277529D01*
X7789928Y-22291814D01*
X7718500Y-22291814D01*
X7689928Y-22277529D01*
X7675643Y-22263243D01*
X7975643Y-22263243D02*
X7989928Y-22277529D01*
X7975643Y-22291814D01*
X7961357Y-22277529D01*
X7975643Y-22263243D01*
X7975643Y-22291814D01*
X8175643Y-21991814D02*
X8204214Y-21991814D01*
X8232786Y-22006100D01*
X8247071Y-22020386D01*
X8261357Y-22048957D01*
X8275643Y-22106100D01*
X8275643Y-22177529D01*
X8261357Y-22234672D01*
X8247071Y-22263243D01*
X8232786Y-22277529D01*
X8204214Y-22291814D01*
X8175643Y-22291814D01*
X8147071Y-22277529D01*
X8132786Y-22263243D01*
X8118500Y-22234672D01*
X8104214Y-22177529D01*
X8104214Y-22106100D01*
X8118500Y-22048957D01*
X8132786Y-22020386D01*
X8147071Y-22006100D01*
X8175643Y-21991814D01*
X8461357Y-21991814D02*
X8489928Y-21991814D01*
X8518500Y-22006100D01*
X8532786Y-22020386D01*
X8547071Y-22048957D01*
X8561357Y-22106100D01*
X8561357Y-22177529D01*
X8547071Y-22234672D01*
X8532786Y-22263243D01*
X8518500Y-22277529D01*
X8489928Y-22291814D01*
X8461357Y-22291814D01*
X8432786Y-22277529D01*
X8418500Y-22263243D01*
X8404214Y-22234672D01*
X8389928Y-22177529D01*
X8389928Y-22106100D01*
X8404214Y-22048957D01*
X8418500Y-22020386D01*
X8432786Y-22006100D01*
X8461357Y-21991814D01*
X8689928Y-22291814D02*
X8689928Y-22091814D01*
X8689928Y-22120386D02*
X8704214Y-22106100D01*
X8732786Y-22091814D01*
X8775643Y-22091814D01*
X8804214Y-22106100D01*
X8818500Y-22134672D01*
X8818500Y-22291814D01*
X8818500Y-22134672D02*
X8832786Y-22106100D01*
X8861357Y-22091814D01*
X8904214Y-22091814D01*
X8932786Y-22106100D01*
X8947071Y-22134672D01*
X8947071Y-22291814D01*
X9089928Y-22291814D02*
X9089928Y-22091814D01*
X9089928Y-22120386D02*
X9104214Y-22106100D01*
X9132786Y-22091814D01*
X9175643Y-22091814D01*
X9204214Y-22106100D01*
X9218500Y-22134672D01*
X9218500Y-22291814D01*
X9218500Y-22134672D02*
X9232786Y-22106100D01*
X9261357Y-22091814D01*
X9304214Y-22091814D01*
X9332786Y-22106100D01*
X9347071Y-22134672D01*
X9347071Y-22291814D01*
X9932786Y-21977529D02*
X9675643Y-22363243D01*
X10318500Y-21991814D02*
X10347071Y-21991814D01*
X10375643Y-22006100D01*
X10389928Y-22020386D01*
X10404214Y-22048957D01*
X10418500Y-22106100D01*
X10418500Y-22177529D01*
X10404214Y-22234672D01*
X10389928Y-22263243D01*
X10375643Y-22277529D01*
X10347071Y-22291814D01*
X10318500Y-22291814D01*
X10289928Y-22277529D01*
X10275643Y-22263243D01*
X10261357Y-22234672D01*
X10247071Y-22177529D01*
X10247071Y-22106100D01*
X10261357Y-22048957D01*
X10275643Y-22020386D01*
X10289928Y-22006100D01*
X10318500Y-21991814D01*
X10547071Y-22263243D02*
X10561357Y-22277529D01*
X10547071Y-22291814D01*
X10532786Y-22277529D01*
X10547071Y-22263243D01*
X10547071Y-22291814D01*
X10847071Y-22291814D02*
X10675643Y-22291814D01*
X10761357Y-22291814D02*
X10761357Y-21991814D01*
X10732786Y-22034672D01*
X10704214Y-22063243D01*
X10675643Y-22077529D01*
X10989928Y-22291814D02*
X11047071Y-22291814D01*
X11075643Y-22277529D01*
X11089928Y-22263243D01*
X11118500Y-22220386D01*
X11132786Y-22163243D01*
X11132786Y-22048957D01*
X11118500Y-22020386D01*
X11104214Y-22006100D01*
X11075643Y-21991814D01*
X11018500Y-21991814D01*
X10989928Y-22006100D01*
X10975643Y-22020386D01*
X10961357Y-22048957D01*
X10961357Y-22120386D01*
X10975643Y-22148957D01*
X10989928Y-22163243D01*
X11018500Y-22177529D01*
X11075643Y-22177529D01*
X11104214Y-22163243D01*
X11118500Y-22148957D01*
X11132786Y-22120386D01*
X11232786Y-21991814D02*
X11432786Y-21991814D01*
X11304214Y-22291814D01*
X11532786Y-21991814D02*
X11532786Y-22048957D01*
X11647071Y-21991814D02*
X11647071Y-22048957D01*
X12089928Y-22406100D02*
X12075643Y-22391814D01*
X12047071Y-22348957D01*
X12032786Y-22320386D01*
X12018500Y-22277529D01*
X12004214Y-22206100D01*
X12004214Y-22148957D01*
X12018500Y-22077529D01*
X12032786Y-22034672D01*
X12047071Y-22006100D01*
X12075643Y-21963243D01*
X12089928Y-21948957D01*
X12361357Y-22291814D02*
X12189928Y-22291814D01*
X12275643Y-22291814D02*
X12275643Y-21991814D01*
X12247071Y-22034672D01*
X12218500Y-22063243D01*
X12189928Y-22077529D01*
X12718500Y-22291814D02*
X12718500Y-21991814D01*
X12847071Y-22291814D02*
X12847071Y-22134672D01*
X12832786Y-22106100D01*
X12804214Y-22091814D01*
X12761357Y-22091814D01*
X12732786Y-22106100D01*
X12718500Y-22120386D01*
X13032786Y-22291814D02*
X13004214Y-22277529D01*
X12989928Y-22263243D01*
X12975643Y-22234672D01*
X12975643Y-22148957D01*
X12989928Y-22120386D01*
X13004214Y-22106100D01*
X13032786Y-22091814D01*
X13075643Y-22091814D01*
X13104214Y-22106100D01*
X13118500Y-22120386D01*
X13132786Y-22148957D01*
X13132786Y-22234672D01*
X13118500Y-22263243D01*
X13104214Y-22277529D01*
X13075643Y-22291814D01*
X13032786Y-22291814D01*
X13304214Y-22291814D02*
X13275643Y-22277529D01*
X13261357Y-22248957D01*
X13261357Y-21991814D01*
X13532786Y-22277529D02*
X13504214Y-22291814D01*
X13447071Y-22291814D01*
X13418500Y-22277529D01*
X13404214Y-22248957D01*
X13404214Y-22134672D01*
X13418500Y-22106100D01*
X13447071Y-22091814D01*
X13504214Y-22091814D01*
X13532786Y-22106100D01*
X13547071Y-22134672D01*
X13547071Y-22163243D01*
X13404214Y-22191814D01*
X13647071Y-22406100D02*
X13661357Y-22391814D01*
X13689928Y-22348957D01*
X13704214Y-22320386D01*
X13718500Y-22277529D01*
X13732786Y-22206100D01*
X13732786Y-22148957D01*
X13718500Y-22077529D01*
X13704214Y-22034672D01*
X13689928Y-22006100D01*
X13661357Y-21963243D01*
X13647071Y-21948957D01*
X7053500Y-22436100D02*
X7053500Y-23136100D01*
X6703500Y-22786100D02*
X7403500Y-22786100D01*
X7661357Y-22621814D02*
X7861357Y-22621814D01*
X7732786Y-22921814D01*
X7975643Y-22893243D02*
X7989928Y-22907529D01*
X7975643Y-22921814D01*
X7961357Y-22907529D01*
X7975643Y-22893243D01*
X7975643Y-22921814D01*
X8175643Y-22621814D02*
X8204214Y-22621814D01*
X8232786Y-22636100D01*
X8247071Y-22650386D01*
X8261357Y-22678957D01*
X8275643Y-22736100D01*
X8275643Y-22807529D01*
X8261357Y-22864671D01*
X8247071Y-22893243D01*
X8232786Y-22907529D01*
X8204214Y-22921814D01*
X8175643Y-22921814D01*
X8147071Y-22907529D01*
X8132786Y-22893243D01*
X8118500Y-22864671D01*
X8104214Y-22807529D01*
X8104214Y-22736100D01*
X8118500Y-22678957D01*
X8132786Y-22650386D01*
X8147071Y-22636100D01*
X8175643Y-22621814D01*
X8461357Y-22621814D02*
X8489928Y-22621814D01*
X8518500Y-22636100D01*
X8532786Y-22650386D01*
X8547071Y-22678957D01*
X8561357Y-22736100D01*
X8561357Y-22807529D01*
X8547071Y-22864671D01*
X8532786Y-22893243D01*
X8518500Y-22907529D01*
X8489928Y-22921814D01*
X8461357Y-22921814D01*
X8432786Y-22907529D01*
X8418500Y-22893243D01*
X8404214Y-22864671D01*
X8389928Y-22807529D01*
X8389928Y-22736100D01*
X8404214Y-22678957D01*
X8418500Y-22650386D01*
X8432786Y-22636100D01*
X8461357Y-22621814D01*
X8689928Y-22921814D02*
X8689928Y-22721814D01*
X8689928Y-22750386D02*
X8704214Y-22736100D01*
X8732786Y-22721814D01*
X8775643Y-22721814D01*
X8804214Y-22736100D01*
X8818500Y-22764671D01*
X8818500Y-22921814D01*
X8818500Y-22764671D02*
X8832786Y-22736100D01*
X8861357Y-22721814D01*
X8904214Y-22721814D01*
X8932786Y-22736100D01*
X8947071Y-22764671D01*
X8947071Y-22921814D01*
X9089928Y-22921814D02*
X9089928Y-22721814D01*
X9089928Y-22750386D02*
X9104214Y-22736100D01*
X9132786Y-22721814D01*
X9175643Y-22721814D01*
X9204214Y-22736100D01*
X9218500Y-22764671D01*
X9218500Y-22921814D01*
X9218500Y-22764671D02*
X9232786Y-22736100D01*
X9261357Y-22721814D01*
X9304214Y-22721814D01*
X9332786Y-22736100D01*
X9347071Y-22764671D01*
X9347071Y-22921814D01*
X9932786Y-22607529D02*
X9675643Y-22993243D01*
X10318500Y-22621814D02*
X10347071Y-22621814D01*
X10375643Y-22636100D01*
X10389928Y-22650386D01*
X10404214Y-22678957D01*
X10418500Y-22736100D01*
X10418500Y-22807529D01*
X10404214Y-22864671D01*
X10389928Y-22893243D01*
X10375643Y-22907529D01*
X10347071Y-22921814D01*
X10318500Y-22921814D01*
X10289928Y-22907529D01*
X10275643Y-22893243D01*
X10261357Y-22864671D01*
X10247071Y-22807529D01*
X10247071Y-22736100D01*
X10261357Y-22678957D01*
X10275643Y-22650386D01*
X10289928Y-22636100D01*
X10318500Y-22621814D01*
X10547071Y-22893243D02*
X10561357Y-22907529D01*
X10547071Y-22921814D01*
X10532786Y-22907529D01*
X10547071Y-22893243D01*
X10547071Y-22921814D01*
X10675643Y-22650386D02*
X10689928Y-22636100D01*
X10718500Y-22621814D01*
X10789928Y-22621814D01*
X10818500Y-22636100D01*
X10832786Y-22650386D01*
X10847071Y-22678957D01*
X10847071Y-22707529D01*
X10832786Y-22750386D01*
X10661357Y-22921814D01*
X10847071Y-22921814D01*
X10947071Y-22621814D02*
X11147071Y-22621814D01*
X11018500Y-22921814D01*
X11389928Y-22621814D02*
X11332786Y-22621814D01*
X11304214Y-22636100D01*
X11289928Y-22650386D01*
X11261357Y-22693243D01*
X11247071Y-22750386D01*
X11247071Y-22864671D01*
X11261357Y-22893243D01*
X11275643Y-22907529D01*
X11304214Y-22921814D01*
X11361357Y-22921814D01*
X11389928Y-22907529D01*
X11404214Y-22893243D01*
X11418500Y-22864671D01*
X11418500Y-22793243D01*
X11404214Y-22764671D01*
X11389928Y-22750386D01*
X11361357Y-22736100D01*
X11304214Y-22736100D01*
X11275643Y-22750386D01*
X11261357Y-22764671D01*
X11247071Y-22793243D01*
X11532786Y-22621814D02*
X11532786Y-22678957D01*
X11647071Y-22621814D02*
X11647071Y-22678957D01*
X12089928Y-23036100D02*
X12075643Y-23021814D01*
X12047071Y-22978957D01*
X12032786Y-22950386D01*
X12018500Y-22907529D01*
X12004214Y-22836100D01*
X12004214Y-22778957D01*
X12018500Y-22707529D01*
X12032786Y-22664671D01*
X12047071Y-22636100D01*
X12075643Y-22593243D01*
X12089928Y-22578957D01*
X12175643Y-22621814D02*
X12361357Y-22621814D01*
X12261357Y-22736100D01*
X12304214Y-22736100D01*
X12332786Y-22750386D01*
X12347071Y-22764671D01*
X12361357Y-22793243D01*
X12361357Y-22864671D01*
X12347071Y-22893243D01*
X12332786Y-22907529D01*
X12304214Y-22921814D01*
X12218500Y-22921814D01*
X12189928Y-22907529D01*
X12175643Y-22893243D01*
X12718500Y-22921814D02*
X12718500Y-22621814D01*
X12847071Y-22921814D02*
X12847071Y-22764671D01*
X12832786Y-22736100D01*
X12804214Y-22721814D01*
X12761357Y-22721814D01*
X12732786Y-22736100D01*
X12718500Y-22750386D01*
X13032786Y-22921814D02*
X13004214Y-22907529D01*
X12989928Y-22893243D01*
X12975643Y-22864671D01*
X12975643Y-22778957D01*
X12989928Y-22750386D01*
X13004214Y-22736100D01*
X13032786Y-22721814D01*
X13075643Y-22721814D01*
X13104214Y-22736100D01*
X13118500Y-22750386D01*
X13132786Y-22778957D01*
X13132786Y-22864671D01*
X13118500Y-22893243D01*
X13104214Y-22907529D01*
X13075643Y-22921814D01*
X13032786Y-22921814D01*
X13304214Y-22921814D02*
X13275643Y-22907529D01*
X13261357Y-22878957D01*
X13261357Y-22621814D01*
X13532786Y-22907529D02*
X13504214Y-22921814D01*
X13447071Y-22921814D01*
X13418500Y-22907529D01*
X13404214Y-22878957D01*
X13404214Y-22764671D01*
X13418500Y-22736100D01*
X13447071Y-22721814D01*
X13504214Y-22721814D01*
X13532786Y-22736100D01*
X13547071Y-22764671D01*
X13547071Y-22793243D01*
X13404214Y-22821814D01*
X13661357Y-22907529D02*
X13689928Y-22921814D01*
X13747071Y-22921814D01*
X13775643Y-22907529D01*
X13789928Y-22878957D01*
X13789928Y-22864671D01*
X13775643Y-22836100D01*
X13747071Y-22821814D01*
X13704214Y-22821814D01*
X13675643Y-22807529D01*
X13661357Y-22778957D01*
X13661357Y-22764671D01*
X13675643Y-22736100D01*
X13704214Y-22721814D01*
X13747071Y-22721814D01*
X13775643Y-22736100D01*
X13889928Y-23036100D02*
X13904214Y-23021814D01*
X13932786Y-22978957D01*
X13947071Y-22950386D01*
X13961357Y-22907529D01*
X13975643Y-22836100D01*
X13975643Y-22778957D01*
X13961357Y-22707529D01*
X13947071Y-22664671D01*
X13932786Y-22636100D01*
X13904214Y-22593243D01*
X13889928Y-22578957D01*
X7257057Y-23969657D02*
X7257057Y-23262543D01*
X6549943Y-23262543D01*
X6549943Y-23969657D01*
X7257057Y-23969657D01*
X7847071Y-23751814D02*
X7675643Y-23751814D01*
X7761357Y-23751814D02*
X7761357Y-23451814D01*
X7732786Y-23494671D01*
X7704214Y-23523243D01*
X7675643Y-23537529D01*
X8032786Y-23451814D02*
X8061357Y-23451814D01*
X8089928Y-23466100D01*
X8104214Y-23480386D01*
X8118500Y-23508957D01*
X8132786Y-23566100D01*
X8132786Y-23637529D01*
X8118500Y-23694671D01*
X8104214Y-23723243D01*
X8089928Y-23737529D01*
X8061357Y-23751814D01*
X8032786Y-23751814D01*
X8004214Y-23737529D01*
X7989928Y-23723243D01*
X7975643Y-23694671D01*
X7961357Y-23637529D01*
X7961357Y-23566100D01*
X7975643Y-23508957D01*
X7989928Y-23480386D01*
X8004214Y-23466100D01*
X8032786Y-23451814D01*
X8261357Y-23723243D02*
X8275643Y-23737529D01*
X8261357Y-23751814D01*
X8247071Y-23737529D01*
X8261357Y-23723243D01*
X8261357Y-23751814D01*
X8461357Y-23451814D02*
X8489928Y-23451814D01*
X8518500Y-23466100D01*
X8532786Y-23480386D01*
X8547071Y-23508957D01*
X8561357Y-23566100D01*
X8561357Y-23637529D01*
X8547071Y-23694671D01*
X8532786Y-23723243D01*
X8518500Y-23737529D01*
X8489928Y-23751814D01*
X8461357Y-23751814D01*
X8432786Y-23737529D01*
X8418500Y-23723243D01*
X8404214Y-23694671D01*
X8389928Y-23637529D01*
X8389928Y-23566100D01*
X8404214Y-23508957D01*
X8418500Y-23480386D01*
X8432786Y-23466100D01*
X8461357Y-23451814D01*
X8747071Y-23451814D02*
X8775643Y-23451814D01*
X8804214Y-23466100D01*
X8818500Y-23480386D01*
X8832786Y-23508957D01*
X8847071Y-23566100D01*
X8847071Y-23637529D01*
X8832786Y-23694671D01*
X8818500Y-23723243D01*
X8804214Y-23737529D01*
X8775643Y-23751814D01*
X8747071Y-23751814D01*
X8718500Y-23737529D01*
X8704214Y-23723243D01*
X8689928Y-23694671D01*
X8675643Y-23637529D01*
X8675643Y-23566100D01*
X8689928Y-23508957D01*
X8704214Y-23480386D01*
X8718500Y-23466100D01*
X8747071Y-23451814D01*
X8975643Y-23751814D02*
X8975643Y-23551814D01*
X8975643Y-23580386D02*
X8989928Y-23566100D01*
X9018500Y-23551814D01*
X9061357Y-23551814D01*
X9089928Y-23566100D01*
X9104214Y-23594671D01*
X9104214Y-23751814D01*
X9104214Y-23594671D02*
X9118500Y-23566100D01*
X9147071Y-23551814D01*
X9189928Y-23551814D01*
X9218500Y-23566100D01*
X9232786Y-23594671D01*
X9232786Y-23751814D01*
X9375643Y-23751814D02*
X9375643Y-23551814D01*
X9375643Y-23580386D02*
X9389928Y-23566100D01*
X9418500Y-23551814D01*
X9461357Y-23551814D01*
X9489928Y-23566100D01*
X9504214Y-23594671D01*
X9504214Y-23751814D01*
X9504214Y-23594671D02*
X9518500Y-23566100D01*
X9547071Y-23551814D01*
X9589928Y-23551814D01*
X9618500Y-23566100D01*
X9632786Y-23594671D01*
X9632786Y-23751814D01*
X10218500Y-23437529D02*
X9961357Y-23823243D01*
X10604214Y-23451814D02*
X10632786Y-23451814D01*
X10661357Y-23466100D01*
X10675643Y-23480386D01*
X10689928Y-23508957D01*
X10704214Y-23566100D01*
X10704214Y-23637529D01*
X10689928Y-23694671D01*
X10675643Y-23723243D01*
X10661357Y-23737529D01*
X10632786Y-23751814D01*
X10604214Y-23751814D01*
X10575643Y-23737529D01*
X10561357Y-23723243D01*
X10547071Y-23694671D01*
X10532786Y-23637529D01*
X10532786Y-23566100D01*
X10547071Y-23508957D01*
X10561357Y-23480386D01*
X10575643Y-23466100D01*
X10604214Y-23451814D01*
X10832786Y-23723243D02*
X10847071Y-23737529D01*
X10832786Y-23751814D01*
X10818500Y-23737529D01*
X10832786Y-23723243D01*
X10832786Y-23751814D01*
X10947071Y-23451814D02*
X11132786Y-23451814D01*
X11032786Y-23566100D01*
X11075643Y-23566100D01*
X11104214Y-23580386D01*
X11118500Y-23594671D01*
X11132786Y-23623243D01*
X11132786Y-23694671D01*
X11118500Y-23723243D01*
X11104214Y-23737529D01*
X11075643Y-23751814D01*
X10989928Y-23751814D01*
X10961357Y-23737529D01*
X10947071Y-23723243D01*
X11275643Y-23751814D02*
X11332786Y-23751814D01*
X11361357Y-23737529D01*
X11375643Y-23723243D01*
X11404214Y-23680386D01*
X11418500Y-23623243D01*
X11418500Y-23508957D01*
X11404214Y-23480386D01*
X11389928Y-23466100D01*
X11361357Y-23451814D01*
X11304214Y-23451814D01*
X11275643Y-23466100D01*
X11261357Y-23480386D01*
X11247071Y-23508957D01*
X11247071Y-23580386D01*
X11261357Y-23608957D01*
X11275643Y-23623243D01*
X11304214Y-23637529D01*
X11361357Y-23637529D01*
X11389928Y-23623243D01*
X11404214Y-23608957D01*
X11418500Y-23580386D01*
X11675643Y-23551814D02*
X11675643Y-23751814D01*
X11604214Y-23437529D02*
X11532786Y-23651814D01*
X11718500Y-23651814D01*
X11818500Y-23451814D02*
X11818500Y-23508957D01*
X11932786Y-23451814D02*
X11932786Y-23508957D01*
X12375643Y-23866100D02*
X12361357Y-23851814D01*
X12332786Y-23808957D01*
X12318500Y-23780386D01*
X12304214Y-23737529D01*
X12289928Y-23666100D01*
X12289928Y-23608957D01*
X12304214Y-23537529D01*
X12318500Y-23494671D01*
X12332786Y-23466100D01*
X12361357Y-23423243D01*
X12375643Y-23408957D01*
X12475643Y-23480386D02*
X12489928Y-23466100D01*
X12518500Y-23451814D01*
X12589928Y-23451814D01*
X12618500Y-23466100D01*
X12632786Y-23480386D01*
X12647071Y-23508957D01*
X12647071Y-23537529D01*
X12632786Y-23580386D01*
X12461357Y-23751814D01*
X12647071Y-23751814D01*
X13004214Y-23751814D02*
X13004214Y-23451814D01*
X13132786Y-23751814D02*
X13132786Y-23594671D01*
X13118500Y-23566100D01*
X13089928Y-23551814D01*
X13047071Y-23551814D01*
X13018500Y-23566100D01*
X13004214Y-23580386D01*
X13318500Y-23751814D02*
X13289928Y-23737529D01*
X13275643Y-23723243D01*
X13261357Y-23694671D01*
X13261357Y-23608957D01*
X13275643Y-23580386D01*
X13289928Y-23566100D01*
X13318500Y-23551814D01*
X13361357Y-23551814D01*
X13389928Y-23566100D01*
X13404214Y-23580386D01*
X13418500Y-23608957D01*
X13418500Y-23694671D01*
X13404214Y-23723243D01*
X13389928Y-23737529D01*
X13361357Y-23751814D01*
X13318500Y-23751814D01*
X13589928Y-23751814D02*
X13561357Y-23737529D01*
X13547071Y-23708957D01*
X13547071Y-23451814D01*
X13818500Y-23737529D02*
X13789928Y-23751814D01*
X13732786Y-23751814D01*
X13704214Y-23737529D01*
X13689928Y-23708957D01*
X13689928Y-23594671D01*
X13704214Y-23566100D01*
X13732786Y-23551814D01*
X13789928Y-23551814D01*
X13818500Y-23566100D01*
X13832786Y-23594671D01*
X13832786Y-23623243D01*
X13689928Y-23651814D01*
X13947071Y-23737529D02*
X13975643Y-23751814D01*
X14032786Y-23751814D01*
X14061357Y-23737529D01*
X14075643Y-23708957D01*
X14075643Y-23694671D01*
X14061357Y-23666100D01*
X14032786Y-23651814D01*
X13989928Y-23651814D01*
X13961357Y-23637529D01*
X13947071Y-23608957D01*
X13947071Y-23594671D01*
X13961357Y-23566100D01*
X13989928Y-23551814D01*
X14032786Y-23551814D01*
X14061357Y-23566100D01*
X14175643Y-23866100D02*
X14189928Y-23851814D01*
X14218500Y-23808957D01*
X14232786Y-23780386D01*
X14247071Y-23737529D01*
X14261357Y-23666100D01*
X14261357Y-23608957D01*
X14247071Y-23537529D01*
X14232786Y-23494671D01*
X14218500Y-23466100D01*
X14189928Y-23423243D01*
X14175643Y-23408957D01*
M02*
