%FSLAX45Y45*%
G04 Gerber Fmt 4.5, Leading zero omitted, Abs format (unit mm)*
G04 Created by KiCad (PCBNEW (5.1.5)-3) date 2021-01-05 16:06:42*
%MOMM*%
%LPD*%
G04 APERTURE LIST*
%TA.AperFunction,Profile*%
%ADD10C,0.050000*%
%TD*%
%ADD11C,0.200000*%
%ADD12C,0.300000*%
G04 APERTURE END LIST*
D10*
X7406000Y-20743600D02*
X9906000Y-20743600D01*
X9906000Y-743600D02*
X9906000Y-20743600D01*
X7406000Y-743600D02*
X9906000Y-743600D01*
X7406000Y-743600D02*
X7406000Y-20743600D01*
D11*
D12*
X7689928Y-21211814D02*
X7689928Y-20911814D01*
X7761357Y-20911814D01*
X7804214Y-20926100D01*
X7832786Y-20954672D01*
X7847071Y-20983243D01*
X7861357Y-21040386D01*
X7861357Y-21083243D01*
X7847071Y-21140386D01*
X7832786Y-21168957D01*
X7804214Y-21197529D01*
X7761357Y-21211814D01*
X7689928Y-21211814D01*
X7989928Y-21211814D02*
X7989928Y-21011814D01*
X7989928Y-21068957D02*
X8004214Y-21040386D01*
X8018500Y-21026100D01*
X8047071Y-21011814D01*
X8075643Y-21011814D01*
X8175643Y-21211814D02*
X8175643Y-21011814D01*
X8175643Y-20911814D02*
X8161357Y-20926100D01*
X8175643Y-20940386D01*
X8189928Y-20926100D01*
X8175643Y-20911814D01*
X8175643Y-20940386D01*
X8361357Y-21211814D02*
X8332786Y-21197529D01*
X8318500Y-21168957D01*
X8318500Y-20911814D01*
X8518500Y-21211814D02*
X8489928Y-21197529D01*
X8475643Y-21168957D01*
X8475643Y-20911814D01*
X8861357Y-21211814D02*
X8861357Y-20911814D01*
X8961357Y-21126100D01*
X9061357Y-20911814D01*
X9061357Y-21211814D01*
X9332786Y-21211814D02*
X9332786Y-21054672D01*
X9318500Y-21026100D01*
X9289928Y-21011814D01*
X9232786Y-21011814D01*
X9204214Y-21026100D01*
X9332786Y-21197529D02*
X9304214Y-21211814D01*
X9232786Y-21211814D01*
X9204214Y-21197529D01*
X9189928Y-21168957D01*
X9189928Y-21140386D01*
X9204214Y-21111814D01*
X9232786Y-21097529D01*
X9304214Y-21097529D01*
X9332786Y-21083243D01*
X9475643Y-21011814D02*
X9475643Y-21311814D01*
X9475643Y-21026100D02*
X9504214Y-21011814D01*
X9561357Y-21011814D01*
X9589928Y-21026100D01*
X9604214Y-21040386D01*
X9618500Y-21068957D01*
X9618500Y-21154672D01*
X9604214Y-21183243D01*
X9589928Y-21197529D01*
X9561357Y-21211814D01*
X9504214Y-21211814D01*
X9475643Y-21197529D01*
X9747071Y-21183243D02*
X9761357Y-21197529D01*
X9747071Y-21211814D01*
X9732786Y-21197529D01*
X9747071Y-21183243D01*
X9747071Y-21211814D01*
X9747071Y-21026100D02*
X9761357Y-21040386D01*
X9747071Y-21054672D01*
X9732786Y-21040386D01*
X9747071Y-21026100D01*
X9747071Y-21054672D01*
M02*
