G04 #@! TF.GenerationSoftware,KiCad,Pcbnew,(5.1.5)-3*
G04 #@! TF.CreationDate,2021-01-05T16:06:43-08:00*
G04 #@! TF.ProjectId,AREGFACE,41524547-4641-4434-952e-6b696361645f,rev?*
G04 #@! TF.SameCoordinates,Original*
G04 #@! TF.FileFunction,Copper,L1,Top*
G04 #@! TF.FilePolarity,Positive*
%FSLAX46Y46*%
G04 Gerber Fmt 4.6, Leading zero omitted, Abs format (unit mm)*
G04 Created by KiCad (PCBNEW (5.1.5)-3) date 2021-01-05 16:06:43*
%MOMM*%
%LPD*%
G04 APERTURE LIST*
%ADD10C,9.000000*%
%ADD11C,14.000000*%
%ADD12C,4.000000*%
%ADD13C,5.500000*%
%ADD14C,0.254000*%
G04 APERTURE END LIST*
D10*
X86560000Y-56042560D03*
X86560000Y-73152000D03*
D11*
X86639400Y-182829200D03*
X86560000Y-138684000D03*
D10*
X86560000Y-38557200D03*
D12*
X77216000Y-10343000D03*
X77216000Y-204343000D03*
D13*
X86560000Y-168656000D03*
D12*
X95935800Y-204343000D03*
X95935800Y-10343000D03*
D14*
G36*
X74880893Y-205591141D02*
G01*
X75169262Y-206022715D01*
X75536285Y-206389738D01*
X75967859Y-206678107D01*
X76204194Y-206776000D01*
X74720000Y-206776000D01*
X74720000Y-205202711D01*
X74880893Y-205591141D01*
G37*
X74880893Y-205591141D02*
X75169262Y-206022715D01*
X75536285Y-206389738D01*
X75967859Y-206678107D01*
X76204194Y-206776000D01*
X74720000Y-206776000D01*
X74720000Y-205202711D01*
X74880893Y-205591141D01*
G36*
X98400001Y-206776000D02*
G01*
X96947606Y-206776000D01*
X97183941Y-206678107D01*
X97615515Y-206389738D01*
X97982538Y-206022715D01*
X98270907Y-205591141D01*
X98400001Y-205279481D01*
X98400001Y-206776000D01*
G37*
X98400001Y-206776000D02*
X96947606Y-206776000D01*
X97183941Y-206678107D01*
X97615515Y-206389738D01*
X97982538Y-206022715D01*
X98270907Y-205591141D01*
X98400001Y-205279481D01*
X98400001Y-206776000D01*
G36*
X94256085Y-8296262D02*
G01*
X93889062Y-8663285D01*
X93600693Y-9094859D01*
X93402061Y-9574399D01*
X93300800Y-10083475D01*
X93300800Y-10602525D01*
X93402061Y-11111601D01*
X93600693Y-11591141D01*
X93889062Y-12022715D01*
X94256085Y-12389738D01*
X94687659Y-12678107D01*
X95167199Y-12876739D01*
X95676275Y-12978000D01*
X96195325Y-12978000D01*
X96704401Y-12876739D01*
X97183941Y-12678107D01*
X97615515Y-12389738D01*
X97982538Y-12022715D01*
X98270907Y-11591141D01*
X98400000Y-11279483D01*
X98400001Y-203406519D01*
X98270907Y-203094859D01*
X97982538Y-202663285D01*
X97615515Y-202296262D01*
X97183941Y-202007893D01*
X96704401Y-201809261D01*
X96195325Y-201708000D01*
X95676275Y-201708000D01*
X95167199Y-201809261D01*
X94687659Y-202007893D01*
X94256085Y-202296262D01*
X93889062Y-202663285D01*
X93600693Y-203094859D01*
X93402061Y-203574399D01*
X93300800Y-204083475D01*
X93300800Y-204602525D01*
X93402061Y-205111601D01*
X93600693Y-205591141D01*
X93889062Y-206022715D01*
X94256085Y-206389738D01*
X94687659Y-206678107D01*
X94923994Y-206776000D01*
X78227806Y-206776000D01*
X78464141Y-206678107D01*
X78895715Y-206389738D01*
X79262738Y-206022715D01*
X79551107Y-205591141D01*
X79749739Y-205111601D01*
X79851000Y-204602525D01*
X79851000Y-204083475D01*
X79749739Y-203574399D01*
X79551107Y-203094859D01*
X79262738Y-202663285D01*
X78895715Y-202296262D01*
X78464141Y-202007893D01*
X77984601Y-201809261D01*
X77475525Y-201708000D01*
X76956475Y-201708000D01*
X76447399Y-201809261D01*
X75967859Y-202007893D01*
X75536285Y-202296262D01*
X75169262Y-202663285D01*
X74880893Y-203094859D01*
X74720000Y-203483289D01*
X74720000Y-182077218D01*
X79004400Y-182077218D01*
X79004400Y-183581182D01*
X79297808Y-185056247D01*
X79873350Y-186445729D01*
X80708908Y-187696229D01*
X81772371Y-188759692D01*
X83022871Y-189595250D01*
X84412353Y-190170792D01*
X85887418Y-190464200D01*
X87391382Y-190464200D01*
X88866447Y-190170792D01*
X90255929Y-189595250D01*
X91506429Y-188759692D01*
X92569892Y-187696229D01*
X93405450Y-186445729D01*
X93980992Y-185056247D01*
X94274400Y-183581182D01*
X94274400Y-182077218D01*
X93980992Y-180602153D01*
X93405450Y-179212671D01*
X92569892Y-177962171D01*
X91506429Y-176898708D01*
X90255929Y-176063150D01*
X88866447Y-175487608D01*
X87391382Y-175194200D01*
X85887418Y-175194200D01*
X84412353Y-175487608D01*
X83022871Y-176063150D01*
X81772371Y-176898708D01*
X80708908Y-177962171D01*
X79873350Y-179212671D01*
X79297808Y-180602153D01*
X79004400Y-182077218D01*
X74720000Y-182077218D01*
X74720000Y-168322607D01*
X83175000Y-168322607D01*
X83175000Y-168989393D01*
X83305083Y-169643368D01*
X83560252Y-170259399D01*
X83930698Y-170813812D01*
X84402188Y-171285302D01*
X84956601Y-171655748D01*
X85572632Y-171910917D01*
X86226607Y-172041000D01*
X86893393Y-172041000D01*
X87547368Y-171910917D01*
X88163399Y-171655748D01*
X88717812Y-171285302D01*
X89189302Y-170813812D01*
X89559748Y-170259399D01*
X89814917Y-169643368D01*
X89945000Y-168989393D01*
X89945000Y-168322607D01*
X89814917Y-167668632D01*
X89559748Y-167052601D01*
X89189302Y-166498188D01*
X88717812Y-166026698D01*
X88163399Y-165656252D01*
X87547368Y-165401083D01*
X86893393Y-165271000D01*
X86226607Y-165271000D01*
X85572632Y-165401083D01*
X84956601Y-165656252D01*
X84402188Y-166026698D01*
X83930698Y-166498188D01*
X83560252Y-167052601D01*
X83305083Y-167668632D01*
X83175000Y-168322607D01*
X74720000Y-168322607D01*
X74720000Y-137932018D01*
X78925000Y-137932018D01*
X78925000Y-139435982D01*
X79218408Y-140911047D01*
X79793950Y-142300529D01*
X80629508Y-143551029D01*
X81692971Y-144614492D01*
X82943471Y-145450050D01*
X84332953Y-146025592D01*
X85808018Y-146319000D01*
X87311982Y-146319000D01*
X88787047Y-146025592D01*
X90176529Y-145450050D01*
X91427029Y-144614492D01*
X92490492Y-143551029D01*
X93326050Y-142300529D01*
X93901592Y-140911047D01*
X94195000Y-139435982D01*
X94195000Y-137932018D01*
X93901592Y-136456953D01*
X93326050Y-135067471D01*
X92490492Y-133816971D01*
X91427029Y-132753508D01*
X90176529Y-131917950D01*
X88787047Y-131342408D01*
X87311982Y-131049000D01*
X85808018Y-131049000D01*
X84332953Y-131342408D01*
X82943471Y-131917950D01*
X81692971Y-132753508D01*
X80629508Y-133816971D01*
X79793950Y-135067471D01*
X79218408Y-136456953D01*
X78925000Y-137932018D01*
X74720000Y-137932018D01*
X74720000Y-72646247D01*
X81425000Y-72646247D01*
X81425000Y-73657753D01*
X81622335Y-74649824D01*
X82009422Y-75584335D01*
X82571385Y-76425372D01*
X83286628Y-77140615D01*
X84127665Y-77702578D01*
X85062176Y-78089665D01*
X86054247Y-78287000D01*
X87065753Y-78287000D01*
X88057824Y-78089665D01*
X88992335Y-77702578D01*
X89833372Y-77140615D01*
X90548615Y-76425372D01*
X91110578Y-75584335D01*
X91497665Y-74649824D01*
X91695000Y-73657753D01*
X91695000Y-72646247D01*
X91497665Y-71654176D01*
X91110578Y-70719665D01*
X90548615Y-69878628D01*
X89833372Y-69163385D01*
X88992335Y-68601422D01*
X88057824Y-68214335D01*
X87065753Y-68017000D01*
X86054247Y-68017000D01*
X85062176Y-68214335D01*
X84127665Y-68601422D01*
X83286628Y-69163385D01*
X82571385Y-69878628D01*
X82009422Y-70719665D01*
X81622335Y-71654176D01*
X81425000Y-72646247D01*
X74720000Y-72646247D01*
X74720000Y-55536807D01*
X81425000Y-55536807D01*
X81425000Y-56548313D01*
X81622335Y-57540384D01*
X82009422Y-58474895D01*
X82571385Y-59315932D01*
X83286628Y-60031175D01*
X84127665Y-60593138D01*
X85062176Y-60980225D01*
X86054247Y-61177560D01*
X87065753Y-61177560D01*
X88057824Y-60980225D01*
X88992335Y-60593138D01*
X89833372Y-60031175D01*
X90548615Y-59315932D01*
X91110578Y-58474895D01*
X91497665Y-57540384D01*
X91695000Y-56548313D01*
X91695000Y-55536807D01*
X91497665Y-54544736D01*
X91110578Y-53610225D01*
X90548615Y-52769188D01*
X89833372Y-52053945D01*
X88992335Y-51491982D01*
X88057824Y-51104895D01*
X87065753Y-50907560D01*
X86054247Y-50907560D01*
X85062176Y-51104895D01*
X84127665Y-51491982D01*
X83286628Y-52053945D01*
X82571385Y-52769188D01*
X82009422Y-53610225D01*
X81622335Y-54544736D01*
X81425000Y-55536807D01*
X74720000Y-55536807D01*
X74720000Y-38051447D01*
X81425000Y-38051447D01*
X81425000Y-39062953D01*
X81622335Y-40055024D01*
X82009422Y-40989535D01*
X82571385Y-41830572D01*
X83286628Y-42545815D01*
X84127665Y-43107778D01*
X85062176Y-43494865D01*
X86054247Y-43692200D01*
X87065753Y-43692200D01*
X88057824Y-43494865D01*
X88992335Y-43107778D01*
X89833372Y-42545815D01*
X90548615Y-41830572D01*
X91110578Y-40989535D01*
X91497665Y-40055024D01*
X91695000Y-39062953D01*
X91695000Y-38051447D01*
X91497665Y-37059376D01*
X91110578Y-36124865D01*
X90548615Y-35283828D01*
X89833372Y-34568585D01*
X88992335Y-34006622D01*
X88057824Y-33619535D01*
X87065753Y-33422200D01*
X86054247Y-33422200D01*
X85062176Y-33619535D01*
X84127665Y-34006622D01*
X83286628Y-34568585D01*
X82571385Y-35283828D01*
X82009422Y-36124865D01*
X81622335Y-37059376D01*
X81425000Y-38051447D01*
X74720000Y-38051447D01*
X74720000Y-11202711D01*
X74880893Y-11591141D01*
X75169262Y-12022715D01*
X75536285Y-12389738D01*
X75967859Y-12678107D01*
X76447399Y-12876739D01*
X76956475Y-12978000D01*
X77475525Y-12978000D01*
X77984601Y-12876739D01*
X78464141Y-12678107D01*
X78895715Y-12389738D01*
X79262738Y-12022715D01*
X79551107Y-11591141D01*
X79749739Y-11111601D01*
X79851000Y-10602525D01*
X79851000Y-10083475D01*
X79749739Y-9574399D01*
X79551107Y-9094859D01*
X79262738Y-8663285D01*
X78895715Y-8296262D01*
X78596002Y-8096000D01*
X94555798Y-8096000D01*
X94256085Y-8296262D01*
G37*
X94256085Y-8296262D02*
X93889062Y-8663285D01*
X93600693Y-9094859D01*
X93402061Y-9574399D01*
X93300800Y-10083475D01*
X93300800Y-10602525D01*
X93402061Y-11111601D01*
X93600693Y-11591141D01*
X93889062Y-12022715D01*
X94256085Y-12389738D01*
X94687659Y-12678107D01*
X95167199Y-12876739D01*
X95676275Y-12978000D01*
X96195325Y-12978000D01*
X96704401Y-12876739D01*
X97183941Y-12678107D01*
X97615515Y-12389738D01*
X97982538Y-12022715D01*
X98270907Y-11591141D01*
X98400000Y-11279483D01*
X98400001Y-203406519D01*
X98270907Y-203094859D01*
X97982538Y-202663285D01*
X97615515Y-202296262D01*
X97183941Y-202007893D01*
X96704401Y-201809261D01*
X96195325Y-201708000D01*
X95676275Y-201708000D01*
X95167199Y-201809261D01*
X94687659Y-202007893D01*
X94256085Y-202296262D01*
X93889062Y-202663285D01*
X93600693Y-203094859D01*
X93402061Y-203574399D01*
X93300800Y-204083475D01*
X93300800Y-204602525D01*
X93402061Y-205111601D01*
X93600693Y-205591141D01*
X93889062Y-206022715D01*
X94256085Y-206389738D01*
X94687659Y-206678107D01*
X94923994Y-206776000D01*
X78227806Y-206776000D01*
X78464141Y-206678107D01*
X78895715Y-206389738D01*
X79262738Y-206022715D01*
X79551107Y-205591141D01*
X79749739Y-205111601D01*
X79851000Y-204602525D01*
X79851000Y-204083475D01*
X79749739Y-203574399D01*
X79551107Y-203094859D01*
X79262738Y-202663285D01*
X78895715Y-202296262D01*
X78464141Y-202007893D01*
X77984601Y-201809261D01*
X77475525Y-201708000D01*
X76956475Y-201708000D01*
X76447399Y-201809261D01*
X75967859Y-202007893D01*
X75536285Y-202296262D01*
X75169262Y-202663285D01*
X74880893Y-203094859D01*
X74720000Y-203483289D01*
X74720000Y-182077218D01*
X79004400Y-182077218D01*
X79004400Y-183581182D01*
X79297808Y-185056247D01*
X79873350Y-186445729D01*
X80708908Y-187696229D01*
X81772371Y-188759692D01*
X83022871Y-189595250D01*
X84412353Y-190170792D01*
X85887418Y-190464200D01*
X87391382Y-190464200D01*
X88866447Y-190170792D01*
X90255929Y-189595250D01*
X91506429Y-188759692D01*
X92569892Y-187696229D01*
X93405450Y-186445729D01*
X93980992Y-185056247D01*
X94274400Y-183581182D01*
X94274400Y-182077218D01*
X93980992Y-180602153D01*
X93405450Y-179212671D01*
X92569892Y-177962171D01*
X91506429Y-176898708D01*
X90255929Y-176063150D01*
X88866447Y-175487608D01*
X87391382Y-175194200D01*
X85887418Y-175194200D01*
X84412353Y-175487608D01*
X83022871Y-176063150D01*
X81772371Y-176898708D01*
X80708908Y-177962171D01*
X79873350Y-179212671D01*
X79297808Y-180602153D01*
X79004400Y-182077218D01*
X74720000Y-182077218D01*
X74720000Y-168322607D01*
X83175000Y-168322607D01*
X83175000Y-168989393D01*
X83305083Y-169643368D01*
X83560252Y-170259399D01*
X83930698Y-170813812D01*
X84402188Y-171285302D01*
X84956601Y-171655748D01*
X85572632Y-171910917D01*
X86226607Y-172041000D01*
X86893393Y-172041000D01*
X87547368Y-171910917D01*
X88163399Y-171655748D01*
X88717812Y-171285302D01*
X89189302Y-170813812D01*
X89559748Y-170259399D01*
X89814917Y-169643368D01*
X89945000Y-168989393D01*
X89945000Y-168322607D01*
X89814917Y-167668632D01*
X89559748Y-167052601D01*
X89189302Y-166498188D01*
X88717812Y-166026698D01*
X88163399Y-165656252D01*
X87547368Y-165401083D01*
X86893393Y-165271000D01*
X86226607Y-165271000D01*
X85572632Y-165401083D01*
X84956601Y-165656252D01*
X84402188Y-166026698D01*
X83930698Y-166498188D01*
X83560252Y-167052601D01*
X83305083Y-167668632D01*
X83175000Y-168322607D01*
X74720000Y-168322607D01*
X74720000Y-137932018D01*
X78925000Y-137932018D01*
X78925000Y-139435982D01*
X79218408Y-140911047D01*
X79793950Y-142300529D01*
X80629508Y-143551029D01*
X81692971Y-144614492D01*
X82943471Y-145450050D01*
X84332953Y-146025592D01*
X85808018Y-146319000D01*
X87311982Y-146319000D01*
X88787047Y-146025592D01*
X90176529Y-145450050D01*
X91427029Y-144614492D01*
X92490492Y-143551029D01*
X93326050Y-142300529D01*
X93901592Y-140911047D01*
X94195000Y-139435982D01*
X94195000Y-137932018D01*
X93901592Y-136456953D01*
X93326050Y-135067471D01*
X92490492Y-133816971D01*
X91427029Y-132753508D01*
X90176529Y-131917950D01*
X88787047Y-131342408D01*
X87311982Y-131049000D01*
X85808018Y-131049000D01*
X84332953Y-131342408D01*
X82943471Y-131917950D01*
X81692971Y-132753508D01*
X80629508Y-133816971D01*
X79793950Y-135067471D01*
X79218408Y-136456953D01*
X78925000Y-137932018D01*
X74720000Y-137932018D01*
X74720000Y-72646247D01*
X81425000Y-72646247D01*
X81425000Y-73657753D01*
X81622335Y-74649824D01*
X82009422Y-75584335D01*
X82571385Y-76425372D01*
X83286628Y-77140615D01*
X84127665Y-77702578D01*
X85062176Y-78089665D01*
X86054247Y-78287000D01*
X87065753Y-78287000D01*
X88057824Y-78089665D01*
X88992335Y-77702578D01*
X89833372Y-77140615D01*
X90548615Y-76425372D01*
X91110578Y-75584335D01*
X91497665Y-74649824D01*
X91695000Y-73657753D01*
X91695000Y-72646247D01*
X91497665Y-71654176D01*
X91110578Y-70719665D01*
X90548615Y-69878628D01*
X89833372Y-69163385D01*
X88992335Y-68601422D01*
X88057824Y-68214335D01*
X87065753Y-68017000D01*
X86054247Y-68017000D01*
X85062176Y-68214335D01*
X84127665Y-68601422D01*
X83286628Y-69163385D01*
X82571385Y-69878628D01*
X82009422Y-70719665D01*
X81622335Y-71654176D01*
X81425000Y-72646247D01*
X74720000Y-72646247D01*
X74720000Y-55536807D01*
X81425000Y-55536807D01*
X81425000Y-56548313D01*
X81622335Y-57540384D01*
X82009422Y-58474895D01*
X82571385Y-59315932D01*
X83286628Y-60031175D01*
X84127665Y-60593138D01*
X85062176Y-60980225D01*
X86054247Y-61177560D01*
X87065753Y-61177560D01*
X88057824Y-60980225D01*
X88992335Y-60593138D01*
X89833372Y-60031175D01*
X90548615Y-59315932D01*
X91110578Y-58474895D01*
X91497665Y-57540384D01*
X91695000Y-56548313D01*
X91695000Y-55536807D01*
X91497665Y-54544736D01*
X91110578Y-53610225D01*
X90548615Y-52769188D01*
X89833372Y-52053945D01*
X88992335Y-51491982D01*
X88057824Y-51104895D01*
X87065753Y-50907560D01*
X86054247Y-50907560D01*
X85062176Y-51104895D01*
X84127665Y-51491982D01*
X83286628Y-52053945D01*
X82571385Y-52769188D01*
X82009422Y-53610225D01*
X81622335Y-54544736D01*
X81425000Y-55536807D01*
X74720000Y-55536807D01*
X74720000Y-38051447D01*
X81425000Y-38051447D01*
X81425000Y-39062953D01*
X81622335Y-40055024D01*
X82009422Y-40989535D01*
X82571385Y-41830572D01*
X83286628Y-42545815D01*
X84127665Y-43107778D01*
X85062176Y-43494865D01*
X86054247Y-43692200D01*
X87065753Y-43692200D01*
X88057824Y-43494865D01*
X88992335Y-43107778D01*
X89833372Y-42545815D01*
X90548615Y-41830572D01*
X91110578Y-40989535D01*
X91497665Y-40055024D01*
X91695000Y-39062953D01*
X91695000Y-38051447D01*
X91497665Y-37059376D01*
X91110578Y-36124865D01*
X90548615Y-35283828D01*
X89833372Y-34568585D01*
X88992335Y-34006622D01*
X88057824Y-33619535D01*
X87065753Y-33422200D01*
X86054247Y-33422200D01*
X85062176Y-33619535D01*
X84127665Y-34006622D01*
X83286628Y-34568585D01*
X82571385Y-35283828D01*
X82009422Y-36124865D01*
X81622335Y-37059376D01*
X81425000Y-38051447D01*
X74720000Y-38051447D01*
X74720000Y-11202711D01*
X74880893Y-11591141D01*
X75169262Y-12022715D01*
X75536285Y-12389738D01*
X75967859Y-12678107D01*
X76447399Y-12876739D01*
X76956475Y-12978000D01*
X77475525Y-12978000D01*
X77984601Y-12876739D01*
X78464141Y-12678107D01*
X78895715Y-12389738D01*
X79262738Y-12022715D01*
X79551107Y-11591141D01*
X79749739Y-11111601D01*
X79851000Y-10602525D01*
X79851000Y-10083475D01*
X79749739Y-9574399D01*
X79551107Y-9094859D01*
X79262738Y-8663285D01*
X78895715Y-8296262D01*
X78596002Y-8096000D01*
X94555798Y-8096000D01*
X94256085Y-8296262D01*
G36*
X75536285Y-8296262D02*
G01*
X75169262Y-8663285D01*
X74880893Y-9094859D01*
X74720000Y-9483289D01*
X74720000Y-8096000D01*
X75835998Y-8096000D01*
X75536285Y-8296262D01*
G37*
X75536285Y-8296262D02*
X75169262Y-8663285D01*
X74880893Y-9094859D01*
X74720000Y-9483289D01*
X74720000Y-8096000D01*
X75835998Y-8096000D01*
X75536285Y-8296262D01*
G36*
X98400000Y-9406517D02*
G01*
X98270907Y-9094859D01*
X97982538Y-8663285D01*
X97615515Y-8296262D01*
X97315802Y-8096000D01*
X98400000Y-8096000D01*
X98400000Y-9406517D01*
G37*
X98400000Y-9406517D02*
X98270907Y-9094859D01*
X97982538Y-8663285D01*
X97615515Y-8296262D01*
X97315802Y-8096000D01*
X98400000Y-8096000D01*
X98400000Y-9406517D01*
M02*
