G04 #@! TF.GenerationSoftware,KiCad,Pcbnew,(5.1.5)-3*
G04 #@! TF.CreationDate,2021-01-05T16:06:44-08:00*
G04 #@! TF.ProjectId,AREGFACE,41524547-4641-4434-952e-6b696361645f,rev?*
G04 #@! TF.SameCoordinates,Original*
G04 #@! TF.FileFunction,Soldermask,Top*
G04 #@! TF.FilePolarity,Negative*
%FSLAX46Y46*%
G04 Gerber Fmt 4.6, Leading zero omitted, Abs format (unit mm)*
G04 Created by KiCad (PCBNEW (5.1.5)-3) date 2021-01-05 16:06:44*
%MOMM*%
%LPD*%
G04 APERTURE LIST*
%ADD10C,0.300000*%
%ADD11C,0.100000*%
%ADD12C,0.375000*%
%ADD13C,0.400000*%
%ADD14C,0.500000*%
G04 APERTURE END LIST*
D10*
X89774108Y-115660197D02*
X89395300Y-113690400D01*
X87880072Y-113822982D02*
X88808150Y-116228408D01*
X87804310Y-102288304D02*
X85493586Y-105792270D01*
X86933053Y-116266289D02*
X86270142Y-113747221D01*
X91611323Y-111569079D02*
X91687084Y-113387354D01*
X92520460Y-104258100D02*
X91952250Y-103216381D01*
X86497425Y-105830151D02*
X87501265Y-105962733D01*
X92444699Y-113235831D02*
X94073570Y-113179010D01*
X89395300Y-113690400D02*
X89660466Y-111303914D01*
X94452376Y-115641257D02*
X94490257Y-116114766D01*
X87880072Y-112535038D02*
X87880072Y-113822982D01*
X90077154Y-110944047D02*
X90323379Y-110925107D01*
X88770269Y-110508419D02*
X87880072Y-112535038D01*
X95020588Y-112004708D02*
X94528138Y-111095570D01*
X92065891Y-101966316D02*
X91592383Y-107042333D01*
X94490257Y-105716509D02*
X94016749Y-104428563D01*
X86308023Y-112364574D02*
X86573187Y-111171332D01*
X91459800Y-115868541D02*
X91118874Y-116228408D01*
X89660466Y-115129867D02*
X88808150Y-116228408D01*
X94490257Y-116114766D02*
X93486418Y-116266289D01*
X94073570Y-113179010D02*
X94528138Y-111095570D01*
X90910529Y-113557817D02*
X92028010Y-113936624D01*
X92160594Y-100848835D02*
X91516622Y-100053340D01*
X88391462Y-110432658D02*
X89433181Y-110622061D01*
X92975028Y-109315176D02*
X93240194Y-108652264D01*
X93391717Y-105886971D02*
X92520460Y-104258100D01*
X91592383Y-107042333D02*
X93524299Y-110281135D01*
X90380199Y-99844996D02*
X88391462Y-102042078D01*
X77197709Y-102515587D02*
X76989365Y-103273201D01*
X95001647Y-105034656D02*
X94016749Y-104428563D01*
X94414495Y-114239670D02*
X95020588Y-112004708D01*
X96952504Y-110205373D02*
X97122968Y-105621806D01*
X90872648Y-108765906D02*
X92444699Y-113235831D01*
X89433181Y-110622061D02*
X89660466Y-111303914D01*
X76799961Y-101000358D02*
X76515856Y-101909496D01*
X92028010Y-113936624D02*
X92444699Y-114315432D01*
X94035689Y-109675043D02*
X96952504Y-110205373D01*
X78087906Y-99371487D02*
X77671218Y-98954799D01*
D11*
X92065097Y-110659943D02*
X93049994Y-110697823D01*
D10*
X86762591Y-113254771D02*
X86308023Y-112364574D01*
X81781276Y-97155466D02*
X81326707Y-98992681D01*
D11*
X79715981Y-113197951D02*
X81325912Y-113387355D01*
X76534001Y-106663526D02*
X78674262Y-108784847D01*
D10*
X85304184Y-109258355D02*
X80663795Y-110053851D01*
X78485654Y-114258610D02*
X80171346Y-114466954D01*
D11*
X76912808Y-101890556D02*
X76996559Y-101910370D01*
X76996559Y-101910370D02*
X77079857Y-101931191D01*
X77079857Y-101931191D02*
X77160417Y-101952040D01*
X77160417Y-101952040D02*
X77243604Y-101974181D01*
X77243604Y-101974181D02*
X77322380Y-101995655D01*
X77322380Y-101995655D02*
X77404852Y-102018617D01*
X77404852Y-102018617D02*
X77484051Y-102041096D01*
X77484051Y-102041096D02*
X77566366Y-102064880D01*
X77566366Y-102064880D02*
X77646072Y-102088294D01*
X77646072Y-102088294D02*
X77723250Y-102111313D01*
X77723250Y-102111313D02*
X77804030Y-102135758D01*
X77804030Y-102135758D02*
X77880968Y-102159362D01*
X77880968Y-102159362D02*
X77957787Y-102183235D01*
X77957787Y-102183235D02*
X78035728Y-102207761D01*
X78035728Y-102207761D02*
X78116250Y-102233410D01*
X78116250Y-102233410D02*
X78192586Y-102258014D01*
X78192586Y-102258014D02*
X78272796Y-102284160D01*
X78272796Y-102284160D02*
X78348128Y-102308984D01*
X78348128Y-102308984D02*
X78428934Y-102335896D01*
X78428934Y-102335896D02*
X78504301Y-102361255D01*
X78504301Y-102361255D02*
X78583216Y-102388077D01*
X78583216Y-102388077D02*
X78659968Y-102414420D01*
X78659968Y-102414420D02*
X78740242Y-102442240D01*
X78740242Y-102442240D02*
X78818094Y-102469477D01*
X78818094Y-102469477D02*
X78895340Y-102496749D01*
X78895340Y-102496749D02*
X78969778Y-102523261D01*
X78969778Y-102523261D02*
X79045429Y-102550437D01*
X79045429Y-102550437D02*
X79122287Y-102578279D01*
X79122287Y-102578279D02*
X79195972Y-102605193D01*
X79195972Y-102605193D02*
X79270719Y-102632713D01*
X79270719Y-102632713D02*
X79346518Y-102660843D01*
X79346518Y-102660843D02*
X79423359Y-102689585D01*
X79423359Y-102689585D02*
X79501239Y-102718948D01*
X79501239Y-102718948D02*
X79575480Y-102747154D01*
X79575480Y-102747154D02*
X79650628Y-102775917D01*
X79650628Y-102775917D02*
X79729067Y-102806166D01*
X79729067Y-102806166D02*
X79803619Y-102835131D01*
X79803619Y-102835131D02*
X79883896Y-102866549D01*
X79883896Y-102866549D02*
X79962636Y-102897599D01*
X79962636Y-102897599D02*
X80039750Y-102928226D01*
X80039750Y-102928226D02*
X80112630Y-102957373D01*
X80112630Y-102957373D02*
X80186220Y-102986998D01*
X80186220Y-102986998D02*
X80257941Y-103016060D01*
X80257941Y-103016060D02*
X80330314Y-103045575D01*
X80330314Y-103045575D02*
X80403338Y-103075544D01*
X80403338Y-103075544D02*
X80474365Y-103104879D01*
X80474365Y-103104879D02*
X80545988Y-103134641D01*
X80545988Y-103134641D02*
X80620890Y-103165961D01*
X80620890Y-103165961D02*
X80696424Y-103197746D01*
X80696424Y-103197746D02*
X80772588Y-103229999D01*
X80772588Y-103229999D02*
X80852129Y-103263900D01*
X80852129Y-103263900D02*
X80926786Y-103295920D01*
X80926786Y-103295920D02*
X80999219Y-103327174D01*
X80999219Y-103327174D02*
X81072180Y-103358840D01*
X81072180Y-103358840D02*
X81142831Y-103389681D01*
X81142831Y-103389681D02*
X81219676Y-103423420D01*
X81219676Y-103423420D02*
X81291327Y-103455065D01*
X81291327Y-103455065D02*
X81363456Y-103487099D01*
X81363456Y-103487099D02*
X81433143Y-103518218D01*
X81433143Y-103518218D02*
X81503267Y-103549703D01*
X81503267Y-103549703D02*
X81573818Y-103581549D01*
X81573818Y-103581549D02*
X81644803Y-103613762D01*
X81644803Y-103613762D02*
X81716212Y-103646342D01*
X81716212Y-103646342D02*
X81788045Y-103679291D01*
X81788045Y-103679291D02*
X81860298Y-103712610D01*
X81860298Y-103712610D02*
X81932971Y-103746302D01*
X81932971Y-103746302D02*
X82006060Y-103780368D01*
X82006060Y-103780368D02*
X82079564Y-103814813D01*
X82079564Y-103814813D02*
X82153473Y-103849630D01*
X82153473Y-103849630D02*
X82221584Y-103881881D01*
X82221584Y-103881881D02*
X82290037Y-103914452D01*
X82290037Y-103914452D02*
X82358828Y-103947342D01*
X82358828Y-103947342D02*
X82427958Y-103980557D01*
X82427958Y-103980557D02*
X82500586Y-104015627D01*
X82500586Y-104015627D02*
X82579944Y-104054149D01*
X82579944Y-104054149D02*
X82650131Y-104088396D01*
X82650131Y-104088396D02*
X82720647Y-104122973D01*
X82720647Y-104122973D02*
X82791491Y-104157880D01*
X82791491Y-104157880D02*
X82862660Y-104193115D01*
X82862660Y-104193115D02*
X82934148Y-104228681D01*
X82934148Y-104228681D02*
X83005959Y-104264581D01*
X83005959Y-104264581D02*
X83078089Y-104300815D01*
X83078089Y-104300815D02*
X83150536Y-104337386D01*
X83150536Y-104337386D02*
X83223297Y-104374291D01*
X83223297Y-104374291D02*
X83289716Y-104408137D01*
X83289716Y-104408137D02*
X83356390Y-104442261D01*
X83356390Y-104442261D02*
X83426674Y-104478397D01*
X83426674Y-104478397D02*
X83497239Y-104514841D01*
X83497239Y-104514841D02*
X83571461Y-104553357D01*
X83571461Y-104553357D02*
X83639201Y-104588670D01*
X83639201Y-104588670D02*
X83707188Y-104624268D01*
X83707188Y-104624268D02*
X83778841Y-104661956D01*
X83778841Y-104661956D02*
X83857631Y-104703595D01*
X83857631Y-104703595D02*
X83926404Y-104740112D01*
X83926404Y-104740112D02*
X83995423Y-104776919D01*
X83995423Y-104776919D02*
X84064681Y-104814018D01*
X84064681Y-104814018D02*
X84134182Y-104851407D01*
X84134182Y-104851407D02*
X84203919Y-104889087D01*
X84203919Y-104889087D02*
X84273894Y-104927063D01*
X84273894Y-104927063D02*
X84344102Y-104965331D01*
X84344102Y-104965331D02*
X84414548Y-105003897D01*
X84414548Y-105003897D02*
X84485224Y-105042755D01*
X84485224Y-105042755D02*
X84556133Y-105081914D01*
X84556133Y-105081914D02*
X84627270Y-105121371D01*
X84627270Y-105121371D02*
X84698635Y-105161126D01*
X84698635Y-105161126D02*
X84763056Y-105197161D01*
X84763056Y-105197161D02*
X84827661Y-105233441D01*
X84827661Y-105233441D02*
X84892445Y-105269966D01*
X84892445Y-105269966D02*
X84957411Y-105306734D01*
X84957411Y-105306734D02*
X85022557Y-105343750D01*
X85022557Y-105343750D02*
X85087881Y-105381010D01*
X85087881Y-105381010D02*
X85153381Y-105418519D01*
X85153381Y-105418519D02*
X85219057Y-105456276D01*
X85219057Y-105456276D02*
X85284907Y-105494280D01*
X85284907Y-105494280D02*
X85350933Y-105532537D01*
X85350933Y-105532537D02*
X85417128Y-105571041D01*
X85417128Y-105571041D02*
X85483497Y-105609798D01*
X85483497Y-105609798D02*
X85550037Y-105648807D01*
X85550037Y-105648807D02*
X85568552Y-105659688D01*
X85208686Y-96871361D02*
X84488952Y-95166728D01*
X77329496Y-105849091D02*
X77291615Y-105413462D01*
D10*
X80777437Y-112572918D02*
X80284988Y-112516097D01*
X94035689Y-109675043D02*
X94490257Y-105716509D01*
X94016749Y-104428563D02*
X92482580Y-102023138D01*
X86630008Y-103443666D02*
X86360638Y-103411085D01*
X86360638Y-103411085D02*
X86104624Y-103364757D01*
X86104624Y-103364757D02*
X85858345Y-103309742D01*
X85858345Y-103309742D02*
X85617632Y-103247181D01*
X85617632Y-103247181D02*
X85383035Y-103178386D01*
X85383035Y-103178386D02*
X85154511Y-103104235D01*
X85154511Y-103104235D02*
X84931326Y-103025194D01*
X84931326Y-103025194D02*
X84713972Y-102942016D01*
X84713972Y-102942016D02*
X84498002Y-102853352D01*
X84498002Y-102853352D02*
X84289085Y-102761887D01*
X84289085Y-102761887D02*
X84081219Y-102665317D01*
X84081219Y-102665317D02*
X83879546Y-102566286D01*
X83879546Y-102566286D02*
X83681135Y-102463686D01*
X83681135Y-102463686D02*
X83485752Y-102357590D01*
X83485752Y-102357590D02*
X83292994Y-102247936D01*
X83292994Y-102247936D02*
X83104543Y-102135880D01*
X83104543Y-102135880D02*
X82917597Y-102019911D01*
X82917597Y-102019911D02*
X82732525Y-101900308D01*
X82732525Y-101900308D02*
X82550825Y-101778161D01*
X82550825Y-101778161D02*
X82374010Y-101654722D01*
X82374010Y-101654722D02*
X82196569Y-101526217D01*
X82196569Y-101526217D02*
X82022211Y-101395341D01*
X82022211Y-101395341D02*
X81846414Y-101258666D01*
X81846414Y-101258666D02*
X81678900Y-101123924D01*
X81678900Y-101123924D02*
X81513929Y-100986833D01*
X81513929Y-100986833D02*
X81350449Y-100846581D01*
X81350449Y-100846581D02*
X81184927Y-100700008D01*
X81184927Y-100700008D02*
X81023562Y-100552586D01*
X81023562Y-100552586D02*
X80861587Y-100399992D01*
X80861587Y-100399992D02*
X80708945Y-100251854D01*
X80708945Y-100251854D02*
X80555909Y-100099000D01*
X80555909Y-100099000D02*
X80406264Y-99945227D01*
X80406264Y-99945227D02*
X80258852Y-99789478D01*
X80258852Y-99789478D02*
X80114991Y-99633286D01*
X80114991Y-99633286D02*
X79972265Y-99474118D01*
X79972265Y-99474118D02*
X79849359Y-99333606D01*
X86364843Y-96757717D02*
X85133720Y-97003943D01*
X95001647Y-105034656D02*
X97122968Y-105621806D01*
X86592128Y-109296236D02*
X86099677Y-108595443D01*
X79565254Y-99485130D02*
X78940222Y-98746455D01*
X87387623Y-113254771D02*
X87880072Y-112535038D01*
X90474902Y-114448014D02*
X89395300Y-113690400D01*
X79906180Y-114845762D02*
X79697837Y-119789196D01*
X80171346Y-114466954D02*
X79906180Y-114845762D01*
D11*
X80700880Y-119940719D02*
X84072265Y-117308009D01*
D10*
X76989365Y-103273201D02*
X77974264Y-103481545D01*
X76837842Y-102023138D02*
X76743140Y-102420886D01*
D11*
X86686033Y-103765652D02*
X86606434Y-103744053D01*
X86606434Y-103744053D02*
X86524811Y-103721260D01*
X86524811Y-103721260D02*
X86446183Y-103698864D01*
X86446183Y-103698864D02*
X86364323Y-103675159D01*
X86364323Y-103675159D02*
X86286222Y-103652209D01*
X86286222Y-103652209D02*
X86205812Y-103628262D01*
X86205812Y-103628262D02*
X86127352Y-103604601D01*
X86127352Y-103604601D02*
X86049667Y-103580897D01*
X86049667Y-103580897D02*
X85970770Y-103556554D01*
X85970770Y-103556554D02*
X85894481Y-103532762D01*
X85894481Y-103532762D02*
X85814967Y-103507704D01*
X85814967Y-103507704D02*
X85732321Y-103481382D01*
X85732321Y-103481382D02*
X85653889Y-103456144D01*
X85653889Y-103456144D02*
X85572974Y-103429851D01*
X85572974Y-103429851D02*
X85497324Y-103405030D01*
X85497324Y-103405030D02*
X85419735Y-103379337D01*
X85419735Y-103379337D02*
X85340262Y-103352777D01*
X85340262Y-103352777D02*
X85258961Y-103325346D01*
X85258961Y-103325346D02*
X85182171Y-103299200D01*
X85182171Y-103299200D02*
X85106042Y-103273050D01*
X85106042Y-103273050D02*
X85030725Y-103246956D01*
X85030725Y-103246956D02*
X84951953Y-103219428D01*
X84951953Y-103219428D02*
X84874140Y-103191992D01*
X84874140Y-103191992D02*
X84797426Y-103164708D01*
X84797426Y-103164708D02*
X84719638Y-103136805D01*
X84719638Y-103136805D02*
X84645473Y-103109977D01*
X84645473Y-103109977D02*
X84570409Y-103082598D01*
X84570409Y-103082598D02*
X84494479Y-103054672D01*
X84494479Y-103054672D02*
X84417709Y-103026197D01*
X84417709Y-103026197D02*
X84340128Y-102997178D01*
X84340128Y-102997178D02*
X84266679Y-102969474D01*
X84266679Y-102969474D02*
X84190084Y-102940346D01*
X84190084Y-102940346D02*
X84112799Y-102910704D01*
X84112799Y-102910704D02*
X84037377Y-102881534D01*
X84037377Y-102881534D02*
X83961358Y-102851885D01*
X83961358Y-102851885D02*
X83887328Y-102822771D01*
X83887328Y-102822771D02*
X83812779Y-102793214D01*
X83812779Y-102793214D02*
X83740331Y-102764252D01*
X83740331Y-102764252D02*
X83667440Y-102734877D01*
X83667440Y-102734877D02*
X83588870Y-102702943D01*
X83588870Y-102702943D02*
X83515119Y-102672712D01*
X83515119Y-102672712D02*
X83440980Y-102642068D01*
X83440980Y-102642068D02*
X83366474Y-102611012D01*
X83366474Y-102611012D02*
X83291616Y-102579543D01*
X83291616Y-102579543D02*
X83216428Y-102547664D01*
X83216428Y-102547664D02*
X83146330Y-102517692D01*
X83146330Y-102517692D02*
X83075976Y-102487368D01*
X83075976Y-102487368D02*
X83005385Y-102456693D01*
X83005385Y-102456693D02*
X82934564Y-102425661D01*
X82934564Y-102425661D02*
X82863536Y-102394277D01*
X82863536Y-102394277D02*
X82792312Y-102362542D01*
X82792312Y-102362542D02*
X82720908Y-102330455D01*
X82720908Y-102330455D02*
X82649339Y-102298019D01*
X82649339Y-102298019D02*
X82577615Y-102265227D01*
X82577615Y-102265227D02*
X82505757Y-102232086D01*
X82505757Y-102232086D02*
X82433777Y-102198595D01*
X82433777Y-102198595D02*
X82361690Y-102164754D01*
X82361690Y-102164754D02*
X82278401Y-102125275D01*
X82278401Y-102125275D02*
X82189450Y-102082647D01*
X82189450Y-102082647D02*
X82111546Y-102044916D01*
X82111546Y-102044916D02*
X82033596Y-102006783D01*
X82033596Y-102006783D02*
X81955617Y-101968243D01*
X81955617Y-101968243D02*
X81888769Y-101934889D01*
X81888769Y-101934889D02*
X81816355Y-101898422D01*
X81816355Y-101898422D02*
X81738395Y-101858762D01*
X81738395Y-101858762D02*
X81671604Y-101824448D01*
X81671604Y-101824448D02*
X81593736Y-101784041D01*
X81593736Y-101784041D02*
X81527051Y-101749087D01*
X81527051Y-101749087D02*
X81460433Y-101713840D01*
X81460433Y-101713840D02*
X81393895Y-101678301D01*
X81393895Y-101678301D02*
X81328832Y-101643216D01*
X81328832Y-101643216D02*
X81250058Y-101600290D01*
X81250058Y-101600290D02*
X81183847Y-101563821D01*
X81183847Y-101563821D02*
X81117764Y-101527058D01*
X81117764Y-101527058D02*
X81051823Y-101490005D01*
X81051823Y-101490005D02*
X80964136Y-101440144D01*
X80964136Y-101440144D02*
X80899927Y-101403197D01*
X80899927Y-101403197D02*
X80827725Y-101361199D01*
X80827725Y-101361199D02*
X80751692Y-101316439D01*
X80751692Y-101316439D02*
X80686743Y-101277758D01*
X80686743Y-101277758D02*
X80622008Y-101238787D01*
X80622008Y-101238787D02*
X80553478Y-101197062D01*
X80553478Y-101197062D02*
X80482547Y-101153353D01*
X80482547Y-101153353D02*
X80413255Y-101110126D01*
X80413255Y-101110126D02*
X80349568Y-101069923D01*
X80349568Y-101069923D02*
X80287478Y-101030278D01*
X80287478Y-101030278D02*
X80223040Y-100988652D01*
X80223040Y-100988652D02*
X80160221Y-100947583D01*
X80160221Y-100947583D02*
X80092521Y-100902768D01*
X80092521Y-100902768D02*
X80030368Y-100861102D01*
X80030368Y-100861102D02*
X79963413Y-100815637D01*
X79963413Y-100815637D02*
X79901973Y-100773371D01*
X79901973Y-100773371D02*
X79840894Y-100730818D01*
X79840894Y-100730818D02*
X79781447Y-100688876D01*
X79781447Y-100688876D02*
X79716105Y-100642148D01*
X79716105Y-100642148D02*
X79641292Y-100587817D01*
X79641292Y-100587817D02*
X79575738Y-100539454D01*
X79575738Y-100539454D02*
X79516818Y-100495354D01*
X79516818Y-100495354D02*
X79458334Y-100450968D01*
X79458334Y-100450968D02*
X79401498Y-100407233D01*
X79401498Y-100407233D02*
X79339131Y-100358525D01*
X79339131Y-100358525D02*
X79282052Y-100313270D01*
X79282052Y-100313270D02*
X79216073Y-100260115D01*
X79216073Y-100260115D02*
X79160055Y-100214247D01*
X79160055Y-100214247D02*
X79099942Y-100164233D01*
X79099942Y-100164233D02*
X79030207Y-100105143D01*
X79030207Y-100105143D02*
X78975941Y-100058325D01*
X78975941Y-100058325D02*
X78918883Y-100008271D01*
X78918883Y-100008271D02*
X78865758Y-99960872D01*
X78865758Y-99960872D02*
X78813205Y-99913192D01*
X78813205Y-99913192D02*
X78755856Y-99860218D01*
X78755856Y-99860218D02*
X78679115Y-99787708D01*
X78679115Y-99787708D02*
X78625589Y-99735963D01*
X78625589Y-99735963D02*
X78573799Y-99684927D01*
X78573799Y-99684927D02*
X78520671Y-99631527D01*
X78520671Y-99631527D02*
X78470308Y-99579873D01*
X78470308Y-99579873D02*
X78420664Y-99527915D01*
X78420664Y-99527915D02*
X78362058Y-99465166D01*
X78362058Y-99465166D02*
X78313091Y-99411489D01*
X78313091Y-99411489D02*
X78264916Y-99357497D01*
X78264916Y-99357497D02*
X78212027Y-99296782D01*
X78212027Y-99296782D02*
X78162872Y-99238905D01*
D10*
X79470552Y-110375836D02*
X78788699Y-111076630D01*
X76004466Y-110243254D02*
X75587778Y-110811465D01*
X79697837Y-119789196D02*
X80625914Y-120073301D01*
X77140888Y-99560891D02*
X76951484Y-99390427D01*
X77974264Y-103481545D02*
X78163667Y-104087637D01*
X78788699Y-111076630D02*
X79641015Y-113330533D01*
D11*
X82557035Y-96265268D02*
X82310810Y-96246329D01*
D10*
X87880072Y-113822982D02*
X87387623Y-113254771D01*
D11*
X78882605Y-107932531D02*
X77954528Y-107174916D01*
D10*
X81326707Y-98992681D02*
X80436510Y-100072281D01*
X86762591Y-113254771D02*
X86270142Y-113747221D01*
X80625914Y-120073301D02*
X83997299Y-117440591D01*
X83391206Y-102307243D02*
X84508687Y-100337445D01*
D11*
X85379150Y-109125773D02*
X80738761Y-109921269D01*
D10*
X80171345Y-114466954D02*
X83788954Y-111360735D01*
X80284988Y-112516097D02*
X79470552Y-110375836D01*
X79641015Y-113330533D02*
X81250946Y-113519937D01*
X79641015Y-113330533D02*
X80284988Y-112516097D01*
X82027501Y-97250167D02*
X81781276Y-97155466D01*
D11*
X92102976Y-113804042D02*
X93144697Y-113425235D01*
D10*
X76515856Y-101909496D02*
X76837842Y-102023138D01*
X78163667Y-104087637D02*
X79432672Y-104371743D01*
X75587778Y-110811465D02*
X78485654Y-114258610D01*
X86516366Y-96416792D02*
X86364843Y-96757717D01*
X85493586Y-105792270D02*
X86516366Y-106512003D01*
X76174930Y-100716253D02*
X76799961Y-101000358D01*
X89660466Y-111303914D02*
X90077154Y-110944047D01*
X80910020Y-106625645D02*
X81155210Y-106566811D01*
X81155210Y-106566811D02*
X81404392Y-106510421D01*
X81404392Y-106510421D02*
X81655661Y-106455877D01*
X81655661Y-106455877D02*
X81905968Y-106403448D01*
X81905968Y-106403448D02*
X82155983Y-106352744D01*
X82155983Y-106352744D02*
X82409875Y-106302793D01*
X82409875Y-106302793D02*
X82664262Y-106254182D01*
X82664262Y-106254182D02*
X82922978Y-106206127D01*
X82922978Y-106206127D02*
X83189280Y-106158033D01*
X83189280Y-106158033D02*
X83445001Y-106113099D01*
X83445001Y-106113099D02*
X83710153Y-106067740D01*
X83710153Y-106067740D02*
X83976981Y-106023319D01*
X83976981Y-106023319D02*
X84244030Y-105980042D01*
X84244030Y-105980042D02*
X84506066Y-105938691D01*
X84506066Y-105938691D02*
X84769376Y-105898218D01*
X84769376Y-105898218D02*
X85033124Y-105858736D01*
X85033124Y-105858736D02*
X85300739Y-105819729D01*
X85300739Y-105819729D02*
X85493586Y-105792270D01*
X83997299Y-117440591D02*
X86611067Y-115262450D01*
X88391462Y-102042078D02*
X87804310Y-102288304D01*
X93619002Y-115773839D02*
X94452376Y-115641257D01*
X90474902Y-114448014D02*
X90910529Y-113557817D01*
X91516622Y-100053340D02*
X90380199Y-99844996D01*
X92160594Y-100848835D02*
X90910529Y-100659433D01*
D11*
X92462844Y-111379676D02*
X93201517Y-111284975D01*
X79545518Y-110243254D02*
X78863665Y-110944048D01*
X86667094Y-109163654D02*
X86174643Y-108462861D01*
X80246312Y-114334372D02*
X79981146Y-114713180D01*
X80852403Y-112440336D02*
X80359954Y-112383515D01*
X80984986Y-106493063D02*
X81067978Y-106472590D01*
X81067978Y-106472590D02*
X81151275Y-106452687D01*
X81151275Y-106452687D02*
X81234410Y-106433248D01*
X81234410Y-106433248D02*
X81319152Y-106413792D01*
X81319152Y-106413792D02*
X81404981Y-106394405D01*
X81404981Y-106394405D02*
X81491328Y-106375192D01*
X81491328Y-106375192D02*
X81579028Y-106355953D01*
X81579028Y-106355953D02*
X81666582Y-106337006D01*
X81666582Y-106337006D02*
X81752597Y-106318622D01*
X81752597Y-106318622D02*
X81835811Y-106301048D01*
X81835811Y-106301048D02*
X81921149Y-106283230D01*
X81921149Y-106283230D02*
X82006198Y-106265671D01*
X82006198Y-106265671D02*
X82090422Y-106248469D01*
X82090422Y-106248469D02*
X82175589Y-106231257D01*
X82175589Y-106231257D02*
X82266166Y-106213144D01*
X82266166Y-106213144D02*
X82352620Y-106196040D01*
X82352620Y-106196040D02*
X82439278Y-106179066D01*
X82439278Y-106179066D02*
X82525908Y-106162269D01*
X82525908Y-106162269D02*
X82617602Y-106144669D01*
X82617602Y-106144669D02*
X82706385Y-106127798D01*
X82706385Y-106127798D02*
X82794627Y-106111197D01*
X82794627Y-106111197D02*
X82882126Y-106094891D01*
X82882126Y-106094891D02*
X82971599Y-106078376D01*
X82971599Y-106078376D02*
X83057080Y-106062747D01*
X83057080Y-106062747D02*
X83153397Y-106045305D01*
X83153397Y-106045305D02*
X83239386Y-106029884D01*
X83239386Y-106029884D02*
X83326964Y-106014320D01*
X83326964Y-106014320D02*
X83416129Y-105998620D01*
X83416129Y-105998620D02*
X83506875Y-105982789D01*
X83506875Y-105982789D02*
X83595875Y-105967407D01*
X83595875Y-105967407D02*
X83693093Y-105950763D01*
X83693093Y-105950763D02*
X83785119Y-105935158D01*
X83785119Y-105935158D02*
X83875110Y-105920042D01*
X83875110Y-105920042D02*
X83966446Y-105904840D01*
X83966446Y-105904840D02*
X84059123Y-105889558D01*
X84059123Y-105889558D02*
X84145855Y-105875383D01*
X84145855Y-105875383D02*
X84244788Y-105859368D01*
X84244788Y-105859368D02*
X84333933Y-105845073D01*
X84333933Y-105845073D02*
X84420423Y-105831324D01*
X84420423Y-105831324D02*
X84515609Y-105816333D01*
X84515609Y-105816333D02*
X84604256Y-105802496D01*
X84604256Y-105802496D02*
X84697854Y-105788020D01*
X84697854Y-105788020D02*
X84792572Y-105773509D01*
X84792572Y-105773509D02*
X84888404Y-105758967D01*
X84888404Y-105758967D02*
X84985350Y-105744398D01*
X84985350Y-105744398D02*
X85083403Y-105729805D01*
X85083403Y-105729805D02*
X85182564Y-105715193D01*
X85182564Y-105715193D02*
X85274431Y-105701785D01*
X85274431Y-105701785D02*
X85367224Y-105688368D01*
X85367224Y-105688368D02*
X85460938Y-105674943D01*
X85460938Y-105674943D02*
X85555575Y-105661516D01*
X85555575Y-105661516D02*
X85568552Y-105659688D01*
X76818106Y-102288304D02*
X77272675Y-102383005D01*
X87462589Y-113122189D02*
X87955038Y-112402456D01*
X79981146Y-114713180D02*
X79772803Y-119656614D01*
X77499959Y-109409879D02*
X76988570Y-110300076D01*
X90549868Y-114315432D02*
X89470266Y-113557818D01*
X90398345Y-110792525D02*
X91686289Y-111436497D01*
X76988570Y-110300076D02*
X76079432Y-110110672D01*
X77291615Y-105413462D02*
X76912808Y-105375581D01*
X94565223Y-105583927D02*
X94091715Y-104295981D01*
X76912808Y-101890556D02*
X76818106Y-102288304D01*
X93315160Y-108519682D02*
X93466683Y-105754389D01*
X77064331Y-103140619D02*
X78049230Y-103348963D01*
X93466683Y-105754389D02*
X92595426Y-104125518D01*
X87955038Y-113690400D02*
X87462589Y-113122189D01*
X79981146Y-108993191D02*
X79337174Y-108406040D01*
X84072265Y-117308009D02*
X86686033Y-115129868D01*
X85379150Y-109125773D02*
X86686033Y-109182594D01*
X83863920Y-111228153D02*
X86382989Y-112231992D01*
X79659160Y-104939953D02*
X77443138Y-104977834D01*
X83163127Y-105110417D02*
X83826039Y-105868032D01*
X92519665Y-114182850D02*
X93693968Y-115641257D01*
X86591332Y-106379421D02*
X87576231Y-105830151D01*
X86894378Y-101322346D02*
X86288286Y-99447249D01*
X82197168Y-99996520D02*
X82803261Y-98992681D01*
X86572391Y-105697569D02*
X87576231Y-105830151D01*
X94489461Y-114107088D02*
X93731847Y-114088148D01*
X79545518Y-110243254D02*
X80132669Y-109675044D01*
X92235560Y-100716253D02*
X90985495Y-100526851D01*
X92235560Y-100716253D02*
X91591588Y-99920758D01*
X89470266Y-113557818D02*
X89735432Y-111171332D01*
X86780736Y-104636908D02*
X86780736Y-105015715D01*
X90455165Y-99712414D02*
X88466428Y-101909496D01*
X92102976Y-113804042D02*
X92519665Y-114182850D01*
X78863665Y-110944048D02*
X79715981Y-113197951D01*
X80416775Y-107799948D02*
X77329496Y-105849091D01*
X94527342Y-115508675D02*
X94565223Y-115982184D01*
X76874927Y-100867776D02*
X76590822Y-101776914D01*
X92595426Y-104125518D02*
X92027216Y-103083799D01*
X94603104Y-110962988D02*
X94110655Y-110243254D01*
X88845235Y-110375837D02*
X87955038Y-112402456D01*
X82197168Y-112516098D02*
X80852403Y-112440336D01*
X78049230Y-103348963D02*
X78150436Y-103349213D01*
X78150436Y-103349213D02*
X78243362Y-103356482D01*
X78243362Y-103356482D02*
X78333876Y-103367357D01*
X78333876Y-103367357D02*
X78421472Y-103380607D01*
X78421472Y-103380607D02*
X78507816Y-103395832D01*
X78507816Y-103395832D02*
X78593760Y-103412822D01*
X78593760Y-103412822D02*
X78677473Y-103430925D01*
X78677473Y-103430925D02*
X78760146Y-103450152D01*
X78760146Y-103450152D02*
X78842161Y-103470436D01*
X78842161Y-103470436D02*
X78922460Y-103491367D01*
X78922460Y-103491367D02*
X79002069Y-103513093D01*
X79002069Y-103513093D02*
X79081374Y-103535633D01*
X79081374Y-103535633D02*
X79159860Y-103558770D01*
X79159860Y-103558770D02*
X79237019Y-103582275D01*
X79237019Y-103582275D02*
X79317164Y-103607444D01*
X79317164Y-103607444D02*
X79394111Y-103632293D01*
X79394111Y-103632293D02*
X79471116Y-103657806D01*
X79471116Y-103657806D02*
X79549281Y-103684330D01*
X79549281Y-103684330D02*
X79624427Y-103710399D01*
X79624427Y-103710399D02*
X79700310Y-103737268D01*
X79700310Y-103737268D02*
X79775402Y-103764376D01*
X79775402Y-103764376D02*
X79849500Y-103791609D01*
X79849500Y-103791609D02*
X79922406Y-103818863D01*
X79922406Y-103818863D02*
X79997007Y-103847199D01*
X79997007Y-103847199D02*
X80071738Y-103876032D01*
X80071738Y-103876032D02*
X80144905Y-103904676D01*
X80144905Y-103904676D02*
X80219603Y-103934332D01*
X80219603Y-103934332D02*
X80292490Y-103963660D01*
X80292490Y-103963660D02*
X80366794Y-103993942D01*
X80366794Y-103993942D02*
X80439055Y-104023755D01*
X80439055Y-104023755D02*
X80510855Y-104053722D01*
X80510855Y-104053722D02*
X80583913Y-104084556D01*
X80583913Y-104084556D02*
X80654582Y-104114705D01*
X80654582Y-104114705D02*
X80726398Y-104145658D01*
X80726398Y-104145658D02*
X80801258Y-104178255D01*
X80801258Y-104178255D02*
X80871594Y-104209185D01*
X80871594Y-104209185D02*
X80942983Y-104240868D01*
X80942983Y-104240868D02*
X81013461Y-104272427D01*
X81013461Y-104272427D02*
X81082948Y-104303812D01*
X81082948Y-104303812D02*
X81153394Y-104335896D01*
X81153394Y-104335896D02*
X81222747Y-104367738D01*
X81222747Y-104367738D02*
X81295095Y-104401222D01*
X81295095Y-104401222D02*
X81368418Y-104435428D01*
X81368418Y-104435428D02*
X81440581Y-104469353D01*
X81440581Y-104469353D02*
X81515834Y-104505002D01*
X81515834Y-104505002D02*
X81585502Y-104538248D01*
X81585502Y-104538248D02*
X81653783Y-104571054D01*
X81653783Y-104571054D02*
X81727330Y-104606630D01*
X81727330Y-104606630D02*
X81799497Y-104641777D01*
X81799497Y-104641777D02*
X81872507Y-104677571D01*
X81872507Y-104677571D02*
X81946360Y-104714016D01*
X81946360Y-104714016D02*
X82014023Y-104747611D01*
X82014023Y-104747611D02*
X82087123Y-104784126D01*
X82087123Y-104784126D02*
X82153842Y-104817646D01*
X82153842Y-104817646D02*
X82221218Y-104851681D01*
X82221218Y-104851681D02*
X82289255Y-104886237D01*
X82289255Y-104886237D02*
X82357952Y-104921314D01*
X82357952Y-104921314D02*
X82427315Y-104956921D01*
X82427315Y-104956921D02*
X82494834Y-104991760D01*
X82494834Y-104991760D02*
X82568048Y-105029733D01*
X82568048Y-105029733D02*
X82613857Y-105053595D01*
X82803261Y-98992681D02*
X83920742Y-97363810D01*
X82197168Y-99996520D02*
X81628958Y-100924598D01*
X91534766Y-115735959D02*
X90549868Y-114315432D01*
X90985495Y-100526851D02*
X90114238Y-103689890D01*
X87955038Y-113690400D02*
X88883116Y-116095826D01*
X86382989Y-104390684D02*
X86302906Y-104370202D01*
X86302906Y-104370202D02*
X86223143Y-104348097D01*
X86223143Y-104348097D02*
X86144925Y-104325324D01*
X86144925Y-104325324D02*
X86067088Y-104301779D01*
X86067088Y-104301779D02*
X85990017Y-104277706D01*
X85990017Y-104277706D02*
X85911014Y-104252326D01*
X85911014Y-104252326D02*
X85832855Y-104226568D01*
X85832855Y-104226568D02*
X85753680Y-104199866D01*
X85753680Y-104199866D02*
X85674428Y-104172558D01*
X85674428Y-104172558D02*
X85595984Y-104144986D01*
X85595984Y-104144986D02*
X85519164Y-104117485D01*
X85519164Y-104117485D02*
X85444725Y-104090387D01*
X85444725Y-104090387D02*
X85367311Y-104061751D01*
X85367311Y-104061751D02*
X85293218Y-104033925D01*
X85293218Y-104033925D02*
X85218230Y-104005358D01*
X85218230Y-104005358D02*
X85145847Y-103977409D01*
X85145847Y-103977409D02*
X85069649Y-103947599D01*
X85069649Y-103947599D02*
X84994789Y-103917933D01*
X84994789Y-103917933D02*
X84923362Y-103889287D01*
X84923362Y-103889287D02*
X84848366Y-103858859D01*
X84848366Y-103858859D02*
X84773464Y-103828118D01*
X84773464Y-103828118D02*
X84702654Y-103798740D01*
X84702654Y-103798740D02*
X84628419Y-103767617D01*
X84628419Y-103767617D02*
X84556674Y-103737228D01*
X84556674Y-103737228D02*
X84483557Y-103705950D01*
X84483557Y-103705950D02*
X84406985Y-103672865D01*
X84406985Y-103672865D02*
X84333224Y-103640682D01*
X84333224Y-103640682D02*
X84262502Y-103609544D01*
X84262502Y-103609544D02*
X84192832Y-103578599D01*
X84192832Y-103578599D02*
X84122092Y-103546912D01*
X84122092Y-103546912D02*
X84052545Y-103515498D01*
X84052545Y-103515498D02*
X83979709Y-103482327D01*
X83979709Y-103482327D02*
X83910457Y-103450531D01*
X83910457Y-103450531D02*
X83840277Y-103418056D01*
X83840277Y-103418056D02*
X83769168Y-103384895D01*
X83769168Y-103384895D02*
X83697134Y-103351044D01*
X83697134Y-103351044D02*
X83627845Y-103318238D01*
X83627845Y-103318238D02*
X83555249Y-103283613D01*
X83555249Y-103283613D02*
X83485522Y-103250113D01*
X83485522Y-103250113D02*
X83414995Y-103215992D01*
X83414995Y-103215992D02*
X83344953Y-103181867D01*
X83344953Y-103181867D02*
X83275435Y-103147767D01*
X83275435Y-103147767D02*
X83203872Y-103112426D01*
X83203872Y-103112426D02*
X83135509Y-103078442D01*
X83135509Y-103078442D02*
X83066464Y-103043900D01*
X83066464Y-103043900D02*
X82998088Y-103009477D01*
X82998088Y-103009477D02*
X82926338Y-102973125D01*
X82926338Y-102973125D02*
X82855257Y-102936882D01*
X82855257Y-102936882D02*
X82789045Y-102902918D01*
X82789045Y-102902918D02*
X82713871Y-102864120D01*
X82713871Y-102864120D02*
X82646439Y-102829105D01*
X82646439Y-102829105D02*
X82579854Y-102794333D01*
X82579854Y-102794333D02*
X82512725Y-102759079D01*
X82512725Y-102759079D02*
X82440710Y-102721044D01*
X82440710Y-102721044D02*
X82373911Y-102685563D01*
X82373911Y-102685563D02*
X82303652Y-102648039D01*
X82303652Y-102648039D02*
X82231344Y-102609199D01*
X82231344Y-102609199D02*
X82165914Y-102573864D01*
X82165914Y-102573864D02*
X82100010Y-102538091D01*
X82100010Y-102538091D02*
X82035146Y-102502704D01*
X82035146Y-102502704D02*
X81968305Y-102466055D01*
X81968305Y-102466055D02*
X81900994Y-102428964D01*
X81900994Y-102428964D02*
X81833210Y-102391421D01*
X81833210Y-102391421D02*
X81764958Y-102353430D01*
X81764958Y-102353430D02*
X81696237Y-102314985D01*
X81696237Y-102314985D02*
X81627047Y-102276084D01*
X81627047Y-102276084D02*
X81558979Y-102237626D01*
X81558979Y-102237626D02*
X81493663Y-102200548D01*
X81493663Y-102200548D02*
X81429549Y-102163985D01*
X81429549Y-102163985D02*
X81358581Y-102123323D01*
X81358581Y-102123323D02*
X81287148Y-102082196D01*
X81287148Y-102082196D02*
X81221808Y-102044398D01*
X81221808Y-102044398D02*
X81156086Y-102006211D01*
X81156086Y-102006211D02*
X81091641Y-101968603D01*
X81091641Y-101968603D02*
X81025164Y-101929638D01*
X81025164Y-101929638D02*
X80956633Y-101889290D01*
X80956633Y-101889290D02*
X80889390Y-101849526D01*
X80889390Y-101849526D02*
X80823462Y-101810369D01*
X80823462Y-101810369D02*
X80760584Y-101772870D01*
X80760584Y-101772870D02*
X80697381Y-101735024D01*
X80697381Y-101735024D02*
X80630417Y-101694761D01*
X80630417Y-101694761D02*
X80566552Y-101656203D01*
X80566552Y-101656203D02*
X80498890Y-101615185D01*
X80498890Y-101615185D02*
X80436117Y-101576977D01*
X80436117Y-101576977D02*
X80373038Y-101538434D01*
X80373038Y-101538434D02*
X80309657Y-101499557D01*
X80309657Y-101499557D02*
X80245977Y-101460345D01*
X80245977Y-101460345D02*
X80181993Y-101420795D01*
X80181993Y-101420795D02*
X80117706Y-101380908D01*
X80117706Y-101380908D02*
X80053121Y-101340680D01*
X80053121Y-101340680D02*
X79988235Y-101300112D01*
X79988235Y-101300112D02*
X79924863Y-101260340D01*
X79924863Y-101260340D02*
X79857561Y-101217944D01*
X79857561Y-101217944D02*
X79791778Y-101176343D01*
X79791778Y-101176343D02*
X79725695Y-101134396D01*
X79725695Y-101134396D02*
X79659314Y-101092100D01*
X79659314Y-101092100D02*
X79592635Y-101049456D01*
X79592635Y-101049456D02*
X79531253Y-101010058D01*
X79531253Y-101010058D02*
X79465879Y-100967947D01*
X79465879Y-100967947D02*
X79400224Y-100925505D01*
X79400224Y-100925505D02*
X79338067Y-100885182D01*
X79338067Y-100885182D02*
X79269976Y-100840851D01*
X79269976Y-100840851D02*
X79209201Y-100801144D01*
X79209201Y-100801144D02*
X79148194Y-100761156D01*
X79148194Y-100761156D02*
X79086955Y-100720883D01*
X79086955Y-100720883D02*
X79025486Y-100680327D01*
X79025486Y-100680327D02*
X78957985Y-100635639D01*
X78957985Y-100635639D02*
X78896032Y-100594482D01*
X78896032Y-100594482D02*
X78831901Y-100551738D01*
X78831901Y-100551738D02*
X78769479Y-100509995D01*
X78769479Y-100509995D02*
X78706825Y-100467962D01*
X78706825Y-100467962D02*
X78643943Y-100425640D01*
X78643943Y-100425640D02*
X78580832Y-100383027D01*
X78580832Y-100383027D02*
X78517492Y-100340120D01*
X78517492Y-100340120D02*
X78451931Y-100295564D01*
X78451931Y-100295564D02*
X78390125Y-100253424D01*
X78390125Y-100253424D02*
X78326100Y-100209635D01*
X78326100Y-100209635D02*
X78261848Y-100165550D01*
X78261848Y-100165550D02*
X78197366Y-100121165D01*
X78197366Y-100121165D02*
X78134683Y-100077883D01*
X78134683Y-100077883D02*
X78067725Y-100031501D01*
X78067725Y-100031501D02*
X78004604Y-99987640D01*
X78004604Y-99987640D02*
X77945364Y-99946353D01*
X77945364Y-99946353D02*
X77881833Y-99901945D01*
X77881833Y-99901945D02*
X77822210Y-99860144D01*
X77822210Y-99860144D02*
X77758271Y-99815185D01*
X77758271Y-99815185D02*
X77698263Y-99772865D01*
X77698263Y-99772865D02*
X77633916Y-99727352D01*
X77633916Y-99727352D02*
X77573528Y-99684515D01*
X77573528Y-99684515D02*
X77515050Y-99642916D01*
X77515050Y-99642916D02*
X77456401Y-99601082D01*
X77456401Y-99601082D02*
X77395475Y-99557503D01*
X77395475Y-99557503D02*
X77332258Y-99512153D01*
X77332258Y-99512153D02*
X77270962Y-99468058D01*
X77270962Y-99468058D02*
X77215854Y-99428309D01*
X80511476Y-106663527D02*
X80445256Y-106625283D01*
X80445256Y-106625283D02*
X80382089Y-106585888D01*
X80382089Y-106585888D02*
X80318808Y-106545464D01*
X80318808Y-106545464D02*
X80257567Y-106505822D01*
X80257567Y-106505822D02*
X80192887Y-106463578D01*
X80192887Y-106463578D02*
X80130786Y-106422750D01*
X80130786Y-106422750D02*
X80066082Y-106379994D01*
X80066082Y-106379994D02*
X80004537Y-106339154D01*
X80004537Y-106339154D02*
X79936962Y-106294149D01*
X79936962Y-106294149D02*
X79876012Y-106253428D01*
X79876012Y-106253428D02*
X79814686Y-106212343D01*
X79814686Y-106212343D02*
X79750242Y-106169047D01*
X79750242Y-106169047D02*
X79697041Y-106133196D01*
X85568552Y-105659688D02*
X86591332Y-106379421D01*
X91780992Y-110925108D02*
X86667094Y-109163654D01*
X86174643Y-108462861D02*
X85379150Y-109125773D01*
X79772803Y-119656614D02*
X80700880Y-119940719D01*
X76912808Y-105375581D02*
X76534001Y-106663526D01*
X86837557Y-113122189D02*
X86382989Y-112231992D01*
X93561384Y-116133707D02*
X93750788Y-115641257D01*
X89943775Y-105981674D02*
X90663509Y-103008037D01*
X78257574Y-111910006D02*
X77291615Y-110925108D01*
D10*
X86099677Y-108595443D02*
X85304184Y-109258355D01*
D11*
X78560620Y-114126028D02*
X79715981Y-113197951D01*
X97027470Y-110072791D02*
X97197934Y-105489224D01*
D12*
X83486180Y-11937819D02*
X83486180Y-8737819D01*
X83724276Y-10718771D02*
X84438561Y-11937819D01*
X84438561Y-9804485D02*
X83486180Y-11023533D01*
X85390942Y-9042580D02*
X85509990Y-8890200D01*
X85748085Y-8737819D01*
X86343323Y-8737819D01*
X86581419Y-8890200D01*
X86700466Y-9042580D01*
X86819514Y-9347342D01*
X86819514Y-9652104D01*
X86700466Y-10109247D01*
X85271895Y-11937819D01*
X86819514Y-11937819D01*
X89081419Y-8737819D02*
X87890942Y-8737819D01*
X87771895Y-10261628D01*
X87890942Y-10109247D01*
X88129038Y-9956866D01*
X88724276Y-9956866D01*
X88962371Y-10109247D01*
X89081419Y-10261628D01*
X89200466Y-10566390D01*
X89200466Y-11328295D01*
X89081419Y-11633057D01*
X88962371Y-11785438D01*
X88724276Y-11937819D01*
X88129038Y-11937819D01*
X87890942Y-11785438D01*
X87771895Y-11633057D01*
D13*
X83537780Y-149650723D02*
X84680638Y-149650723D01*
X84109209Y-153650723D02*
X84109209Y-149650723D01*
X86490161Y-153650723D02*
X85823495Y-151745961D01*
X85347304Y-153650723D02*
X85347304Y-149650723D01*
X86109209Y-149650723D01*
X86299685Y-149841200D01*
X86394923Y-150031676D01*
X86490161Y-150412628D01*
X86490161Y-150984057D01*
X86394923Y-151365009D01*
X86299685Y-151555485D01*
X86109209Y-151745961D01*
X85347304Y-151745961D01*
X87347304Y-153650723D02*
X87347304Y-149650723D01*
X89347304Y-149841200D02*
X89156828Y-149650723D01*
X88871114Y-149650723D01*
X88585400Y-149841200D01*
X88394923Y-150222152D01*
X88299685Y-150603104D01*
X88204447Y-151365009D01*
X88204447Y-151936438D01*
X88299685Y-152698342D01*
X88394923Y-153079295D01*
X88585400Y-153460247D01*
X88871114Y-153650723D01*
X89061590Y-153650723D01*
X89347304Y-153460247D01*
X89442542Y-153269771D01*
X89442542Y-151936438D01*
X89061590Y-151936438D01*
X81702857Y-26800726D02*
X82655238Y-26800726D01*
X81512380Y-27943583D02*
X82179047Y-23943583D01*
X82845714Y-27943583D01*
X83226666Y-23943583D02*
X84369523Y-23943583D01*
X83798095Y-27943583D02*
X83798095Y-23943583D01*
X84750476Y-23943583D02*
X85893333Y-23943583D01*
X85321904Y-27943583D02*
X85321904Y-23943583D01*
X86464761Y-26800726D02*
X87417142Y-26800726D01*
X86274285Y-27943583D02*
X86940952Y-23943583D01*
X87607619Y-27943583D01*
X89417142Y-27562631D02*
X89321904Y-27753107D01*
X89036190Y-27943583D01*
X88845714Y-27943583D01*
X88560000Y-27753107D01*
X88369523Y-27372155D01*
X88274285Y-26991202D01*
X88179047Y-26229298D01*
X88179047Y-25657869D01*
X88274285Y-24895964D01*
X88369523Y-24515012D01*
X88560000Y-24134060D01*
X88845714Y-23943583D01*
X89036190Y-23943583D01*
X89321904Y-24134060D01*
X89417142Y-24324536D01*
X90274285Y-27943583D02*
X90274285Y-23943583D01*
X91417142Y-27943583D02*
X90560000Y-25657869D01*
X91417142Y-23943583D02*
X90274285Y-26229298D01*
X82702857Y-196500571D02*
X82607619Y-196691047D01*
X82321904Y-196881523D01*
X82131428Y-196881523D01*
X81845714Y-196691047D01*
X81655238Y-196310095D01*
X81560000Y-195929142D01*
X81464761Y-195167238D01*
X81464761Y-194595809D01*
X81560000Y-193833904D01*
X81655238Y-193452952D01*
X81845714Y-193072000D01*
X82131428Y-192881523D01*
X82321904Y-192881523D01*
X82607619Y-193072000D01*
X82702857Y-193262476D01*
X83274285Y-192881523D02*
X83940952Y-196881523D01*
X84607619Y-192881523D01*
X87179047Y-192881523D02*
X87560000Y-192881523D01*
X87750476Y-193072000D01*
X87940952Y-193452952D01*
X88036190Y-194214857D01*
X88036190Y-195548190D01*
X87940952Y-196310095D01*
X87750476Y-196691047D01*
X87560000Y-196881523D01*
X87179047Y-196881523D01*
X86988571Y-196691047D01*
X86798095Y-196310095D01*
X86702857Y-195548190D01*
X86702857Y-194214857D01*
X86798095Y-193452952D01*
X86988571Y-193072000D01*
X87179047Y-192881523D01*
X88893333Y-192881523D02*
X88893333Y-196119619D01*
X88988571Y-196500571D01*
X89083809Y-196691047D01*
X89274285Y-196881523D01*
X89655238Y-196881523D01*
X89845714Y-196691047D01*
X89940952Y-196500571D01*
X90036190Y-196119619D01*
X90036190Y-192881523D01*
X90702857Y-192881523D02*
X91845714Y-192881523D01*
X91274285Y-196881523D02*
X91274285Y-192881523D01*
X75908209Y-58118783D02*
X75908209Y-54118783D01*
X77051066Y-58118783D01*
X77051066Y-54118783D01*
X78003447Y-56023545D02*
X78670114Y-56023545D01*
X78955828Y-58118783D02*
X78003447Y-58118783D01*
X78003447Y-54118783D01*
X78955828Y-54118783D01*
X80860590Y-54309260D02*
X80670114Y-54118783D01*
X80384400Y-54118783D01*
X80098685Y-54309260D01*
X79908209Y-54690212D01*
X79812971Y-55071164D01*
X79717733Y-55833069D01*
X79717733Y-56404498D01*
X79812971Y-57166402D01*
X79908209Y-57547355D01*
X80098685Y-57928307D01*
X80384400Y-58118783D01*
X80574876Y-58118783D01*
X80860590Y-57928307D01*
X80955828Y-57737831D01*
X80955828Y-56404498D01*
X80574876Y-56404498D01*
X81845714Y-88118723D02*
X81179047Y-86213961D01*
X80702857Y-88118723D02*
X80702857Y-84118723D01*
X81464761Y-84118723D01*
X81655238Y-84309200D01*
X81750476Y-84499676D01*
X81845714Y-84880628D01*
X81845714Y-85452057D01*
X81750476Y-85833009D01*
X81655238Y-86023485D01*
X81464761Y-86213961D01*
X80702857Y-86213961D01*
X82702857Y-86023485D02*
X83369523Y-86023485D01*
X83655238Y-88118723D02*
X82702857Y-88118723D01*
X82702857Y-84118723D01*
X83655238Y-84118723D01*
X85464761Y-88118723D02*
X84512380Y-88118723D01*
X84512380Y-84118723D01*
X86131428Y-86023485D02*
X86798095Y-86023485D01*
X87083809Y-88118723D02*
X86131428Y-88118723D01*
X86131428Y-84118723D01*
X87083809Y-84118723D01*
X87845714Y-86975866D02*
X88798095Y-86975866D01*
X87655238Y-88118723D02*
X88321904Y-84118723D01*
X88988571Y-88118723D01*
X89560000Y-87928247D02*
X89845714Y-88118723D01*
X90321904Y-88118723D01*
X90512380Y-87928247D01*
X90607619Y-87737771D01*
X90702857Y-87356819D01*
X90702857Y-86975866D01*
X90607619Y-86594914D01*
X90512380Y-86404438D01*
X90321904Y-86213961D01*
X89940952Y-86023485D01*
X89750476Y-85833009D01*
X89655238Y-85642533D01*
X89560000Y-85261580D01*
X89560000Y-84880628D01*
X89655238Y-84499676D01*
X89750476Y-84309200D01*
X89940952Y-84118723D01*
X90417142Y-84118723D01*
X90702857Y-84309200D01*
X91560000Y-86023485D02*
X92226666Y-86023485D01*
X92512380Y-88118723D02*
X91560000Y-88118723D01*
X91560000Y-84118723D01*
X92512380Y-84118723D01*
X92370590Y-58118783D02*
X92370590Y-54118783D01*
X93132495Y-54118783D01*
X93322971Y-54309260D01*
X93418209Y-54499736D01*
X93513447Y-54880688D01*
X93513447Y-55452117D01*
X93418209Y-55833069D01*
X93322971Y-56023545D01*
X93132495Y-56214021D01*
X92370590Y-56214021D01*
X94751542Y-54118783D02*
X95132495Y-54118783D01*
X95322971Y-54309260D01*
X95513447Y-54690212D01*
X95608685Y-55452117D01*
X95608685Y-56785450D01*
X95513447Y-57547355D01*
X95322971Y-57928307D01*
X95132495Y-58118783D01*
X94751542Y-58118783D01*
X94561066Y-57928307D01*
X94370590Y-57547355D01*
X94275352Y-56785450D01*
X94275352Y-55452117D01*
X94370590Y-54690212D01*
X94561066Y-54309260D01*
X94751542Y-54118783D01*
X96370590Y-57928307D02*
X96656304Y-58118783D01*
X97132495Y-58118783D01*
X97322971Y-57928307D01*
X97418209Y-57737831D01*
X97513447Y-57356879D01*
X97513447Y-56975926D01*
X97418209Y-56594974D01*
X97322971Y-56404498D01*
X97132495Y-56214021D01*
X96751542Y-56023545D01*
X96561066Y-55833069D01*
X96465828Y-55642593D01*
X96370590Y-55261640D01*
X96370590Y-54880688D01*
X96465828Y-54499736D01*
X96561066Y-54309260D01*
X96751542Y-54118783D01*
X97227733Y-54118783D01*
X97513447Y-54309260D01*
D14*
X78498085Y-17740683D02*
X79926657Y-17740683D01*
X78212371Y-19169254D02*
X79212371Y-14169254D01*
X80212371Y-19169254D01*
X83355228Y-13931159D02*
X80783800Y-20359730D01*
X86069514Y-19169254D02*
X85069514Y-16788302D01*
X84355228Y-19169254D02*
X84355228Y-14169254D01*
X85498085Y-14169254D01*
X85783800Y-14407350D01*
X85926657Y-14645445D01*
X86069514Y-15121635D01*
X86069514Y-15835921D01*
X85926657Y-16312111D01*
X85783800Y-16550207D01*
X85498085Y-16788302D01*
X84355228Y-16788302D01*
X89640942Y-16550207D02*
X90640942Y-16550207D01*
X91069514Y-19169254D02*
X89640942Y-19169254D01*
X89640942Y-14169254D01*
X91069514Y-14169254D01*
X93926657Y-14407350D02*
X93640942Y-14169254D01*
X93212371Y-14169254D01*
X92783800Y-14407350D01*
X92498085Y-14883540D01*
X92355228Y-15359730D01*
X92212371Y-16312111D01*
X92212371Y-17026397D01*
X92355228Y-17978778D01*
X92498085Y-18454969D01*
X92783800Y-18931159D01*
X93212371Y-19169254D01*
X93498085Y-19169254D01*
X93926657Y-18931159D01*
X94069514Y-18693064D01*
X94069514Y-17026397D01*
X93498085Y-17026397D01*
D11*
X82102467Y-97117585D02*
X83333590Y-97401691D01*
X82557035Y-96265268D02*
X83428291Y-96625135D01*
D10*
X93524299Y-110281135D02*
X96649459Y-110887226D01*
D11*
X92690128Y-108728026D02*
X92955293Y-105905912D01*
X84072265Y-95829640D02*
X84098067Y-95909529D01*
X84098067Y-95909529D02*
X84124839Y-95993672D01*
X84124839Y-95993672D02*
X84149553Y-96071674D01*
X84149553Y-96071674D02*
X84178666Y-96163780D01*
X84178666Y-96163780D02*
X84207883Y-96256378D01*
X84207883Y-96256378D02*
X84232331Y-96333944D01*
X84232331Y-96333944D02*
X84260701Y-96424034D01*
X84260701Y-96424034D02*
X84284921Y-96500999D01*
X84284921Y-96500999D02*
X84318747Y-96608563D01*
X84318747Y-96608563D02*
X84344868Y-96691672D01*
X84344868Y-96691672D02*
X84370605Y-96773596D01*
X84370605Y-96773596D02*
X84396844Y-96857163D01*
X84396844Y-96857163D02*
X84413190Y-96909242D01*
D10*
X96649459Y-110887226D02*
X96952504Y-110205373D01*
X94452376Y-115641257D02*
X93656881Y-114220730D01*
X76913604Y-110432658D02*
X76004466Y-110243254D01*
X85493586Y-105792270D02*
X86497425Y-105830151D01*
X86270142Y-113747221D02*
X86308023Y-112364574D01*
X76837842Y-105508163D02*
X76459035Y-106796108D01*
X93486418Y-116266289D02*
X91459800Y-115868541D01*
X82482069Y-96397850D02*
X82235844Y-96378911D01*
X85133720Y-97003943D02*
X86630008Y-103443666D01*
X90910529Y-113557817D02*
X92444699Y-113235831D01*
X86516366Y-106512003D02*
X87501265Y-105962733D01*
X91137814Y-107364320D02*
X90872648Y-108765906D01*
X94073570Y-113179010D02*
X94414495Y-114239670D01*
X90910529Y-100659433D02*
X90039272Y-103822472D01*
X82235844Y-96378911D02*
X82027501Y-97250167D01*
D11*
X83826039Y-100488968D02*
X84583653Y-100204863D01*
D10*
X93240194Y-108652264D02*
X93391717Y-105886971D01*
X94528138Y-111095570D02*
X94035689Y-110375836D01*
X92065891Y-101966316D02*
X92160594Y-100848835D01*
X91459800Y-115868541D02*
X90474902Y-114448014D01*
X77368172Y-105110416D02*
X77216649Y-105546044D01*
X79432672Y-104371743D02*
X79584194Y-105072535D01*
X93524299Y-110281135D02*
X94035689Y-109675043D01*
X78940222Y-98746455D02*
X78087906Y-99371487D01*
X94490257Y-105716509D02*
X95001647Y-105034656D01*
X77424993Y-109542461D02*
X76913604Y-110432658D01*
D11*
X93049994Y-110697823D02*
X93315160Y-109656104D01*
D10*
X89811989Y-100507909D02*
X88770269Y-95810700D01*
X97122968Y-105621806D02*
X94831184Y-102326183D01*
X94414495Y-114239670D02*
X93656881Y-114220730D01*
D11*
X89886955Y-100375327D02*
X88845235Y-95678118D01*
X94110655Y-109542461D02*
X97027470Y-110072791D01*
X92519665Y-113103249D02*
X94148536Y-113046428D01*
X86382989Y-112231992D02*
X86648153Y-111038750D01*
X94110655Y-109542461D02*
X94565223Y-105583927D01*
X92140857Y-101833734D02*
X92235560Y-100716253D01*
X87462589Y-113122189D02*
X86837557Y-113122189D01*
X78238633Y-111171332D02*
X77405257Y-110300076D01*
X93144697Y-113425235D02*
X92519665Y-113103249D01*
X92917412Y-114088148D02*
X92959949Y-114149045D01*
X92959949Y-114149045D02*
X93001700Y-114210320D01*
X93001700Y-114210320D02*
X93046806Y-114276955D01*
X93046806Y-114276955D02*
X93088183Y-114338294D01*
X93088183Y-114338294D02*
X93130969Y-114401863D01*
X93130969Y-114401863D02*
X93172100Y-114463065D01*
X93172100Y-114463065D02*
X93212593Y-114523394D01*
X93212593Y-114523394D02*
X93262222Y-114597409D01*
X93262222Y-114597409D02*
X93303894Y-114659611D01*
X93303894Y-114659611D02*
X93345349Y-114721533D01*
X93345349Y-114721533D02*
X93394156Y-114794487D01*
X93394156Y-114794487D02*
X93441179Y-114864811D01*
X93441179Y-114864811D02*
X93489175Y-114936634D01*
X93489175Y-114936634D02*
X93529880Y-114997574D01*
X93529880Y-114997574D02*
X93577359Y-115068687D01*
X93577359Y-115068687D02*
X93619390Y-115131670D01*
X93619390Y-115131670D02*
X93656087Y-115186689D01*
X84015443Y-101208703D02*
X83826039Y-100488968D01*
X85284447Y-99541952D02*
X85151865Y-98841158D01*
X78712142Y-109750805D02*
X77499959Y-109409879D01*
X88239143Y-99863938D02*
X87898217Y-98765396D01*
X95095554Y-111872126D02*
X94603104Y-110962988D01*
X91534766Y-115735959D02*
X91193840Y-116095826D01*
X93599265Y-110148553D02*
X94110655Y-109542461D01*
X78674262Y-108784847D02*
X78712142Y-109750805D01*
X80738761Y-109921269D02*
X80984986Y-106493063D01*
X79015188Y-98613873D02*
X78162872Y-99238905D01*
X83125246Y-94806862D02*
X82557035Y-96265268D01*
X78238633Y-103955055D02*
X79507638Y-104239161D01*
X88466428Y-110300076D02*
X89508147Y-110489479D01*
X81856242Y-97022884D02*
X81401673Y-98860099D01*
X83466172Y-102174661D02*
X84583653Y-100204863D01*
X89735432Y-111171332D02*
X90152120Y-110811465D01*
X81799421Y-118387609D02*
X81098628Y-118255027D01*
X77746184Y-98822217D02*
X77215854Y-99428309D01*
X82102467Y-97117585D02*
X81856242Y-97022884D01*
X94565223Y-115982184D02*
X93561384Y-116133707D01*
X94148536Y-113046428D02*
X94489461Y-114107088D01*
X95076613Y-104902074D02*
X94091715Y-104295981D01*
X93561384Y-116133707D02*
X91534766Y-115735959D01*
X82310810Y-96246329D02*
X82102467Y-97117585D01*
X86648153Y-111038750D02*
X88466428Y-110300076D01*
X92140857Y-101833734D02*
X91667349Y-106909751D01*
X85568552Y-105659688D02*
X86572391Y-105697569D01*
X87576231Y-105830151D02*
X91212780Y-107231738D01*
X79905385Y-105394523D02*
X82670677Y-105489224D01*
X78162872Y-99238905D02*
X77746184Y-98822217D01*
X80246311Y-114334372D02*
X83863920Y-111228153D01*
X94565223Y-105583927D02*
X95076613Y-104902074D01*
X87879276Y-102155722D02*
X85568552Y-105659688D01*
X90985495Y-113425235D02*
X92519665Y-113103249D01*
X95076613Y-104902074D02*
X97197934Y-105489224D01*
X82860081Y-99788176D02*
X82197168Y-99996520D01*
X77973468Y-106928692D02*
X77367377Y-106568825D01*
X88845235Y-95678118D02*
X86591332Y-96284210D01*
X90152120Y-110811465D02*
X90398345Y-110792525D01*
X94489461Y-114107088D02*
X95095554Y-111872126D01*
X81098628Y-118255027D02*
X81799421Y-115338211D01*
X86345108Y-113614639D02*
X86382989Y-112231992D01*
X85303388Y-101909496D02*
X85170805Y-100602611D01*
X93201517Y-111284975D02*
X93599265Y-110148553D01*
X86591332Y-106379421D02*
X86174643Y-108462861D01*
X85208686Y-96871361D02*
X86704974Y-103311084D01*
X79697041Y-106133196D02*
X79905385Y-105394523D01*
X80359954Y-112383515D02*
X79545518Y-110243254D01*
X88371726Y-112364575D02*
X88939937Y-110925108D01*
X79431876Y-106606706D02*
X78560620Y-105905912D01*
X83863920Y-111228153D02*
X80738761Y-109921269D01*
X76079432Y-110110672D02*
X75662744Y-110678883D01*
X79337174Y-108406040D02*
X79393995Y-108140875D01*
X92746949Y-112478217D02*
X93656087Y-112307754D01*
X78560620Y-114126028D02*
X80246312Y-114334372D01*
X77954528Y-107174916D02*
X77973468Y-106928692D01*
X84488952Y-95166728D02*
X83125246Y-94806862D01*
X93656087Y-112307754D02*
X93921251Y-111152392D01*
X83920742Y-97363810D02*
X84754117Y-97856259D01*
X81401673Y-98860099D02*
X80511476Y-99939699D01*
X82765380Y-99125263D02*
X82860081Y-99788176D01*
X95417540Y-108993191D02*
X95411511Y-108897432D01*
X95411511Y-108897432D02*
X95414542Y-108800047D01*
X95414542Y-108800047D02*
X95420055Y-108703788D01*
X95420055Y-108703788D02*
X95426695Y-108610375D01*
X95426695Y-108610375D02*
X95434416Y-108514106D01*
X95434416Y-108514106D02*
X95442639Y-108419463D01*
X95442639Y-108419463D02*
X95451363Y-108324637D01*
X95451363Y-108324637D02*
X95460348Y-108231225D01*
X95460348Y-108231225D02*
X95469959Y-108134778D01*
X95469959Y-108134778D02*
X95479407Y-108042762D01*
X95479407Y-108042762D02*
X95489432Y-107947590D01*
X95489432Y-107947590D02*
X95499684Y-107852493D01*
X95499684Y-107852493D02*
X95509670Y-107761775D01*
X95509670Y-107761775D02*
X95520210Y-107667970D01*
X95520210Y-107667970D02*
X95530636Y-107577314D01*
X95530636Y-107577314D02*
X95531182Y-107572664D01*
X84583653Y-100204863D02*
X84507893Y-102686051D01*
X94527342Y-115508675D02*
X93731847Y-114088148D01*
X91591588Y-99920758D02*
X90455165Y-99712414D01*
X93731847Y-114088148D02*
X93144697Y-113425235D01*
X90549868Y-114315432D02*
X90985495Y-113425235D01*
X91212780Y-107231738D02*
X90947614Y-108633324D01*
D10*
X80663795Y-110053851D02*
X80910020Y-106625645D01*
D11*
X91667349Y-106909751D02*
X93599265Y-110148553D01*
X95114494Y-107307499D02*
X95228136Y-105905912D01*
X87841395Y-110053851D02*
X86079942Y-109542461D01*
X91212780Y-107231738D02*
X91705230Y-106246839D01*
X89621789Y-103803532D02*
X89129341Y-101890556D01*
X88958876Y-115167748D02*
X89167221Y-115186689D01*
X93693968Y-115641257D02*
X94527342Y-115508675D01*
X93599265Y-110148553D02*
X96724425Y-110754644D01*
D10*
X85304184Y-109258355D02*
X86611067Y-109315176D01*
D11*
X85966300Y-113690400D02*
X84432132Y-114921523D01*
X88788414Y-106208958D02*
X89621789Y-103803532D01*
X87936098Y-115717019D02*
X87651993Y-114599537D01*
X80833463Y-116569335D02*
X81288031Y-114315432D01*
X88049740Y-110962988D02*
X88014046Y-111028966D01*
X88014046Y-111028966D02*
X87983050Y-111098983D01*
X87983050Y-111098983D02*
X87952866Y-111171519D01*
X87952866Y-111171519D02*
X87922980Y-111245876D01*
X87922980Y-111245876D02*
X87893716Y-111320371D01*
X87893716Y-111320371D02*
X87864576Y-111395821D01*
X87864576Y-111395821D02*
X87835393Y-111472374D01*
X87835393Y-111472374D02*
X87803207Y-111557756D01*
X87803207Y-111557756D02*
X87775769Y-111631212D01*
X87775769Y-111631212D02*
X87747377Y-111707766D01*
X87747377Y-111707766D02*
X87719085Y-111784563D01*
X87719085Y-111784563D02*
X87691920Y-111858740D01*
X87691920Y-111858740D02*
X87662868Y-111938491D01*
X87662868Y-111938491D02*
X87634261Y-112017438D01*
X87634261Y-112017438D02*
X87607472Y-112091741D01*
X87607472Y-112091741D02*
X87579304Y-112170258D01*
X87579304Y-112170258D02*
X87557290Y-112231992D01*
X88655832Y-104485385D02*
X88295965Y-104466445D01*
X90947614Y-108633324D02*
X92519665Y-113103249D01*
X93845489Y-103292142D02*
X93125756Y-102212542D01*
X88883116Y-116095826D02*
X87008019Y-116133707D01*
X82197168Y-117023903D02*
X82291871Y-116171587D01*
X89167221Y-108102994D02*
X90947614Y-108633324D01*
X79640220Y-99352548D02*
X79015188Y-98613873D01*
X77026450Y-99257845D02*
X76249896Y-100583671D01*
X77272675Y-102383005D02*
X77064331Y-103140619D01*
X91193840Y-116095826D02*
X89849074Y-115527615D01*
X77215854Y-99428309D02*
X77026450Y-99257845D01*
X92955293Y-105905912D02*
X92292380Y-104504325D01*
X75662744Y-110678883D02*
X78560620Y-114126028D01*
X86704974Y-103311084D02*
X86612051Y-103302465D01*
X86612051Y-103302465D02*
X86522885Y-103291321D01*
X86522885Y-103291321D02*
X86435604Y-103278503D01*
X86435604Y-103278503D02*
X86347472Y-103263929D01*
X86347472Y-103263929D02*
X86262430Y-103248465D01*
X86262430Y-103248465D02*
X86175435Y-103231327D01*
X86175435Y-103231327D02*
X86092596Y-103213834D01*
X86092596Y-103213834D02*
X86010298Y-103195373D01*
X86010298Y-103195373D02*
X85924675Y-103175063D01*
X85924675Y-103175063D02*
X85843782Y-103154871D01*
X85843782Y-103154871D02*
X85759445Y-103132808D01*
X85759445Y-103132808D02*
X85678718Y-103110740D01*
X85678718Y-103110740D02*
X85599506Y-103088204D01*
X85599506Y-103088204D02*
X85520784Y-103064951D01*
X85520784Y-103064951D02*
X85442854Y-103041104D01*
X85442854Y-103041104D02*
X85365992Y-103016783D01*
X85365992Y-103016783D02*
X85290460Y-102992117D01*
X85290460Y-102992117D02*
X85213256Y-102966127D01*
X85213256Y-102966127D02*
X85137728Y-102939946D01*
X85137728Y-102939946D02*
X85060720Y-102912486D01*
X85060720Y-102912486D02*
X84985703Y-102884995D01*
X84985703Y-102884995D02*
X84912881Y-102857611D01*
X84912881Y-102857611D02*
X84838897Y-102829090D01*
X84838897Y-102829090D02*
X84760164Y-102797968D01*
X84760164Y-102797968D02*
X84687522Y-102768545D01*
X84687522Y-102768545D02*
X84613886Y-102738028D01*
X84613886Y-102738028D02*
X84543024Y-102708004D01*
X84543024Y-102708004D02*
X84471298Y-102676959D01*
X84471298Y-102676959D02*
X84398722Y-102644872D01*
X84398722Y-102644872D02*
X84329197Y-102613501D01*
X84329197Y-102613501D02*
X84258937Y-102581167D01*
X84258937Y-102581167D02*
X84187958Y-102547858D01*
X84187958Y-102547858D02*
X84120275Y-102515487D01*
X84120275Y-102515487D02*
X84051970Y-102482219D01*
X84051970Y-102482219D02*
X83983059Y-102448042D01*
X83983059Y-102448042D02*
X83913556Y-102412947D01*
X83913556Y-102412947D02*
X83844504Y-102377455D01*
X83844504Y-102377455D02*
X83776981Y-102342145D01*
X83776981Y-102342145D02*
X83709996Y-102306523D01*
X83709996Y-102306523D02*
X83642524Y-102270044D01*
X83642524Y-102270044D02*
X83574576Y-102232700D01*
X83574576Y-102232700D02*
X83506159Y-102194476D01*
X83506159Y-102194476D02*
X83441602Y-102157835D01*
X83441602Y-102157835D02*
X83376650Y-102120405D01*
X83376650Y-102120405D02*
X83311312Y-102082178D01*
X83311312Y-102082178D02*
X83245595Y-102043145D01*
X83245595Y-102043145D02*
X83179509Y-102003298D01*
X83179509Y-102003298D02*
X83114168Y-101963314D01*
X83114168Y-101963314D02*
X83050719Y-101923924D01*
X83050719Y-101923924D02*
X82986956Y-101883776D01*
X82986956Y-101883776D02*
X82925140Y-101844314D01*
X82925140Y-101844314D02*
X82863044Y-101804133D01*
X82863044Y-101804133D02*
X82798402Y-101761727D01*
X82798402Y-101761727D02*
X82734614Y-101719302D01*
X82734614Y-101719302D02*
X82665973Y-101672998D01*
X82665973Y-101672998D02*
X82601635Y-101628982D01*
X82601635Y-101628982D02*
X82541661Y-101587414D01*
X82541661Y-101587414D02*
X82481473Y-101545169D01*
X82481473Y-101545169D02*
X82421075Y-101502243D01*
X82421075Y-101502243D02*
X82361636Y-101459472D01*
X82361636Y-101459472D02*
X82299664Y-101414319D01*
X82299664Y-101414319D02*
X82238664Y-101369313D01*
X82238664Y-101369313D02*
X82177473Y-101323604D01*
X82177473Y-101323604D02*
X82116099Y-101277187D01*
X82116099Y-101277187D02*
X82049801Y-101226397D01*
X82049801Y-101226397D02*
X81988059Y-101178489D01*
X81988059Y-101178489D02*
X81930917Y-101133621D01*
X81930917Y-101133621D02*
X81873635Y-101088132D01*
X81873635Y-101088132D02*
X81811428Y-101038144D01*
X81811428Y-101038144D02*
X81753866Y-100991342D01*
X81753866Y-100991342D02*
X81696180Y-100943905D01*
X81696180Y-100943905D02*
X81633546Y-100891792D01*
X81633546Y-100891792D02*
X81575609Y-100843017D01*
X81575609Y-100843017D02*
X81517556Y-100793592D01*
X81517556Y-100793592D02*
X81459393Y-100743515D01*
X81459393Y-100743515D02*
X81401123Y-100692778D01*
X81401123Y-100692778D02*
X81346404Y-100644613D01*
X81346404Y-100644613D02*
X81289159Y-100593681D01*
X81289159Y-100593681D02*
X81234265Y-100544314D01*
X81234265Y-100544314D02*
X81181739Y-100496590D01*
X81181739Y-100496590D02*
X81127916Y-100447191D01*
X81127916Y-100447191D02*
X81074024Y-100397218D01*
X81074024Y-100397218D02*
X81020067Y-100346670D01*
X81020067Y-100346670D02*
X80966045Y-100295542D01*
X80966045Y-100295542D02*
X80907044Y-100239103D01*
X80907044Y-100239103D02*
X80852900Y-100186754D01*
X80852900Y-100186754D02*
X80798702Y-100133814D01*
X80798702Y-100133814D02*
X80744452Y-100080280D01*
X80744452Y-100080280D02*
X80691391Y-100027388D01*
X80691391Y-100027388D02*
X80640760Y-99976425D01*
X80640760Y-99976425D02*
X80586383Y-99921148D01*
X80586383Y-99921148D02*
X80535678Y-99869095D01*
X80535678Y-99869095D02*
X80483705Y-99815224D01*
X80483705Y-99815224D02*
X80432940Y-99762097D01*
X80432940Y-99762097D02*
X80382152Y-99708438D01*
X80382152Y-99708438D02*
X80323902Y-99646264D01*
X80323902Y-99646264D02*
X80274307Y-99592792D01*
X80274307Y-99592792D02*
X80219734Y-99533377D01*
X80219734Y-99533377D02*
X80170105Y-99478817D01*
X80170105Y-99478817D02*
X80121707Y-99425120D01*
X80121707Y-99425120D02*
X80070816Y-99368132D01*
X80070816Y-99368132D02*
X80016194Y-99306358D01*
X80016194Y-99306358D02*
X79967776Y-99251071D01*
X79967776Y-99251071D02*
X79924325Y-99201024D01*
X79715981Y-113197951D02*
X80359954Y-112383515D01*
X76249896Y-100583671D02*
X76874927Y-100867776D01*
X76874927Y-100867776D02*
X76946915Y-100904883D01*
X76946915Y-100904883D02*
X77023221Y-100944115D01*
X77023221Y-100944115D02*
X77090767Y-100978783D01*
X77090767Y-100978783D02*
X77169999Y-101019388D01*
X77169999Y-101019388D02*
X77236849Y-101053602D01*
X77236849Y-101053602D02*
X77304792Y-101088333D01*
X77304792Y-101088333D02*
X77383363Y-101128450D01*
X77383363Y-101128450D02*
X77456191Y-101165592D01*
X77456191Y-101165592D02*
X77527180Y-101201754D01*
X77527180Y-101201754D02*
X77595347Y-101236446D01*
X77595347Y-101236446D02*
X77666435Y-101272589D01*
X77666435Y-101272589D02*
X77747193Y-101313603D01*
X77747193Y-101313603D02*
X77816996Y-101349018D01*
X77816996Y-101349018D02*
X77889021Y-101385524D01*
X77889021Y-101385524D02*
X77959453Y-101421188D01*
X77959453Y-101421188D02*
X78027941Y-101455836D01*
X78027941Y-101455836D02*
X78102050Y-101493294D01*
X78102050Y-101493294D02*
X78182030Y-101533677D01*
X78182030Y-101533677D02*
X78263977Y-101575010D01*
X78263977Y-101575010D02*
X78333030Y-101609805D01*
X78333030Y-101609805D02*
X78411964Y-101649540D01*
X78411964Y-101649540D02*
X78485870Y-101686708D01*
X78485870Y-101686708D02*
X78556605Y-101722248D01*
X78556605Y-101722248D02*
X78628452Y-101758313D01*
X78628452Y-101758313D02*
X78701383Y-101794887D01*
X78701383Y-101794887D02*
X78775369Y-101831955D01*
X78775369Y-101831955D02*
X78850386Y-101869503D01*
X78850386Y-101869503D02*
X78926407Y-101907516D01*
X78926407Y-101907516D02*
X79003402Y-101945976D01*
X79003402Y-101945976D02*
X79076447Y-101982427D01*
X79076447Y-101982427D02*
X79160211Y-102024184D01*
X79160211Y-102024184D02*
X79234962Y-102061408D01*
X79234962Y-102061408D02*
X79305419Y-102096459D01*
X79305419Y-102096459D02*
X79376522Y-102131797D01*
X79376522Y-102131797D02*
X79448257Y-102167415D01*
X79448257Y-102167415D02*
X79525791Y-102205872D01*
X79525791Y-102205872D02*
X79609245Y-102247220D01*
X79609245Y-102247220D02*
X79693444Y-102288886D01*
X79693444Y-102288886D02*
X79762389Y-102322967D01*
X79762389Y-102322967D02*
X79837150Y-102359884D01*
X79837150Y-102359884D02*
X79907032Y-102394357D01*
X79907032Y-102394357D02*
X79977347Y-102429008D01*
X79977347Y-102429008D02*
X80053535Y-102466512D01*
X80053535Y-102466512D02*
X80130187Y-102504201D01*
X80130187Y-102504201D02*
X80212808Y-102544775D01*
X80212808Y-102544775D02*
X80295920Y-102585540D01*
X80295920Y-102585540D02*
X80373913Y-102623744D01*
X80373913Y-102623744D02*
X80441074Y-102656606D01*
X80441074Y-102656606D02*
X80508511Y-102689567D01*
X80508511Y-102689567D02*
X80587519Y-102728137D01*
X80587519Y-102728137D02*
X80655512Y-102761291D01*
X80655512Y-102761291D02*
X80723743Y-102794523D01*
X80723743Y-102794523D02*
X80792199Y-102827827D01*
X80792199Y-102827827D02*
X80866607Y-102863982D01*
X80866607Y-102863982D02*
X80941254Y-102900205D01*
X80941254Y-102900205D02*
X81010356Y-102933697D01*
X81010356Y-102933697D02*
X81079641Y-102967234D01*
X81079641Y-102967234D02*
X81160682Y-103006409D01*
X81160682Y-103006409D02*
X81230316Y-103040026D01*
X81230316Y-103040026D02*
X81300092Y-103073665D01*
X81300092Y-103073665D02*
X81370002Y-103107325D01*
X81370002Y-103107325D02*
X81440033Y-103140998D01*
X81440033Y-103140998D02*
X81521873Y-103180290D01*
X81521873Y-103180290D02*
X81592128Y-103213970D01*
X81592128Y-103213970D02*
X81662467Y-103247641D01*
X81662467Y-103247641D02*
X81756364Y-103292514D01*
X81756364Y-103292514D02*
X81838611Y-103331744D01*
X81838611Y-103331744D02*
X81920918Y-103370936D01*
X81920918Y-103370936D02*
X82026804Y-103421249D01*
X82026804Y-103421249D02*
X82097415Y-103454734D01*
X82097415Y-103454734D02*
X82168030Y-103488167D01*
X82168030Y-103488167D02*
X82238635Y-103521539D01*
X82238635Y-103521539D02*
X82309223Y-103554846D01*
X82309223Y-103554846D02*
X82379779Y-103588080D01*
X82379779Y-103588080D02*
X82450293Y-103621237D01*
X82450293Y-103621237D02*
X82520753Y-103654308D01*
X82520753Y-103654308D02*
X82591149Y-103687288D01*
X82591149Y-103687288D02*
X82661468Y-103720170D01*
X82661468Y-103720170D02*
X82731700Y-103752949D01*
X82731700Y-103752949D02*
X82801831Y-103785615D01*
X82801831Y-103785615D02*
X82871854Y-103818166D01*
X82871854Y-103818166D02*
X82941755Y-103850594D01*
X82941755Y-103850594D02*
X83011522Y-103882893D01*
X83011522Y-103882893D02*
X83084042Y-103916392D01*
X83084042Y-103916392D02*
X83162172Y-103952397D01*
X83162172Y-103952397D02*
X83231443Y-103984243D01*
X83231443Y-103984243D02*
X83300532Y-104015934D01*
X83300532Y-104015934D02*
X83372295Y-104048771D01*
X83372295Y-104048771D02*
X83449550Y-104084028D01*
X83449550Y-104084028D02*
X83529376Y-104120354D01*
X83529376Y-104120354D02*
X83608891Y-104156432D01*
X83608891Y-104156432D02*
X83688073Y-104192248D01*
X83688073Y-104192248D02*
X83764097Y-104226529D01*
X83764097Y-104226529D02*
X83834186Y-104258041D01*
X83834186Y-104258041D02*
X83912324Y-104293058D01*
X83912324Y-104293058D02*
X83981750Y-104324071D01*
X83981750Y-104324071D02*
X84056358Y-104357289D01*
X84056358Y-104357289D02*
X84133301Y-104391424D01*
X84133301Y-104391424D02*
X84207067Y-104424029D01*
X84207067Y-104424029D02*
X84277690Y-104455130D01*
X84277690Y-104455130D02*
X84347893Y-104485932D01*
X84347893Y-104485932D02*
X84417660Y-104516425D01*
X84417660Y-104516425D02*
X84492293Y-104548909D01*
X84492293Y-104548909D02*
X84563751Y-104579880D01*
X84563751Y-104579880D02*
X84637309Y-104611617D01*
X84637309Y-104611617D02*
X84710295Y-104642958D01*
X84710295Y-104642958D02*
X84785259Y-104674988D01*
X84785259Y-104674988D02*
X84857020Y-104705492D01*
X84857020Y-104705492D02*
X84928150Y-104735565D01*
X84928150Y-104735565D02*
X84998634Y-104765204D01*
X84998634Y-104765204D02*
X85073414Y-104796462D01*
X85073414Y-104796462D02*
X85144957Y-104826180D01*
X85144957Y-104826180D02*
X85220596Y-104857389D01*
X85220596Y-104857389D02*
X85300145Y-104889967D01*
X85300145Y-104889967D02*
X85373927Y-104919948D01*
X85373927Y-104919948D02*
X85451441Y-104951185D01*
X85451441Y-104951185D02*
X85523263Y-104979877D01*
X85523263Y-104979877D02*
X85598635Y-105009711D01*
X85598635Y-105009711D02*
X85670624Y-105037927D01*
X85670624Y-105037927D02*
X85748093Y-105067967D01*
X85748093Y-105067967D02*
X85822047Y-105096308D01*
X85822047Y-105096308D02*
X85894689Y-105123802D01*
X85894689Y-105123802D02*
X85909479Y-105129357D01*
X78049230Y-103348963D02*
X78238633Y-103955055D01*
X86439809Y-96625135D02*
X85208686Y-96871361D01*
X86837557Y-113122189D02*
X86345108Y-113614639D01*
X94091715Y-104295981D02*
X92557546Y-101890556D01*
X80151609Y-112970667D02*
X80644059Y-112989607D01*
X87008019Y-116133707D02*
X86345108Y-113614639D01*
X87955038Y-112402456D02*
X87955038Y-113690400D01*
X77443138Y-104977834D02*
X77291615Y-105413462D01*
X79507638Y-104239161D02*
X79659160Y-104939953D01*
X89735432Y-114997285D02*
X88883116Y-116095826D01*
X79924325Y-99201024D02*
X79640220Y-99352548D01*
X86591332Y-96284210D02*
X86439809Y-96625135D01*
X79659160Y-104939953D02*
X83163127Y-105110417D01*
X91686289Y-111436497D02*
X91762050Y-113254772D01*
X76590822Y-101776914D02*
X76912808Y-101890556D01*
X89508147Y-110489479D02*
X89735432Y-111171332D01*
X90985495Y-100526851D02*
X90455165Y-99712414D01*
X88731593Y-114050267D02*
X88958876Y-115167748D01*
D10*
X88770269Y-95810700D02*
X86516366Y-96416792D01*
D11*
X89583909Y-109390938D02*
X91515826Y-110262195D01*
X93049994Y-109182594D02*
X93315160Y-108519682D01*
D10*
X87387623Y-113254771D02*
X86762591Y-113254771D01*
X76951484Y-99390427D02*
X76174930Y-100716253D01*
X84508687Y-100337445D02*
X84432927Y-102818633D01*
D11*
X81799421Y-115338211D02*
X83466172Y-113955565D01*
X88106561Y-104106577D02*
X88447488Y-103519427D01*
X78712142Y-105432403D02*
X79393995Y-105356642D01*
X84754117Y-97856259D02*
X85398089Y-97780498D01*
X96686544Y-107648425D02*
X96800187Y-105962733D01*
X82613857Y-117175426D02*
X82197168Y-117023903D01*
X81742600Y-108424980D02*
X85492791Y-107989352D01*
X84754117Y-97856259D02*
X84583653Y-100204863D01*
D10*
X84413986Y-95299310D02*
X83050280Y-94939444D01*
X83088161Y-105242999D02*
X83751073Y-106000614D01*
D11*
X83314650Y-114751060D02*
X83674517Y-112724442D01*
X89224042Y-99295727D02*
X88617951Y-96928181D01*
X94337940Y-102345124D02*
X95909989Y-104693729D01*
X88428547Y-108084054D02*
X88504033Y-108110363D01*
X88504033Y-108110363D02*
X88585454Y-108129725D01*
X88585454Y-108129725D02*
X88674856Y-108142464D01*
X88674856Y-108142464D02*
X88770517Y-108148054D01*
X88770517Y-108148054D02*
X88869205Y-108146502D01*
X88869205Y-108146502D02*
X88962109Y-108139080D01*
X88962109Y-108139080D02*
X89050374Y-108127036D01*
X89050374Y-108127036D02*
X89134739Y-108110821D01*
X89134739Y-108110821D02*
X89167221Y-108102994D01*
X89583909Y-108993191D02*
X89662154Y-109028361D01*
X89662154Y-109028361D02*
X89731836Y-109059460D01*
X89731836Y-109059460D02*
X89808877Y-109093758D01*
X89808877Y-109093758D02*
X89884644Y-109127437D01*
X89884644Y-109127437D02*
X89967418Y-109164193D01*
X89967418Y-109164193D02*
X90037949Y-109195490D01*
X90037949Y-109195490D02*
X90111708Y-109228202D01*
X90111708Y-109228202D02*
X90188137Y-109262083D01*
X90188137Y-109262083D02*
X90276606Y-109301287D01*
X90276606Y-109301287D02*
X90346774Y-109332369D01*
X90346774Y-109332369D02*
X90427863Y-109368282D01*
X90427863Y-109368282D02*
X90519585Y-109408891D01*
X90519585Y-109408891D02*
X90600939Y-109444903D01*
X90600939Y-109444903D02*
X90681543Y-109480575D01*
X90681543Y-109480575D02*
X90780456Y-109524341D01*
X90780456Y-109524341D02*
X90876108Y-109566656D01*
X90876108Y-109566656D02*
X90949690Y-109599201D01*
X90949690Y-109599201D02*
X91020009Y-109630302D01*
X91020009Y-109630302D02*
X91133689Y-109680570D01*
X91133689Y-109680570D02*
X91245303Y-109729915D01*
X91245303Y-109729915D02*
X91366969Y-109783694D01*
X91366969Y-109783694D02*
X91421123Y-109807626D01*
D10*
X79584194Y-105072535D02*
X83088161Y-105242999D01*
X79584194Y-105072535D02*
X77368172Y-105110416D01*
D11*
X83428291Y-96625135D02*
X83541934Y-97894139D01*
X79772802Y-112099410D02*
X79469757Y-111417557D01*
X96478199Y-105015715D02*
X95720585Y-103898234D01*
D10*
X78637176Y-109883387D02*
X77424993Y-109542461D01*
X79470552Y-110375836D02*
X80057703Y-109807626D01*
D11*
X78806844Y-113463116D02*
X78761657Y-113408044D01*
X78761657Y-113408044D02*
X78714906Y-113352267D01*
X78714906Y-113352267D02*
X78661815Y-113289243D01*
X78661815Y-113289243D02*
X78609074Y-113226799D01*
X78609074Y-113226799D02*
X78557298Y-113165599D01*
X78557298Y-113165599D02*
X78505021Y-113103878D01*
X78505021Y-113103878D02*
X78449323Y-113038176D01*
X78449323Y-113038176D02*
X78394896Y-112974021D01*
X78394896Y-112974021D02*
X78342609Y-112912423D01*
X78342609Y-112912423D02*
X78293177Y-112854213D01*
X78293177Y-112854213D02*
X78237857Y-112789095D01*
X78237857Y-112789095D02*
X78176559Y-112716969D01*
X78176559Y-112716969D02*
X78118976Y-112649239D01*
X78118976Y-112649239D02*
X78060695Y-112580706D01*
X78060695Y-112580706D02*
X78001967Y-112511666D01*
X78001967Y-112511666D02*
X77943040Y-112442408D01*
X77943040Y-112442408D02*
X77884164Y-112373224D01*
X77884164Y-112373224D02*
X77825591Y-112304411D01*
X77825591Y-112304411D02*
X77757960Y-112224971D01*
X77757960Y-112224971D02*
X77682105Y-112135892D01*
X77682105Y-112135892D02*
X77624297Y-112068018D01*
X77624297Y-112068018D02*
X77572435Y-112007132D01*
X77572435Y-112007132D02*
X77511460Y-111935558D01*
X77511460Y-111935558D02*
X77436996Y-111848166D01*
X77436996Y-111848166D02*
X77375236Y-111775693D01*
X77375236Y-111775693D02*
X77318237Y-111708816D01*
X77318237Y-111708816D02*
X77266594Y-111648230D01*
X77266594Y-111648230D02*
X77190670Y-111559173D01*
X77190670Y-111559173D02*
X77130497Y-111488605D01*
X77130497Y-111488605D02*
X77102211Y-111455438D01*
X88447488Y-103519427D02*
X88258084Y-102913336D01*
X81288031Y-114315432D02*
X84015443Y-112004708D01*
X82973723Y-108652264D02*
X85151865Y-108462861D01*
X83750279Y-116020065D02*
X82613857Y-117175426D01*
X90852913Y-106549884D02*
X91155959Y-105546046D01*
X78560620Y-105905912D02*
X78712142Y-105432403D01*
X86079942Y-109542461D02*
X83068425Y-109921269D01*
X86136764Y-114713179D02*
X81799421Y-118387609D01*
D10*
X83050280Y-94939444D02*
X82482069Y-96397850D01*
X77216649Y-105546044D02*
X76837842Y-105508163D01*
D11*
X89167221Y-115186689D02*
X89394505Y-114656359D01*
X83826039Y-100488968D02*
X82860081Y-99788176D01*
D10*
X85133720Y-97003943D02*
X84413986Y-95299310D01*
D11*
X81477435Y-116645096D02*
X80833463Y-116569335D01*
X84432132Y-114921523D02*
X83314650Y-114751060D01*
X88939937Y-110925108D02*
X89356624Y-111057690D01*
X86932259Y-107837829D02*
X87330005Y-107913590D01*
X83674517Y-112724442D02*
X84810938Y-111815304D01*
D10*
X86516366Y-106512003D02*
X86099677Y-108595443D01*
D11*
X81666839Y-112724442D02*
X80719820Y-112591859D01*
X88295965Y-104466445D02*
X88106561Y-104106577D01*
X87254245Y-115186689D02*
X86970139Y-113974506D01*
D10*
X83788954Y-111360735D02*
X86308023Y-112364574D01*
D11*
X87216364Y-99712414D02*
X87210530Y-99617890D01*
X87210530Y-99617890D02*
X87198958Y-99528412D01*
X87198958Y-99528412D02*
X87184576Y-99440454D01*
X87184576Y-99440454D02*
X87168787Y-99355243D01*
X87168787Y-99355243D02*
X87151715Y-99270258D01*
X87151715Y-99270258D02*
X87133515Y-99184776D01*
X87133515Y-99184776D02*
X87115195Y-99102436D01*
X87115195Y-99102436D02*
X87096035Y-99019259D01*
X87096035Y-99019259D02*
X87075645Y-98933286D01*
X87075645Y-98933286D02*
X87055457Y-98850236D01*
X87055457Y-98850236D02*
X87034743Y-98766788D01*
X87034743Y-98766788D02*
X87013670Y-98683435D01*
X87013670Y-98683435D02*
X86992406Y-98600673D01*
X86992406Y-98600673D02*
X86971114Y-98518999D01*
X86971114Y-98518999D02*
X86949963Y-98438908D01*
X86949963Y-98438908D02*
X86927187Y-98353709D01*
X86927187Y-98353709D02*
X86904373Y-98269354D01*
X86904373Y-98269354D02*
X86882413Y-98189022D01*
X86882413Y-98189022D02*
X86859866Y-98107359D01*
X86859866Y-98107359D02*
X86837876Y-98028479D01*
X86837876Y-98028479D02*
X86814825Y-97946589D01*
X86814825Y-97946589D02*
X86790222Y-97860097D01*
X86790222Y-97860097D02*
X86767535Y-97781288D01*
X86767535Y-97781288D02*
X86761795Y-97761557D01*
X90890794Y-104466445D02*
X91477945Y-101454928D01*
X88239143Y-105754389D02*
X88655832Y-104485385D01*
X97197934Y-105489224D02*
X94906150Y-102193601D01*
X92292380Y-104504325D02*
X91856752Y-104939955D01*
X87898217Y-102932276D02*
X86780736Y-104636908D01*
X88258084Y-102913336D02*
X87898217Y-102932276D01*
X94716746Y-108841668D02*
X94792508Y-108027232D01*
D10*
X83788954Y-111360735D02*
X80663795Y-110053851D01*
D11*
X94527342Y-103727771D02*
X94494673Y-103658034D01*
X94494673Y-103658034D02*
X94459083Y-103591465D01*
X94459083Y-103591465D02*
X94423006Y-103525934D01*
X94423006Y-103525934D02*
X94386370Y-103460410D01*
X94386370Y-103460410D02*
X94348040Y-103392545D01*
X94348040Y-103392545D02*
X94309966Y-103325621D01*
X94309966Y-103325621D02*
X94270368Y-103256419D01*
X94270368Y-103256419D02*
X94231693Y-103189130D01*
X94231693Y-103189130D02*
X94192675Y-103121496D01*
X94192675Y-103121496D02*
X94155664Y-103057538D01*
X94155664Y-103057538D02*
X94113861Y-102985499D01*
X94113861Y-102985499D02*
X94076949Y-102922044D01*
X94076949Y-102922044D02*
X94038511Y-102856107D01*
X94038511Y-102856107D02*
X94001330Y-102792457D01*
X94001330Y-102792457D02*
X93962732Y-102726507D01*
X93962732Y-102726507D02*
X93922527Y-102657952D01*
X93922527Y-102657952D02*
X93883675Y-102591866D01*
X93883675Y-102591866D02*
X93883370Y-102591349D01*
D10*
X78599296Y-108917429D02*
X78637176Y-109883387D01*
X76459035Y-106796108D02*
X78599296Y-108917429D01*
X92444699Y-114315432D02*
X93619002Y-115773839D01*
X87501265Y-105962733D02*
X91137814Y-107364320D01*
X90323379Y-110925107D02*
X91611323Y-111569079D01*
X79849359Y-99333606D02*
X79565254Y-99485130D01*
X90910529Y-100659433D02*
X90380199Y-99844996D01*
X88808150Y-116228408D02*
X86933053Y-116266289D01*
X76743140Y-102420886D02*
X77197709Y-102515587D01*
X93069731Y-113557817D02*
X92444699Y-113235831D01*
X77671218Y-98954799D02*
X77140888Y-99560891D01*
X93486418Y-116266289D02*
X93675822Y-115773839D01*
D11*
X90985495Y-113425235D02*
X92102976Y-113804042D01*
D10*
X82122202Y-112648680D02*
X80777437Y-112572918D01*
D11*
X96724425Y-110754644D02*
X97027470Y-110072791D01*
D10*
X93656881Y-114220730D02*
X93069731Y-113557817D01*
X91137814Y-107364320D02*
X91630264Y-106379421D01*
X91118874Y-116228408D02*
X89774108Y-115660197D01*
X94831184Y-102326183D02*
X92065891Y-101966316D01*
D11*
X89849074Y-115527615D02*
X89470266Y-113557818D01*
X88466428Y-101909496D02*
X87879276Y-102155722D01*
X94148536Y-113046428D02*
X94603104Y-110962988D01*
D10*
X86573187Y-111171332D02*
X88391462Y-110432658D01*
X92028010Y-113936624D02*
X93069731Y-113557817D01*
D11*
X96023631Y-108652264D02*
X96175154Y-107155976D01*
X94906150Y-102193601D02*
X92140857Y-101833734D01*
X81780481Y-107345379D02*
X85644314Y-106947632D01*
X96459260Y-109523521D02*
X96459260Y-108898489D01*
X89129341Y-101890556D02*
X88466428Y-101909496D01*
X83068425Y-109921269D02*
X82992663Y-110716764D01*
G36*
X77814254Y-202370818D02*
G01*
X78187511Y-202525426D01*
X78187513Y-202525427D01*
X78523436Y-202749884D01*
X78809116Y-203035564D01*
X79033574Y-203371489D01*
X79188182Y-203744746D01*
X79267000Y-204140993D01*
X79267000Y-204545007D01*
X79188182Y-204941254D01*
X79033574Y-205314511D01*
X79033573Y-205314513D01*
X78809116Y-205650436D01*
X78523436Y-205936116D01*
X78187513Y-206160573D01*
X78187512Y-206160574D01*
X78187511Y-206160574D01*
X77814254Y-206315182D01*
X77418007Y-206394000D01*
X77013993Y-206394000D01*
X76617746Y-206315182D01*
X76244489Y-206160574D01*
X76244488Y-206160574D01*
X76244487Y-206160573D01*
X75908564Y-205936116D01*
X75622884Y-205650436D01*
X75398427Y-205314513D01*
X75398426Y-205314511D01*
X75243818Y-204941254D01*
X75165000Y-204545007D01*
X75165000Y-204140993D01*
X75243818Y-203744746D01*
X75398426Y-203371489D01*
X75622884Y-203035564D01*
X75908564Y-202749884D01*
X76244487Y-202525427D01*
X76244489Y-202525426D01*
X76617746Y-202370818D01*
X77013993Y-202292000D01*
X77418007Y-202292000D01*
X77814254Y-202370818D01*
G37*
G36*
X96534054Y-202370818D02*
G01*
X96907311Y-202525426D01*
X96907313Y-202525427D01*
X97243236Y-202749884D01*
X97528916Y-203035564D01*
X97753374Y-203371489D01*
X97907982Y-203744746D01*
X97986800Y-204140993D01*
X97986800Y-204545007D01*
X97907982Y-204941254D01*
X97753374Y-205314511D01*
X97753373Y-205314513D01*
X97528916Y-205650436D01*
X97243236Y-205936116D01*
X96907313Y-206160573D01*
X96907312Y-206160574D01*
X96907311Y-206160574D01*
X96534054Y-206315182D01*
X96137807Y-206394000D01*
X95733793Y-206394000D01*
X95337546Y-206315182D01*
X94964289Y-206160574D01*
X94964288Y-206160574D01*
X94964287Y-206160573D01*
X94628364Y-205936116D01*
X94342684Y-205650436D01*
X94118227Y-205314513D01*
X94118226Y-205314511D01*
X93963618Y-204941254D01*
X93884800Y-204545007D01*
X93884800Y-204140993D01*
X93963618Y-203744746D01*
X94118226Y-203371489D01*
X94342684Y-203035564D01*
X94628364Y-202749884D01*
X94964287Y-202525427D01*
X94964289Y-202525426D01*
X95337546Y-202370818D01*
X95733793Y-202292000D01*
X96137807Y-202292000D01*
X96534054Y-202370818D01*
G37*
G36*
X88696100Y-176049165D02*
G01*
X89979299Y-176580684D01*
X89979301Y-176580685D01*
X91134151Y-177352330D01*
X92116270Y-178334449D01*
X92887915Y-179489299D01*
X92887916Y-179489301D01*
X93419435Y-180772500D01*
X93690400Y-182134736D01*
X93690400Y-183523664D01*
X93419435Y-184885900D01*
X92887916Y-186169099D01*
X92887915Y-186169101D01*
X92116270Y-187323951D01*
X91134151Y-188306070D01*
X89979301Y-189077715D01*
X89979300Y-189077716D01*
X89979299Y-189077716D01*
X88696100Y-189609235D01*
X87333864Y-189880200D01*
X85944936Y-189880200D01*
X84582700Y-189609235D01*
X83299501Y-189077716D01*
X83299500Y-189077716D01*
X83299499Y-189077715D01*
X82144649Y-188306070D01*
X81162530Y-187323951D01*
X80390885Y-186169101D01*
X80390884Y-186169099D01*
X79859365Y-184885900D01*
X79588400Y-183523664D01*
X79588400Y-182134736D01*
X79859365Y-180772500D01*
X80390884Y-179489301D01*
X80390885Y-179489299D01*
X81162530Y-178334449D01*
X82144649Y-177352330D01*
X83299499Y-176580685D01*
X83299501Y-176580684D01*
X84582700Y-176049165D01*
X85944936Y-175778200D01*
X87333864Y-175778200D01*
X88696100Y-176049165D01*
G37*
G36*
X87377021Y-165962640D02*
G01*
X87886769Y-166173785D01*
X87886771Y-166173786D01*
X88345534Y-166480321D01*
X88735679Y-166870466D01*
X89042214Y-167329229D01*
X89042215Y-167329231D01*
X89253360Y-167838979D01*
X89361000Y-168380124D01*
X89361000Y-168931876D01*
X89253360Y-169473021D01*
X89042215Y-169982769D01*
X89042214Y-169982771D01*
X88735679Y-170441534D01*
X88345534Y-170831679D01*
X87886771Y-171138214D01*
X87886770Y-171138215D01*
X87886769Y-171138215D01*
X87377021Y-171349360D01*
X86835876Y-171457000D01*
X86284124Y-171457000D01*
X85742979Y-171349360D01*
X85233231Y-171138215D01*
X85233230Y-171138215D01*
X85233229Y-171138214D01*
X84774466Y-170831679D01*
X84384321Y-170441534D01*
X84077786Y-169982771D01*
X84077785Y-169982769D01*
X83866640Y-169473021D01*
X83759000Y-168931876D01*
X83759000Y-168380124D01*
X83866640Y-167838979D01*
X84077785Y-167329231D01*
X84077786Y-167329229D01*
X84384321Y-166870466D01*
X84774466Y-166480321D01*
X85233229Y-166173786D01*
X85233231Y-166173785D01*
X85742979Y-165962640D01*
X86284124Y-165855000D01*
X86835876Y-165855000D01*
X87377021Y-165962640D01*
G37*
G36*
X88616700Y-131903965D02*
G01*
X89899899Y-132435484D01*
X89899901Y-132435485D01*
X91054751Y-133207130D01*
X92036870Y-134189249D01*
X92808515Y-135344099D01*
X92808516Y-135344101D01*
X93340035Y-136627300D01*
X93611000Y-137989536D01*
X93611000Y-139378464D01*
X93340035Y-140740700D01*
X92808516Y-142023899D01*
X92808515Y-142023901D01*
X92036870Y-143178751D01*
X91054751Y-144160870D01*
X89899901Y-144932515D01*
X89899900Y-144932516D01*
X89899899Y-144932516D01*
X88616700Y-145464035D01*
X87254464Y-145735000D01*
X85865536Y-145735000D01*
X84503300Y-145464035D01*
X83220101Y-144932516D01*
X83220100Y-144932516D01*
X83220099Y-144932515D01*
X82065249Y-144160870D01*
X81083130Y-143178751D01*
X80311485Y-142023901D01*
X80311484Y-142023899D01*
X79779965Y-140740700D01*
X79509000Y-139378464D01*
X79509000Y-137989536D01*
X79779965Y-136627300D01*
X80311484Y-135344101D01*
X80311485Y-135344099D01*
X81083130Y-134189249D01*
X82065249Y-133207130D01*
X83220099Y-132435485D01*
X83220101Y-132435484D01*
X84503300Y-131903965D01*
X85865536Y-131633000D01*
X87254464Y-131633000D01*
X88616700Y-131903965D01*
G37*
G36*
X87887477Y-68775892D02*
G01*
X88230541Y-68917994D01*
X88715707Y-69118956D01*
X89461093Y-69617008D01*
X90094992Y-70250907D01*
X90593044Y-70996293D01*
X90794006Y-71481459D01*
X90936108Y-71824523D01*
X91111000Y-72703764D01*
X91111000Y-73600236D01*
X90936108Y-74479477D01*
X90794006Y-74822541D01*
X90593044Y-75307707D01*
X90094992Y-76053093D01*
X89461093Y-76686992D01*
X88715707Y-77185044D01*
X88230541Y-77386006D01*
X87887477Y-77528108D01*
X87008236Y-77703000D01*
X86111764Y-77703000D01*
X85232523Y-77528108D01*
X84889459Y-77386006D01*
X84404293Y-77185044D01*
X83658907Y-76686992D01*
X83025008Y-76053093D01*
X82526956Y-75307707D01*
X82325994Y-74822541D01*
X82183892Y-74479477D01*
X82009000Y-73600236D01*
X82009000Y-72703764D01*
X82183892Y-71824523D01*
X82325994Y-71481459D01*
X82526956Y-70996293D01*
X83025008Y-70250907D01*
X83658907Y-69617008D01*
X84404293Y-69118956D01*
X84889459Y-68917994D01*
X85232523Y-68775892D01*
X86111764Y-68601000D01*
X87008236Y-68601000D01*
X87887477Y-68775892D01*
G37*
G36*
X87887477Y-51666452D02*
G01*
X88230541Y-51808554D01*
X88715707Y-52009516D01*
X89461093Y-52507568D01*
X90094992Y-53141467D01*
X90593044Y-53886853D01*
X90794006Y-54372019D01*
X90936108Y-54715083D01*
X91111000Y-55594324D01*
X91111000Y-56490796D01*
X90936108Y-57370037D01*
X90794006Y-57713101D01*
X90593044Y-58198267D01*
X90094992Y-58943653D01*
X89461093Y-59577552D01*
X88715707Y-60075604D01*
X88230541Y-60276566D01*
X87887477Y-60418668D01*
X87008236Y-60593560D01*
X86111764Y-60593560D01*
X85232523Y-60418668D01*
X84889459Y-60276566D01*
X84404293Y-60075604D01*
X83658907Y-59577552D01*
X83025008Y-58943653D01*
X82526956Y-58198267D01*
X82325994Y-57713101D01*
X82183892Y-57370037D01*
X82009000Y-56490796D01*
X82009000Y-55594324D01*
X82183892Y-54715083D01*
X82325994Y-54372019D01*
X82526956Y-53886853D01*
X83025008Y-53141467D01*
X83658907Y-52507568D01*
X84404293Y-52009516D01*
X84889459Y-51808554D01*
X85232523Y-51666452D01*
X86111764Y-51491560D01*
X87008236Y-51491560D01*
X87887477Y-51666452D01*
G37*
G36*
X87887477Y-34181092D02*
G01*
X88230541Y-34323194D01*
X88715707Y-34524156D01*
X89461093Y-35022208D01*
X90094992Y-35656107D01*
X90593044Y-36401493D01*
X90794006Y-36886659D01*
X90936108Y-37229723D01*
X91111000Y-38108964D01*
X91111000Y-39005436D01*
X90936108Y-39884677D01*
X90794006Y-40227741D01*
X90593044Y-40712907D01*
X90094992Y-41458293D01*
X89461093Y-42092192D01*
X88715707Y-42590244D01*
X88230541Y-42791206D01*
X87887477Y-42933308D01*
X87008236Y-43108200D01*
X86111764Y-43108200D01*
X85232523Y-42933308D01*
X84889459Y-42791206D01*
X84404293Y-42590244D01*
X83658907Y-42092192D01*
X83025008Y-41458293D01*
X82526956Y-40712907D01*
X82325994Y-40227741D01*
X82183892Y-39884677D01*
X82009000Y-39005436D01*
X82009000Y-38108964D01*
X82183892Y-37229723D01*
X82325994Y-36886659D01*
X82526956Y-36401493D01*
X83025008Y-35656107D01*
X83658907Y-35022208D01*
X84404293Y-34524156D01*
X84889459Y-34323194D01*
X85232523Y-34181092D01*
X86111764Y-34006200D01*
X87008236Y-34006200D01*
X87887477Y-34181092D01*
G37*
G36*
X77814254Y-8370818D02*
G01*
X78187511Y-8525426D01*
X78187513Y-8525427D01*
X78523436Y-8749884D01*
X78809116Y-9035564D01*
X79033574Y-9371489D01*
X79188182Y-9744746D01*
X79267000Y-10140993D01*
X79267000Y-10545007D01*
X79188182Y-10941254D01*
X79033574Y-11314511D01*
X79033573Y-11314513D01*
X78809116Y-11650436D01*
X78523436Y-11936116D01*
X78187513Y-12160573D01*
X78187512Y-12160574D01*
X78187511Y-12160574D01*
X77814254Y-12315182D01*
X77418007Y-12394000D01*
X77013993Y-12394000D01*
X76617746Y-12315182D01*
X76244489Y-12160574D01*
X76244488Y-12160574D01*
X76244487Y-12160573D01*
X75908564Y-11936116D01*
X75622884Y-11650436D01*
X75398427Y-11314513D01*
X75398426Y-11314511D01*
X75243818Y-10941254D01*
X75165000Y-10545007D01*
X75165000Y-10140993D01*
X75243818Y-9744746D01*
X75398426Y-9371489D01*
X75622884Y-9035564D01*
X75908564Y-8749884D01*
X76244487Y-8525427D01*
X76244489Y-8525426D01*
X76617746Y-8370818D01*
X77013993Y-8292000D01*
X77418007Y-8292000D01*
X77814254Y-8370818D01*
G37*
G36*
X96534054Y-8370818D02*
G01*
X96907311Y-8525426D01*
X96907313Y-8525427D01*
X97243236Y-8749884D01*
X97528916Y-9035564D01*
X97753374Y-9371489D01*
X97907982Y-9744746D01*
X97986800Y-10140993D01*
X97986800Y-10545007D01*
X97907982Y-10941254D01*
X97753374Y-11314511D01*
X97753373Y-11314513D01*
X97528916Y-11650436D01*
X97243236Y-11936116D01*
X96907313Y-12160573D01*
X96907312Y-12160574D01*
X96907311Y-12160574D01*
X96534054Y-12315182D01*
X96137807Y-12394000D01*
X95733793Y-12394000D01*
X95337546Y-12315182D01*
X94964289Y-12160574D01*
X94964288Y-12160574D01*
X94964287Y-12160573D01*
X94628364Y-11936116D01*
X94342684Y-11650436D01*
X94118227Y-11314513D01*
X94118226Y-11314511D01*
X93963618Y-10941254D01*
X93884800Y-10545007D01*
X93884800Y-10140993D01*
X93963618Y-9744746D01*
X94118226Y-9371489D01*
X94342684Y-9035564D01*
X94628364Y-8749884D01*
X94964287Y-8525427D01*
X94964289Y-8525426D01*
X95337546Y-8370818D01*
X95733793Y-8292000D01*
X96137807Y-8292000D01*
X96534054Y-8370818D01*
G37*
M02*
